<svg id="Ravenclaw" xmlns="http://www.w3.org/2000/svg" xmlns:xlink="http://www.w3.org/1999/xlink" viewBox="0 0 512 512"><defs><style>.cls-1{stroke-miterlimit:10;stroke-width:9px;fill:url(#Blue_Zircon);stroke:url(#Steel_Radial);}</style><linearGradient id="Blue_Zircon" x1="43.17" y1="255.65" x2="468.83" y2="255.65" gradientUnits="userSpaceOnUse"><stop offset="0" stop-color="#0096bb"/><stop offset="0.06" stop-color="#0899bd"/><stop offset="0.14" stop-color="#1fa1c2"/><stop offset="0.25" stop-color="#45afcb"/><stop offset="0.38" stop-color="#78c1d7"/><stop offset="0.5" stop-color="#b0d5e4"/><stop offset="0.51" stop-color="#a9d1e1"/><stop offset="0.6" stop-color="#76b6c8"/><stop offset="0.69" stop-color="#4c9fb4"/><stop offset="0.78" stop-color="#2b8ea4"/><stop offset="0.86" stop-color="#138199"/><stop offset="0.93" stop-color="#057a92"/><stop offset="1" stop-color="#007790"/></linearGradient><radialGradient id="Steel_Radial" cx="256" cy="255.65" r="225.49" gradientUnits="userSpaceOnUse"><stop offset="0" stop-color="#e5e2df"/><stop offset="0" stop-color="#f1efee"/><stop offset="0" stop-color="#fff"/><stop offset="0.13" stop-color="#f0f0f1"/><stop offset="0.37" stop-color="#c9cacb"/><stop offset="0.52" stop-color="#adaeb0"/><stop offset="0.6" stop-color="#a3a5a7"/><stop offset="0.74" stop-color="#898d90"/><stop offset="0.91" stop-color="#5f6769"/><stop offset="1" stop-color="#465053"/></radialGradient></defs><title>Ravenclaw</title><path class="cls-1" d="M255.36,27.17c11.35-.72,20.94,2.5,30.76,5.23,11.38,3.16,22.72,6.35,33.81,10.4,11.24,4.11,22.55,8.06,33.62,12.58a189.11,189.11,0,0,1,48,28.2,23.71,23.71,0,0,1,3,2.68c1,1.11,2.14,2.33,1.29,4-.75,1.45-2.29,1.15-3.58,1.18A15.49,15.49,0,0,0,388.87,99c-3.3,5.17-7.49,9.85-9.3,15.87-2.94,9.74,1.24,14.87,11.25,14.32,7.29-.4,12.06-5.21,17.28-9.27,7-5.42,9.33-5.39,15.63,1,11.8,12,23.62,23.91,36.17,35.1,1.24,1.11,2.34,2.37,3.49,3.58,5.41,5.66,6.91,11.56,4,19.48-12,32.33-23.36,64.89-38.22,96.08a132.34,132.34,0,0,0-8.75,26c-1.54,6.4-1.35,12.4,3.78,17.62,4.19,4.25,7.5,9.37,12.64,12.68,2.88,1.85,2.74,4,1.31,6.84C425.54,363,408.83,384.87,391,405.71c-11.6,13.51-27.17,23-41,34.25-26,21.29-56.61,33.36-88.06,43.7a18.4,18.4,0,0,1-11.78-.26c-23.75-7.88-47-16.86-68.43-30-14.24-8.77-26.28-20.47-39.83-30.11-18.34-13.05-30.85-31-44.06-48.63a298.09,298.09,0,0,1-22.43-35.39c-2.07-3.75-1.93-6.17,1.85-8.75a41.51,41.51,0,0,0,15-18.89c2.34-5.65.57-11.26-1-16.64C87,280,80.09,266.09,74.22,251.76,64.49,228,55.11,204.14,45,180.54c-3.66-8.58-1.87-15,4.46-21.06C60.72,148.79,71.83,138,83,127.28c3.36-3.22,6.27-6.91,10.12-9.64,3.28-2.33,6.32-2.58,9.47.26,2.34,2.12,4.91,4,7.33,6a22.19,22.19,0,0,0,16.2,5.29c4.77-.27,7.39-2.8,8-7.36a13.54,13.54,0,0,0-.34-5.92A56.68,56.68,0,0,0,120.56,95a12.79,12.79,0,0,0-9.61-3.54c-1.45,0-3.22.5-3.92-1.32-.63-1.62.53-2.92,1.49-4,4.77-5.42,10.67-9.57,16.56-13.57a113,113,0,0,1,26.7-13.46c5-1.72,9.53-4.53,14.47-6.55,14.47-5.91,28.94-12.34,44-15.86C225.5,33.17,239.92,24.94,255.36,27.17Z"/><path d="M230.31,258.18c-.19.39.88,1.36-.53,1.08a2.46,2.46,0,0,1-1.61,3.06c-.28.05-.47-.12-.67-.25-2.18-1.48-4.85-2-7-3.51a5.69,5.69,0,0,0,2.49,2.26c-.81,1.21-1.15,1.26-2.32.45-1.75-1.2-3.62-2.24-5-4.22-.09,1.13.76,1.47.91,2.25-.79,0-1-.59-1.36-1.06s-.72-1.48-1.81-.84c-.41.24-.72-.29-.94-.63a4.41,4.41,0,0,1-.62-2.47,1.74,1.74,0,0,0-.64-1.29.78.78,0,0,0-.06.93c.2.49.1.74-.41,1a10.87,10.87,0,0,0-1.72,1.26,1.46,1.46,0,0,1-2-.14c-.8-.86-1.46-.82-2.08.15a24,24,0,0,0-2,3.57,11.16,11.16,0,0,1-5.41,5.39c-4.9,2.63-10.34,4.22-14.88,7.6a27.2,27.2,0,0,1-3.19,1.66,10,10,0,0,0-3.43,2.73,6.81,6.81,0,0,1-4.11,2.34,8.08,8.08,0,0,0-3.27,1.43,2,2,0,0,1-1.11.51c-1.22-.06-1.62.73-1.88,1.67s-.72.56-1.1.14a2.14,2.14,0,0,1,.43-3.49c1-.69,1.74-1.73,2.93-2.21a1,1,0,0,0,.59-1.41c-.41-.72-.92-.33-1.49-.11a25.59,25.59,0,0,0-4.95,2.42,1.21,1.21,0,0,1-1.6-.18c-.24-.24-.48-.44-.87-.28.7.74,1.89.82,2.29,1.9a1,1,0,0,1-.11,1.15c-.24.28-.53.49-.74,0-.13-.32-.19-.68-.65-.57s-.15.63-.3,1c-.42.06-.6-.36-.91-.51-2.31-1.16-2.55-2.75-.55-4.36,1.08-.87,2.12-2.06,3.83-1.57.46.13.68-.16.74-.71a3.44,3.44,0,0,1,3.41-3.38,37.36,37.36,0,0,0,5.1-1.33,1.67,1.67,0,0,1,.82.06,10.09,10.09,0,0,0,6.08-.44c1.34-.6,2.79-1,4.19-1.52l-1.64,1.49a3.13,3.13,0,0,0,2.26-1.16,20.39,20.39,0,0,1,4.73-4.37,11.07,11.07,0,0,0,3.16-3.94,11.58,11.58,0,0,1,2.42-3.28,31.31,31.31,0,0,0,5.2-6.3,7.28,7.28,0,0,0,.7-2.75,21.09,21.09,0,0,1,4-9.38c.86-1.09,1.22-2.51,2.27-3.51.26-.25.75-.74.22-1.17-.71-.57-1.12-1.73-2.23-1.53-.6.11-1.19.2-1.8.28a2.25,2.25,0,0,0-2.13,1.45c-.31.93-1.49.87-1.87,1.73-.63,1.46-1.67,2.68-2.44,4.07a8.3,8.3,0,0,1-4.67,4.25c-5.09,1.71-10.37,2.89-15.26,5.2a35.42,35.42,0,0,0-3.24,1.56c-1,.62-1.36,1.82-2,2.79-1.68,2.75-2.09,5.89-2.76,9a3.55,3.55,0,0,1-2.09,2.46c-1.4.7-2.75,1.49-4.44,1-.43-.13-1,0-1.09-.56-.09-.68.58-.65,1-.81a13.44,13.44,0,0,0,2.09-.78c1.16-.61,1.29-1.49.33-2.35a1.41,1.41,0,0,1-.36-1.78,14.41,14.41,0,0,0,1.17-3.4c0-.29.13-.62-.14-.81s-.64,0-.88.23c-1.18,1.1-2.35,2.22-3.52,3.33a1.27,1.27,0,0,0-.3,1.16c.08.66.55,1.6-.38,1.82a2.18,2.18,0,0,1-2.36-1c-.6-1-1-2.26-.15-3.38,1.11-1.45,1.8-3.28,3.63-4.1.23-.1.44-.3.29-.59s-.34-.18-.55-.15c-1.21.18-2,1.16-2.93,1.74a25.37,25.37,0,0,0-2.1,1.74,2.35,2.35,0,0,1-2.43.52,2.15,2.15,0,0,1-1-2c0-.08,0-.2,0-.24,1.51-1.36,1.08-3.67,2.52-5.08a4.07,4.07,0,0,1,3-1.26,36.24,36.24,0,0,0,16.24-3.54,23.74,23.74,0,0,1,4.9-1.38,7.58,7.58,0,0,0,5.34-3.63,39.21,39.21,0,0,1,5.47-7.21,4.4,4.4,0,0,0,1.17-2.4,5.51,5.51,0,0,1,2-3.83,2.51,2.51,0,0,0,.68-1.16c.52-1.16.71-2.43,1.33-3.58.38-.7-.3-1.63-.36-2.48-.2-2.9-2.59-3.49-4.65-4.37a40.38,40.38,0,0,0-4.8-1.69c-.87-.25-1.82,0-2.73-.44-3.18-1.48-6.3-3.12-9.53-4.46s-6.28-3.17-9.85-3.58a22,22,0,0,1-3.91-1c-1.84-.56-3.53-.2-5.3-.17-1,0-2,1.2-3,.2,0,0-.17,0-.19.09-.41,1.42-1.68,1-2.62,1.33-.11-.4.36-.32.37-.71l-2.35.94a35.06,35.06,0,0,1-6.82,1.88c-.41.08-.82.12-1.22.24-1.46.42-1.51.39-1.42-1.21a7.93,7.93,0,0,1,1.23-3.87,17.83,17.83,0,0,1,3.21-3.92,4.17,4.17,0,0,0,1.26-2,2.6,2.6,0,0,1,1.34-1.6,16.9,16.9,0,0,1,6.79-3,2.51,2.51,0,0,0,1.29-.71c1.4-1.3,2.4-3,4.11-4-.5-.28-.61.35-1.15.11,1.28-.86,2.1-2.05,3.47-2.77a15.58,15.58,0,0,0,5.1-3.92,1.2,1.2,0,0,1,.73-.42c1.89-.42,3.69-1.15,5.54-1.7a10.22,10.22,0,0,1,3-.49,33,33,0,0,0,6.1-.84,56.43,56.43,0,0,1,8.66-.53c2.86,0,5.71,0,8.57,0,2.33,0,3.73-1.65,5.08-3.19,3.88-4.41,5.95-9.79,7.91-15.22,1.52-4.2,3.15-8.36,4.37-12.67,1-3.48,1.09-7.12,2.12-10.58l.36-1.19c.74-2.41,1.39-4.84,2-7.27a54,54,0,0,1,6.78-16.18,16.85,16.85,0,0,1,10.7-7.3,8.74,8.74,0,0,0,4.75-3.09c6-6.79,12.22-13.41,19.51-18.91a110.26,110.26,0,0,1,15.53-10.26c1.43-.74,2.9-1.41,4.37-2.06.48-.21,1.07-.41,1.49.13a1.24,1.24,0,0,1-.13,1.51,16.84,16.84,0,0,1-1.64,2.17,46.78,46.78,0,0,1-7.75,7.29c-2,1.41-3.89,3.09-5.8,4.68-.41.34-1.08.73-.58,1.42s1,.24,1.52-.07q5.56-3.29,11.14-6.53c3.83-2.22,7.93-3.93,11.78-6.12,5.51-3.13,11.46-5.13,17.37-7.26a28,28,0,0,1,3.84-.71,12.36,12.36,0,0,1,2.27-.45c.58,0,1.26-.28,1.5.43a1.53,1.53,0,0,1-.58,1.76c-3.44,2.52-6.86,5.07-10.34,7.54-4.5,3.19-9.44,5.65-14.17,8.47-.49.29-1.45.49-1.09,1.2s1.05,0,1.54-.21c6.94-3.38,14.29-5.71,21.48-8.45,4-1.54,8.21-2.61,12.35-3.81.56-.16,1.3-.55,1.64.24a1.84,1.84,0,0,1-.57,2.08,46.79,46.79,0,0,1-6.85,5.7c-.75.58-1.61,1-2.41,1.53-.23.15-.6.31-.47.64s.5.14.74,0l9.5-4c1.6-.68,3.19-1.38,4.79-2.06a1.35,1.35,0,0,1,1.59.34,1.36,1.36,0,0,1,.27,1.6c-.9,2.31-2.69,3.94-4.32,5.7-1.08,1.16-2.53,2-3.34,3.4a2.2,2.2,0,0,1-1,.68c-3.13,1.42-6,3.27-9.07,4.88-2.81,1.49-5.75,2.75-8.64,4.11-.36.17-1,.27-.85.73s.78.24,1.18.11c7.18-2.46,14.55-4.23,21.9-6.08,1.4-.35,2.78-.81,4.18-1.19.54-.14,1.11-.42,1.55.27a1.76,1.76,0,0,1,.17,2A14.12,14.12,0,0,1,328.65,96a48.38,48.38,0,0,1-8.7,5,19.52,19.52,0,0,0-5.31,3.16c-1.12,1-2.56,1.31-3.81,2-.46.26-.9.55-.78,1.13s.68.66,1.19.67a19.89,19.89,0,0,1,3.84.22c1.06.22,2.19.4,2.42,1.74s-.6,1.83-1.48,2.47c-3,2.16-6.05,4.2-9.18,6.14a2.76,2.76,0,0,0-1.34,1.69,5.24,5.24,0,0,1-1.2,1.71c-1.51,1.81-3,3.66-4.32,5.61a2,2,0,0,1-1.8.86c-2.24,0-4-1.22-5.84-2.25-.61-.34-1.35-1.22-1.93-.45-.47.62.56,1.12.94,1.66a5.33,5.33,0,0,0,5,2.23,4.79,4.79,0,0,1,4.64,4.26,1.18,1.18,0,0,1-.21.82,38.71,38.71,0,0,1-5.8,6.45,10.3,10.3,0,0,1-3.17,1.36c-.69.27-1.41.47-2.12.68a1,1,0,0,0-.77,1.12c.2,3-1.05,5.52-2.19,8.1-.5,1.13-1,2.13-.13,3.35a3.21,3.21,0,0,1,.3,2.3,9.13,9.13,0,0,0-.16,1.85c.22,2.85-1.18,5-3,6.9-1.54,1.61-1.57,1.59-.64,3.57,1.25,2.65.82,4.76-1.08,7.18a12.1,12.1,0,0,1-2.87,3.05c-.45.28-.33.7-.25,1.11a5.35,5.35,0,0,1-.73,4.16,7.72,7.72,0,0,0-1.32,3c0,.31-.22.36-.42.52-1.37,1.06-2.82,2-2.18,4.22a4.67,4.67,0,0,1-.45,3c-.39.91-.7,1.86-1.08,2.78a3.32,3.32,0,0,1-1.89,1.86c-.46.19-.91.48-.83,1.1a1.24,1.24,0,0,0,1,1,140.37,140.37,0,0,0,18.41,5.11c6.09,1.23,12.13,2.73,18.17,4.18,2.7.65,5.45,1.07,8.16,1.68a27.93,27.93,0,0,0,5,.83,11.52,11.52,0,0,0,4.38-.63c3-1.07,6.12-1.82,9.19-2.66a33.2,33.2,0,0,0,9.23-4.19,31.47,31.47,0,0,1,4-2c.41-.19.81-.27,1.14.1s0,.67-.2,1a7.16,7.16,0,0,1-2,2,21.05,21.05,0,0,1-7.46,4.07c-3.81,1-7.57,2.17-11.42,3-.46.1-1,.19-.92.8s.53.68,1,.69q1.62,0,3.23,0a13.66,13.66,0,0,1,3.92.44c2.07.6,4.08-.24,6.09-.62a20.65,20.65,0,0,1,3-.53c5.51-.19,10.6-2.07,15.78-3.67,7.48-2.3,13.9-6.56,20.55-10.43.34-.2.65-.43,1-.07a.76.76,0,0,1,0,1,3,3,0,0,1-.6.62c-4.82,3.62-9.81,6.89-15.6,8.83-5.2,1.74-10.47,3.15-15.81,4.38-.61.14-1.21.28-1.81.45s-1.32.14-1.21.79c.14.82.93.29,1.46.34,3.07.29,6.1-.23,9.15-.33a73.66,73.66,0,0,0,9.82-1.38c7.89-1.32,15.37-4.08,23-6.28q1-.29,2-.52a.51.51,0,0,1,.61.31c.11.28,0,.47-.27.62a13.14,13.14,0,0,1-4.11,2.28c-3.83.92-7.55,2.22-11.31,3.39-4,1.24-8.12,1.62-12.17,2.45a5.76,5.76,0,0,0-2.45,1.08c1.36.26,2.5.79,3.52.62,3.56-.61,7.1-.05,10.65-.13,2.75-.06,5.39-.77,8.1-1,3.91-.39,7.81-.93,11.71-1.42.64-.08,1.28-.21,2.17-.35a7,7,0,0,1-3.85,3,27.44,27.44,0,0,1-8.76,1.5c-6.25.17-12.48,1-18.73.76-7.28-.28-14.55-.9-21.83-1.13-8.59-.28-17.06-1.6-25.54-2.83-5.65-.82-11.25-2-16.87-3-.49-.09-1-.09-1.48-.19-1.1-.22-1.68.19-1.72,1.32,0,.38,0,.75-.4,1a.43.43,0,0,0-.2.63c.67,1.2.31,2.22-.11,3.49a4.12,4.12,0,0,1-1.81,2.25.53.53,0,0,0-.19.42c0,.24.27.28.48.29,4.3.12,7.82,2.55,11.66,4,.47.18.84.34.51,1.08-.45,1,.56,2.56,1.6,3,1.78.75,3.51,1.6,5.27,2.41a6.19,6.19,0,0,0,1.15.45c.58.13.84.23.33.85a.79.79,0,0,0,.46,1.35c.68.18.59.38.33.92-.7,1.48-1.39,2.89-3.41,2.93.38.17.78.31,1.15.51a3.3,3.3,0,0,1,2,2.52,2.78,2.78,0,0,0,.77,1.67c.9.82.47,1.18-.37,1.52a8,8,0,0,0-.9.55c1-.07,1.53.11,1.58,1.09.61-1.41,1.65-.81,2.48-.8.5,0,.62.57.61,1.07,0,1.2,0,2.4,0,3.6a1.29,1.29,0,0,1-.42,1.11,2.93,2.93,0,0,0-1.14,2.25c0,.16-.06.45-.12.46-1.18.17-1.72,1.23-2.58,1.82-.41.28-1.07.15-.86,1,.06.25-.2.43-.4.58-.67.49-.61.9.45,1.26a5.64,5.64,0,0,0-2.38,1c-.59.4-1.59.19-2.39.26-.09.46.28.38.45.49.54.34.42.86.34,1.34s-.55.58-1,.55c-.8-.06-1.5-.06-1.55,1,0,.39-.46.39-.78.48a14,14,0,0,1-3.21.23c-.22,0-.45,0-.49-.22s.2-.46.46-.42a5.17,5.17,0,0,0,2.45-.57c-.19-.6-.55-.36-.83-.29a12.08,12.08,0,0,1-7.22,0c-.79-.26-1.11-.1-1.2.78a28.79,28.79,0,0,0-.36,4.3c0,.66-.38.61-.76.72-2.93.82-5.83.34-8.71-.29-.4-.09-.8-.2-1.2-.31-.6-.16-1.26-.54-1.78-.41s-.33,1-.56,1.52a2.34,2.34,0,0,1-2.66,1.42c-.46-.08-.39.08-.94.34s-1.55.33-1.74-.32-.6-.51-.89-.58a50.72,50.72,0,0,1-17.17-8.16c-.56-.41-1-1.31-2-.87-.06,0-.22,0-.22-.06-.17-1.73-2.19-1.51-2.9-2.78a3.54,3.54,0,0,0-2.67-1.63,4.76,4.76,0,0,1-3-1.74A1.28,1.28,0,0,0,250,259c-.42-.67-.87-1.29-1.76-.72-.29.19-.41-.17-.62-.25-1.07-.46-1.77-1.67-3.14-1.52-.32,0-.35-.28-.3-.55s.19-.59.58-.47a29.43,29.43,0,0,0,5.38.71c1.47.16,2.11,1.35,3.16,2.13-.86-1.71-2.05-2.38-4.56-2.62a26.4,26.4,0,0,1-5.16-.84c.36,1.31-.18,1.48-1.31,1.36s-2.51,0-3.73-.56a1.11,1.11,0,0,0,.41.93c.37.45,1.39.66.73,1.52a2,2,0,0,1-2.38.83,27.65,27.65,0,0,0-3.88-1.35c.11.35.86.32.63.79s-.76-.13-1,0C232.11,259.13,231.3,258.22,230.31,258.18Z"/><path d="M217.14,417.13q1.61-11.21,2.42-21.17t.81-18.82q0-10.25-.84-19.59t-1.94-17.76l-.44-2.49a40.1,40.1,0,0,0,8.9-2.09,63.59,63.59,0,0,0,9.56-4.43q-1.69,10.69-2.53,19.63t-.84,16.26v2.42q0,1.1.07,2.42t.15,3.08q.07,1.76.22,4.32l1.39.66a48.49,48.49,0,0,0,16.33,3.3,32.21,32.21,0,0,0,9.48-1.5,30.69,30.69,0,0,0,8.13-4,20.67,20.67,0,0,0,6-6.3,24.91,24.91,0,0,0,3.15-8.42q.44-2.64.7-4.94a39.81,39.81,0,0,0,.26-4.36,31.56,31.56,0,0,0-.81-7.14,40.17,40.17,0,0,0-2.12-6.59,35.32,35.32,0,0,0-3-5.71,36.09,36.09,0,0,0-3.55-4.58,21.86,21.86,0,0,0-4.29-3.37,34.08,34.08,0,0,0-5.9-2.86,42.51,42.51,0,0,0-7.21-2,45.74,45.74,0,0,0-8.39-.73,37.83,37.83,0,0,0-8,.92,56.7,56.7,0,0,0-8.53,2.6,71.4,71.4,0,0,0-8.68,4.1,73.54,73.54,0,0,0-8.46,5.49L214,314.3l8.64-3.44q2.93-1.17,3.22-1.25,6.59-1.76,11.21-2.6a44,44,0,0,1,7.62-.84,41.58,41.58,0,0,1,7.8.84,55.31,55.31,0,0,1,8.94,2.56,59.93,59.93,0,0,1,8.94,4.25,43.06,43.06,0,0,1,7.87,5.82,38.93,38.93,0,0,1,5.35,6.33,46.58,46.58,0,0,1,4.17,7.58,44.64,44.64,0,0,1,2.71,8.42,41.81,41.81,0,0,1,1,8.86,47.69,47.69,0,0,1-.81,7.87,41.56,41.56,0,0,1-2.34,7.91,34,34,0,0,1-4.61,7.91A40.2,40.2,0,0,1,276,382a13.84,13.84,0,0,1-2,1.32l-.07.07a150.9,150.9,0,0,0,8.75,15.12,103.35,103.35,0,0,0,9.34,12.12,40.26,40.26,0,0,0-8.9,2.09,63.74,63.74,0,0,0-9.56,4.43q-6.88-21.9-10.77-29.3-.73.15-1.68.29t-2.27.29q-1.32.15-2.86.26t-3,.11a59.52,59.52,0,0,1-9.56-.77,85.67,85.67,0,0,1-9.41-2.09l-1.1-.22q.59,9.82,1,15.56a37.35,37.35,0,0,0,1,7.43l.59,1.68a43.35,43.35,0,0,0-6.26,1.1,31.73,31.73,0,0,0-5.09,1.76q-2.27,1-4,2T217.14,417.13Z"/></svg>