<svg id="Slytherin" xmlns="http://www.w3.org/2000/svg" xmlns:xlink="http://www.w3.org/1999/xlink" viewBox="0 0 512 512"><defs><style>.cls-1{stroke-miterlimit:10;stroke-width:9px;fill:url(#Emerald);stroke:url(#Steel_Radial);}</style><linearGradient id="Emerald" x1="43.17" y1="256.13" x2="468.83" y2="256.13" gradientUnits="userSpaceOnUse"><stop offset="0" stop-color="#008145"/><stop offset="0.09" stop-color="#048346"/><stop offset="0.18" stop-color="#108a4b"/><stop offset="0.27" stop-color="#249552"/><stop offset="0.36" stop-color="#40a45d"/><stop offset="0.44" stop-color="#63b86a"/><stop offset="0.49" stop-color="#78c372"/><stop offset="0.53" stop-color="#64b86b"/><stop offset="0.63" stop-color="#40a45d"/><stop offset="0.72" stop-color="#249553"/><stop offset="0.81" stop-color="#108a4b"/><stop offset="0.91" stop-color="#048347"/><stop offset="1" stop-color="#008145"/></linearGradient><radialGradient id="Steel_Radial" cx="256" cy="256.13" r="225.49" gradientUnits="userSpaceOnUse"><stop offset="0" stop-color="#e5e2df"/><stop offset="0" stop-color="#f1efee"/><stop offset="0" stop-color="#fff"/><stop offset="0.13" stop-color="#f0f0f1"/><stop offset="0.37" stop-color="#c9cacb"/><stop offset="0.52" stop-color="#adaeb0"/><stop offset="0.6" stop-color="#a3a5a7"/><stop offset="0.74" stop-color="#898d90"/><stop offset="0.91" stop-color="#5f6769"/><stop offset="1" stop-color="#465053"/></radialGradient></defs><title>Slytherin</title><path class="cls-1" d="M255.36,27.64c11.35-.72,20.94,2.5,30.76,5.23,11.38,3.16,22.72,6.35,33.81,10.4,11.24,4.11,22.55,8.06,33.62,12.58a189.11,189.11,0,0,1,48,28.2,23.71,23.71,0,0,1,3,2.68c1,1.11,2.14,2.33,1.29,4-.75,1.45-2.29,1.15-3.58,1.18a15.49,15.49,0,0,0-13.33,7.57c-3.3,5.17-7.49,9.85-9.3,15.87-2.94,9.74,1.24,14.87,11.25,14.32,7.29-.4,12.06-5.21,17.28-9.27,7-5.42,9.33-5.39,15.63,1,11.8,12,23.62,23.91,36.17,35.1,1.24,1.11,2.34,2.37,3.49,3.58,5.41,5.66,6.91,11.56,4,19.48-12,32.33-23.36,64.89-38.22,96.08a132.34,132.34,0,0,0-8.75,26c-1.54,6.4-1.35,12.4,3.78,17.62,4.19,4.25,7.5,9.37,12.64,12.68,2.88,1.85,2.74,4,1.31,6.84-12.57,24.67-29.28,46.56-47.17,67.4-11.6,13.51-27.17,23-41,34.25-26,21.29-56.61,33.36-88.06,43.7a18.4,18.4,0,0,1-11.78-.26c-23.75-7.88-47-16.86-68.43-30-14.24-8.77-26.28-20.47-39.83-30.11-18.34-13.05-30.85-31-44.06-48.63A298.09,298.09,0,0,1,75.41,339.7c-2.07-3.75-1.93-6.17,1.85-8.75a41.51,41.51,0,0,0,15-18.89c2.34-5.65.57-11.26-1-16.64C87,280.5,80.09,266.57,74.22,252.24,64.49,228.5,55.11,204.61,45,181c-3.66-8.58-1.87-15,4.46-21.06,11.21-10.69,22.31-21.49,33.5-32.2,3.36-3.22,6.27-6.91,10.12-9.64,3.28-2.33,6.32-2.58,9.47.26,2.34,2.12,4.91,4,7.33,6a22.19,22.19,0,0,0,16.2,5.29c4.77-.27,7.39-2.8,8-7.36a13.54,13.54,0,0,0-.34-5.92,56.68,56.68,0,0,0-13.19-20.92A12.79,12.79,0,0,0,110.95,92c-1.45,0-3.22.5-3.92-1.32-.63-1.62.53-2.92,1.49-4,4.77-5.42,10.67-9.57,16.56-13.57a113,113,0,0,1,26.7-13.46c5-1.72,9.53-4.53,14.47-6.55,14.47-5.91,28.94-12.34,44-15.86C225.5,33.64,239.92,25.42,255.36,27.64Z"/><path d="M244,281a8.24,8.24,0,0,1-3.19.08,1.61,1.61,0,0,1-.66-.15,2.12,2.12,0,0,0-1.64-.22,11.23,11.23,0,0,1-3.05-.07q-3.9-.29-7.8-.61c-1.36-.11-2.71-.25-4.06-.4a6.58,6.58,0,0,1-1.22-.26,28.8,28.8,0,0,0-5.36-.91l-7.21-.83c-1.24-.14-2.49-.21-3.71-.44-2.45-.46-4.9-1-7.32-1.54-4-1-8.06-2-12.08-3.08-.91-.24-1.81-.54-2.72-.8a3.53,3.53,0,0,1-2.18-1.36,1.76,1.76,0,0,0-.45.15,1,1,0,0,1-1,.09c-.25-.09-.5-.18-.74-.28l-3-1.33c.27-.77-.26-1-.82-1.28l-.79.91a4.69,4.69,0,0,1-.54-.43c-.44-.47-.85-1-1.29-1.43a2.69,2.69,0,0,1-.92-1.84c-.63-.39-.63-.39-1.05-1.25-.15.08-.35.12-.43.25a1.89,1.89,0,0,0-.08,2c.18.33.46.6.67.91s.51.24.81.22c.14.28,0,.45-.26.52a.7.7,0,0,1-.52-.05,3.65,3.65,0,0,1-.58-.54l-1.41-1.4.25-.61-1.2-2a1,1,0,0,0-1,.21.64.64,0,0,0-.06.77l1,.45c-.09.14-.14.23-.21.32-.41.55-.35,1,.22,1.29a6.42,6.42,0,0,1,.61.28.53.53,0,0,1,.14.39c0,.18-.24.28-.44.23a1.13,1.13,0,0,1-.72-.5c-.29-.45-.61-.87-.89-1.32a2.12,2.12,0,0,0-.89-1c-.31-.14-.36-.48-.44-.76-.19-.65-.36-1.31-.55-2,0-.11-.17-.18-.39-.41.07.53.12.85.14,1.18s0,.68,0,1a2.5,2.5,0,0,0,1.67,2.56,2.54,2.54,0,0,1,.38.22c0,.3-.16.34-.37.24s-.45-.27-.69-.4a2.74,2.74,0,0,0-.81-.38,2.11,2.11,0,0,1-1.31-.81,5,5,0,0,1-1.37-3.73,3.54,3.54,0,0,0-.24-2l-.39.23a1.78,1.78,0,0,1-.15-1.2,5.36,5.36,0,0,1,.76-2.24c.5-.84,1-1.7,1.48-2.57l-.43-.33c.23-.69.44-1.4.7-2.1a1,1,0,0,0-.19-1.15c-.23-.25-.43-.53-.67-.77a1.46,1.46,0,0,0-1.64-.45l-.54.17a4,4,0,0,1-3.68-.45,2.69,2.69,0,0,1-1-.86l1-.18-3.9-2.52a7.37,7.37,0,0,0-1.43-2.94A4.79,4.79,0,0,1,151,238c-.15-.16-.27-.3-.4-.43a1.19,1.19,0,0,1-.3-1.62,1,1,0,0,0-.3-1.48c-.06,0-.09-.12-.16-.23a7.28,7.28,0,0,1,.7-2.67,9.65,9.65,0,0,1,1.65-2.57c.69-.8,1.39-1.6,2.05-2.43a24.91,24.91,0,0,1,7-5.85c.49-.29,1-.6,1.46-.87.66-.37,1.31-.75,2-1.06A72.53,72.53,0,0,1,179,214.25q3.71-.79,7.44-1.55a2.42,2.42,0,0,1,2,.12c2.29-1,4.68-1.74,6.69-3.28a4.32,4.32,0,0,1,1.62-.78,4.13,4.13,0,0,0,1.92-1.15c.54-.53,1.14-1,1.72-1.47s1.49-1.17,2.18-1.81q2.72-2.57,5.38-5.21a16,16,0,0,0,1.41-1.77c.11-.14.23-.4.18-.51-.28-.53.07-.86.33-1.22a14,14,0,0,0,1.58-2.62c0-.1.08-.26.16-.29,1-.4,1-1.43,1.49-2.19l-.41-.27a2.3,2.3,0,0,1,.47-1.16.86.86,0,0,0,.9-.64,16.83,16.83,0,0,0,.87-2.33c.19-1,.61-1.86.79-2.8A25.49,25.49,0,0,1,217,179.2a.88.88,0,0,0,0-.26l-.39-.28c.13-.4.26-.83.41-1.25.33-.92.68-1.84,1-2.77.09-.25.22-.51.05-.76a1.67,1.67,0,0,1-.07-1.32c.46-2.41.93-4.82,1.4-7.23,0-.22.08-.45.13-.67a2.9,2.9,0,0,0-.25-2c-.34-.72-.66-1.44-1-2.17a21.88,21.88,0,0,1-1.42-4.3,13.89,13.89,0,0,0-.67-1.92c-.13-.35-.3-.68-.43-1,.18-.55.63-.74.95-1,.66-.62.69-.87.17-1.81-.3.11-.61.24-.93.32a1.14,1.14,0,0,1-1.48-1.11,4.33,4.33,0,0,1,.22-1.33c.32-1,.7-2,1.05-3a3.48,3.48,0,0,0,.23-.76,2.28,2.28,0,0,0-.1-.63c-.38-.08-.63.12-.92.19a1.39,1.39,0,0,0-1.2,1.64,1.12,1.12,0,0,1-.08.3c-.16-.08-.36-.11-.44-.22a2.18,2.18,0,0,1-.15-2.21c.36-.17.47.48.81.15a4.83,4.83,0,0,0-1-2.51l-.69.49c-.07,0-.17,0-.21-.05a3.46,3.46,0,0,1-.59-3.51,4.23,4.23,0,0,1,1.16-1.79l.52.17c0-.07.09-.16.07-.21a13,13,0,0,0-1.31-2.69,3.9,3.9,0,0,1-.44.61c-.51.46-.94.36-1.25-.28a2.53,2.53,0,0,1,0-2.2,18.76,18.76,0,0,1,.94-1.81,3.93,3.93,0,0,0,.46-2.63c0-.34-.12-.7-.52-.79a.81.81,0,0,0-.92.49,3.07,3.07,0,0,1-.94,1.19,2.18,2.18,0,0,1-.33-.58c-.13-.67-.22-1.34-.3-2-.12-1-.26-2-.34-3a22.25,22.25,0,0,1,.28-5.88,7.17,7.17,0,0,0-.12-3.37,5.69,5.69,0,0,1,0-2.92c.48-2.06,1-4.12,1.48-6.17a9.35,9.35,0,0,1,1.82-3.62,4.46,4.46,0,0,0,.8-1.6c.3-1,.64-2,1-3.06a.5.5,0,0,0,0-.18c-.51-1-.52-1,.52-1.62a.76.76,0,0,0,.48-.81,1,1,0,0,1,.3-.82,5.35,5.35,0,0,0,.63-.92,48.55,48.55,0,0,1,5-8,2.19,2.19,0,0,0,.45-.89,1.87,1.87,0,0,1,.49-.87c.72-.72,1.47-1.41,2.23-2.09.39-.35.81-.68,1.22-1a2.37,2.37,0,0,1,.58-.34A11.66,11.66,0,0,0,228,76.88c.3-.23.61-.44.93-.65a1.91,1.91,0,0,1,1.15-.43,1.37,1.37,0,0,0,.94-.35,7.53,7.53,0,0,1,3.08-1.36,33.11,33.11,0,0,0,3.78-1.17,14.59,14.59,0,0,1,2.08-.54c.52-.11,1-.16,1.56-.26a2.32,2.32,0,0,1,1.66,0,1.53,1.53,0,0,0,.67,0c.79,0,1.59,0,2.38-.06a7,7,0,0,0,1.34-.19,14.75,14.75,0,0,1,3.26-.39c2.76-.07,5.52,0,8.28.17a4.27,4.27,0,0,1,3.23,1.66c.69.9,1.34,1.83,1.94,2.79a11.44,11.44,0,0,1,1.43,4.27,3,3,0,0,1,0,1.13,8.21,8.21,0,0,1-1.58,3.72,1.78,1.78,0,0,0-.47,1.55c.12.75.18,1.5.32,2.25a4.13,4.13,0,0,0,.38,1.06A10.36,10.36,0,0,0,266,92.43c.18.2.37.38.53.59a.79.79,0,0,1-.1,1.12.78.78,0,0,1-1.12,0,6,6,0,0,1-.64-.64,13,13,0,0,1-2.49-4.16c-.06-.17-.15-.34-.23-.51s-.06,0-.11-.07c-.21.11-.11.31-.1.47a7.69,7.69,0,0,0,.87,3.14,10.4,10.4,0,0,1,.63,1.33.87.87,0,0,1-.32,1.1.73.73,0,0,1-1.09-.18,5.82,5.82,0,0,1-.41-.81L259,88.51a2,2,0,0,0-.27.32,3.48,3.48,0,0,0-.21.53c-.29.87-.48,1.1-1.38.94a1.48,1.48,0,0,0-.37,0,4.56,4.56,0,0,0-1.13,1.76,5.34,5.34,0,0,1,.44.85c.29.94.56,1.88.82,2.83a2.88,2.88,0,0,1,.07,1.34,4.67,4.67,0,0,0,.32,2.77,7.17,7.17,0,0,1,.43,4,16.48,16.48,0,0,0,0,4.18,61.73,61.73,0,0,1,.21,10.42c-.3,3.66-.66,7.31-.89,11-.2,3-.72,6-1.2,9-.16,1-.39,1.92-.59,2.89-.37.15-.3-.36-.65-.41-.06,0-.21.11-.26.23a1.05,1.05,0,0,0,0,.43.17.17,0,0,0,.05.1,2,2,0,0,1,.34,2c-.63,3.15-1.41,6.27-2.22,9.38-.48,1.83-.8,3.69-1.2,5.54a5.06,5.06,0,0,1-.32,1.08,14.78,14.78,0,0,0-1.23,4.23,18.49,18.49,0,0,1-1.87,6.15,5.82,5.82,0,0,0-.25.66l.64.48a33.51,33.51,0,0,0-1.32,5.41,5.75,5.75,0,0,1-1,2.49,6.88,6.88,0,0,0-1,2.28c-.37,1.15-.74,2.3-1.1,3.46a10.23,10.23,0,0,1-1.13,2.34,12.12,12.12,0,0,0-1,1.8c-2.31,5.71-4.66,11.41-7.22,17-.28.62-.51,1.26-.77,1.89-.06.14-.12.28-.17.42-.17.57,0,.84.66.87h.34c11.16-.21,22.31.15,33.47.34,6,.1,11.95.4,17.92.54,4.16.1,8.32.05,12.48.13,3.44.07,6.88.23,10.32.33,3.59.1,7.17.45,10.75.7,3,.21,6,.34,8.95.54,2.57.17,5.13.39,7.69.58l4.41.31c3.13.23,6.27.39,9.39.72a71.63,71.63,0,0,1,9,1.62,19.45,19.45,0,0,1,4.22,1.62q1.62.81,3.27,1.58a11,11,0,0,1,3.67,2.62,9.75,9.75,0,0,0,1,.87c.52.44,1.07.84,1.55,1.32a87.88,87.88,0,0,1,6,6.79A16.4,16.4,0,0,1,382.53,241a28.74,28.74,0,0,1-2.07,9.48,16.48,16.48,0,0,1-1.33,2.49,6.32,6.32,0,0,1-2.36,2.24,13.54,13.54,0,0,0-1.24.79,7.14,7.14,0,0,1-3.82,1.27,13.22,13.22,0,0,1-1.59,0l-8.83-.55c-2.08-.12-4.15-.22-6.23-.32a5.2,5.2,0,0,0-.91,0c-.87.11-1.18.66-.79,1.43a10.34,10.34,0,0,1,.76,6,6.76,6.76,0,0,1-.82,2.34,15,15,0,0,1-6,6.3A28.76,28.76,0,0,1,341,275a61.3,61.3,0,0,1-7.77,1.6l-9.41,1.47c-2.84.44-5.68.86-8.55,1.08s-5.72.53-8.59.78c-1.39.12-2.79.21-4.18.3-2,.13-4,.24-6,.39a16,16,0,0,0-1.9.29,5.69,5.69,0,0,1-1.91.1,11.46,11.46,0,0,0-1.92,0c-.72,0-1.43.12-2.15.13-13.73.16-27.46.31-41.19.24-.64,0-1.29,0-1.93,0A1.8,1.8,0,0,1,244,281Zm-45.6-57.16c-.07,0-.15-.07-.21-.05a2.05,2.05,0,0,0-1.54,1.64.77.77,0,0,0,.9,0,1.94,1.94,0,0,0,.6-.63,4,4,0,0,0,.23-1,3.05,3.05,0,0,0,.51-.19.61.61,0,0,0,.3-.31.93.93,0,0,0,0-.85C198.66,222.87,198.59,223,198.44,223.86Zm17.25-37.6a1.25,1.25,0,0,0,0,.37,2.86,2.86,0,0,1-1.11,3.21,7.43,7.43,0,0,0-.59.53.69.69,0,0,0-.22.81,1,1,0,0,1-.14,1,1.18,1.18,0,0,0-.21.63A1.78,1.78,0,0,1,213,194a18.29,18.29,0,0,0-2,3.41,2,2,0,0,1-.12.19A40.9,40.9,0,0,1,201,208.78a6.56,6.56,0,0,0-.55.55,1.67,1.67,0,0,0,1.37-.43c.17-.15.28-.4.48-.48a3.64,3.64,0,0,1,1-.2c.06,0,.14.15.2.22a2,2,0,0,1-.89.88c-.39.23-.81.42-1.2.64-.76.42-1.53.83-2.25,1.3a7.41,7.41,0,0,1-1.51.74c-.85.31-1.65.73-2.47,1.12-.11.05-.18.18-.41.41.33-.08.47-.1.61-.14.68-.24,1.35-.48,2-.74a6.8,6.8,0,0,1,2.88-.48c.14,0,.31,0,.36.22-.05.06-.1.17-.19.22-.6.32-1.2.65-1.82.92a2.61,2.61,0,0,1-1,.23,4,4,0,0,0-3,1.52,2.86,2.86,0,0,0-.27.5l.83.41a4.19,4.19,0,0,1-2.47.74,1.71,1.71,0,0,0-1,.11,4.62,4.62,0,0,0-1.74,2c.16.36.66.14.7.62a3.43,3.43,0,0,1-3.4.07,7.17,7.17,0,0,0-1.92,1.62,1.13,1.13,0,0,0-.22.51,5.76,5.76,0,0,0-.1.63,8.9,8.9,0,0,1-1,.38c-.35.09-.67.38-1.09.19l-.61-1.1c-.33,0-.63,0-.93,0a20.6,20.6,0,0,0-4.74,0,7.13,7.13,0,0,1-1.13,0,.29.29,0,0,0-.22.19.3.3,0,0,0,.15.25,6.86,6.86,0,0,0,3.24.25,1.32,1.32,0,0,1,1.26.28,5.36,5.36,0,0,0-.05.81,7.7,7.7,0,0,0,.2.93,8.12,8.12,0,0,1-2.13,0c-.08-.23-.15-.44-.24-.64s-.21-.39-.32-.6a8.53,8.53,0,0,0-1.93.29c-.73.17-.91.46-.89,1.22,0,.37.21.74-.09,1.15l-1.13.4a2.74,2.74,0,0,1-.32-.51c-.27-.83-.58-.89-1.38-.72a4.45,4.45,0,0,1-.55.13,1,1,0,0,0-.85.65c-.18.35-.27.78-.63,1a2.68,2.68,0,0,0-2.41-.34h-.11c-.19,0-.38,0-.47-.21a.39.39,0,0,1,.35-.48c.37-.06.74-.05,1.12-.08a4.17,4.17,0,0,0,1-.08,1,1,0,0,0,.73-1.33c-.48,0-1,0-1.45-.13a3.74,3.74,0,0,1-1.57-.34l.73-.86a5.4,5.4,0,0,0-1.83.28l-.34,1.43c-.92-.27-.62-1.26-1.14-1.72a6.42,6.42,0,0,0-2.88.35,9.34,9.34,0,0,0,1.57,18.23,31.75,31.75,0,0,0,5.32.11c.64,0,1.29-.09,1.93-.06a3,3,0,0,0,2.19-.53c.5.33.57.35.81.07.47-.54.93-1.09,1.37-1.66a2.38,2.38,0,0,1,1.57-1,3.1,3.1,0,0,0,1.6-.8c.34-.3.7-.58,1-.89s.49-.51.22-1.08a7.71,7.71,0,0,1-.51-2.2.68.68,0,0,1,1.12-.64,2.28,2.28,0,0,0,1.55.6,2.57,2.57,0,0,1,.48.12l-.31.86a1.15,1.15,0,0,0,1.09-.32,2.34,2.34,0,0,0,1.13-2.52,3.88,3.88,0,0,1,0-.86c1-.79,1-.81,1.8-.6.27.33-.16.74.11,1.06s.68,0,1-.09.52-.41,1-.36l-1.08,1.29c.15.06.22.12.28.11a3.29,3.29,0,0,0,2.67-2.34c.13-.39.24-.78.36-1.17a10.42,10.42,0,0,0,1.05-.12c.47-.1.85-.33.86-.9a1.62,1.62,0,0,1,.09-.35l1.21-.82a1.37,1.37,0,0,0,.65-1.75c0-.11-.16-.28.12-.35l.88.79a13,13,0,0,0,2.39-1.42,6,6,0,0,0,1.48-1.7,1.15,1.15,0,0,0,.17-.41.36.36,0,0,0-.11-.29.35.35,0,0,0-.3,0,.58.58,0,0,0-.25.22,6.73,6.73,0,0,1-2.36,1.91c-.31.19-.57.15-.76-.28.23-.26.46-.55.72-.81.47-.49.95-1,1.44-1.44a1.52,1.52,0,0,0,.55-1.5c.64-.36,1.08-1.07,1.92-.68.22.76-.5,1.06-.72,1.55.25.65.91.7,1.28,1.12.26-.13.47-.22.66-.34a7.48,7.48,0,0,0,.65-.45c.18-.14.34-.3.52-.44s.31-.4.71-.42c-.15.36-.25.64-.39.9s-.31.52-.46.78a.38.38,0,0,0,.09.54,3.7,3.7,0,0,0,2.43-1.65,3.58,3.58,0,0,0,.32-.8l-.72-.36a6.05,6.05,0,0,0,.27-2.82,3.6,3.6,0,0,1,.06-.9,1.76,1.76,0,0,1,.51-1,.4.4,0,0,1,.7.16c.06.25.09.5.14.8a4.34,4.34,0,0,0,.58-.21,3.57,3.57,0,0,0,.66-.43c.57-.5,1.13-1,1.67-1.53.73-.71,1.44-1.45,2.16-2.17.1-.1.21-.24.41,0a12.49,12.49,0,0,1-.84,1.56c-.09.17-.18.33,0,.51a1.34,1.34,0,0,0,.32-.1,7.33,7.33,0,0,0,2.9-3.4,1.94,1.94,0,0,0,.06-1.54,1,1,0,0,1,.45-1.36,1.43,1.43,0,0,0,.68-1.35,2.5,2.5,0,0,1,.82-1.93,3.08,3.08,0,0,0,1-1.91c1.48-1.09,1.67-1.2,2.42-1.3-.1.31-.19.58-.27.86s-.4.58-.08,1a13,13,0,0,0,2.37-1.26.81.81,0,0,0,.32-1.26,4.94,4.94,0,0,1-.77-2.8c0-.07-.06-.14-.09-.2-.26-.22-.54-.42-.78-.65s-.24-.47.05-.78a1.42,1.42,0,0,1,.29-.19,1.57,1.57,0,0,1,.3.15,2.67,2.67,0,0,1,1,1.84c.12.89.49,1,1.18.43a21.17,21.17,0,0,0,1.54-1.51,3.53,3.53,0,0,0,.86-1.58,6.33,6.33,0,0,1,.71-1.66,10.1,10.1,0,0,0,1.1-2.84,6.75,6.75,0,0,1,.93-2.52,2.38,2.38,0,0,0-2.14-1.94,1.86,1.86,0,0,1-.74-.26,3.31,3.31,0,0,1-.54-.49,5,5,0,0,1,1.18-1.74c.27-.26.53-.53.79-.81,0,0,0-.13,0-.19l-.56.26c-.39-.48-.19-1-.21-1.46-.56.09-.74.49-.94.91-.27.58-.58,1.15-.9,1.7-.1.16-.32.25-.64.48a5.33,5.33,0,0,1,.12-.7c.21-.61.45-1.2.67-1.81a2.22,2.22,0,0,0,.07-1.66,4.32,4.32,0,0,0-1.69-1.63c-.43-.32-.88-.15-1.31-.09a1.58,1.58,0,0,0-1.39,2.36c.06.18.16.35.21.53s.11.5.17.77c-.52.45-1,.86-1.49,1.29a2.76,2.76,0,0,0-.67.76c-.37.77-.67,1.58-1,2.44Zm19.2-71.64-2.6,1.09a.49.49,0,0,0-.19.12,1.88,1.88,0,0,1-1.39.64c-.35,0-.51.26-.54.62a1.26,1.26,0,0,0,0,.56,2.92,2.92,0,0,1-.3,2.5.82.82,0,0,0-.1.32,6.25,6.25,0,0,0,.06.63c.59,0,1.1-.35,1.69,0l.25,1c-.48,0-.84-.46-1.29,0,0,.12,0,.3-.07.48s-.1.42-.12.52c-.74.51-.78-.29-1.08-.43-.71,0-1.35-.09-2-.08a1.3,1.3,0,0,0-1.39,1.22,4.05,4.05,0,0,0,.06,1.34,3.1,3.1,0,0,1,.07,1.56c0,.09.1.22.19.37.56-.55.31-1.36.79-1.85.08.05.12.06.14.09s.1.28.16.42c.29.7.5.83,1.21.65a1.69,1.69,0,0,1,.94-.11c.42.22.23,1,1,.84.18-.73-.18-1.64.54-2.35.49.94.53,2,1,2.81-.61.46-1.35.44-1.94.83l-.13.73c-1.75-.53-1.81-.52-3.21.28a2.63,2.63,0,0,0,0,2.6,1,1,0,0,0,1.61.35,6.82,6.82,0,0,0,.65-.69,7.34,7.34,0,0,0,.63.84,9.3,9.3,0,0,0,.89.7l-1.5.4c.28.51.84.12,1.15.54a1.86,1.86,0,0,1-1.47.68,2.33,2.33,0,0,0-2,1.07.82.82,0,0,1-.73.45.78.78,0,0,0-.57.31,4.64,4.64,0,0,1-.65.44.92.92,0,0,0-.15.16c-.16.28.12.68-.27,1l-1.23-1.3a5.71,5.71,0,0,0-.38.73c-.19.57-.13.88.38,1.16a5.31,5.31,0,0,1,1.52,1.29c.88-.86,1-.9,2.15-.66a2.4,2.4,0,0,0,.44.11,4.69,4.69,0,0,0,1,0c.58-.12,1.15-.3,1.75-.46.21.76.53,1.39,1.46,1.28,0,0,.1.08.17.14a.43.43,0,0,1-.55.4,1.82,1.82,0,0,0-1.53.48,3.74,3.74,0,0,0-3.18.55l-.6.32a.77.77,0,0,1-.21,0,1.1,1.1,0,0,0-.85-.25,2.86,2.86,0,0,1,0,.54,1.44,1.44,0,0,1-1.15,1.24.4.4,0,0,1-.51-.32c0-.26-.06-.52-.09-.79a5.56,5.56,0,0,0-.13-.89c0-.14-.22-.24-.37-.39-.57.73-.43,1.67-1,2.4-.52-.74,0-1.73-.68-2.37-.76.24-.55,1.43-1.52,1.42-.16-.23-.32-.47-.5-.71a4.13,4.13,0,0,1-1-2.6,2.59,2.59,0,0,0-.28-1,.44.44,0,0,0-.33-.24c-.1,0-.25.19-.26.3a23.23,23.23,0,0,0,0,2.94l.72.21a5.49,5.49,0,0,0,.91,2.86,9.45,9.45,0,0,1,.5,1.14c.05.13.13.28,0,.42-.87.23-.81-.71-1.23-1-.42.11-.51.43-.56.78a2.66,2.66,0,0,0,.44,2c.31.08.43-.48.83-.21.19.88.4,1.8.57,2.72a1,1,0,0,1-.23,1,2.5,2.5,0,0,1-.71.27,1.22,1.22,0,0,0-.2.13,7.44,7.44,0,0,0-.62,2.5,1.18,1.18,0,0,0,.36,1.13c.77-.32.75-1.14,1.18-1.65a3.71,3.71,0,0,0,.63-.14c.19-.08.24-.4.53-.34,1,.65,1,.65,1.91,2.83l.5.19c.17,1,.27,1.11,1.14,1.16.1.47.17,1,.3,1.43a3.26,3.26,0,0,0,.44,1.15,3.45,3.45,0,0,1,.67,1.77,3.15,3.15,0,0,0,1.71,2.42,2,2,0,0,1,2.54-.11,1.49,1.49,0,0,0,.3.15,3.21,3.21,0,0,0,1.79,0,1.57,1.57,0,0,0,1-.87,2.21,2.21,0,0,1,.39-.4l1,1c.11-.09.2-.12.22-.18.21-.76.46-1.52.61-2.29a2.16,2.16,0,0,0-.52-1.69.56.56,0,0,0-.81-.14,10.75,10.75,0,0,0-.83.75,1,1,0,0,1-.28.13l-.26-.71c-.61-.22-1.2,0-1.75-.23a10.44,10.44,0,0,1,1.54-.3l1.8-.24a.68.68,0,0,0,.66-.65c0-.28.06-.59.4-.74a1.25,1.25,0,0,1,.17.31,3.53,3.53,0,0,1,.08.67c0,.76,0,1.51,0,2.27s0,1.29.06,1.93c0,.14.15.27.29.52l.23-1.1a3.42,3.42,0,0,0,2,.67,6.78,6.78,0,0,1,.76.19l.81.19.94-1.46a4,4,0,0,0,2.28.86c1-1.17.33-2.25,0-3.42l-1.66-.68c0,1.28,0,1.28-.54,1.81-.73-.73-1.75-.75-2.75-1a3.76,3.76,0,0,1,0-3.4c.81,0,.8.79,1.28,1.09l.53-.72c.21.39.38.72.57,1,.06.1.2.15.37.26,0-.45,0-.79,0-1.13a.45.45,0,0,1,.58-.45l.63,1.11c.73-.34.85-.47.81-1.09-.06-.79-.13-1.58-.24-2.37a4.76,4.76,0,0,0-.29-1c0-.09-.15-.15-.21-.21l-.69.17-.57-.94c-.18.1-.33.2-.49.28a11.48,11.48,0,0,1-1.23.56.93.93,0,0,1-1.12-.3c-.18-.22-.33-.52-.69-.52a5,5,0,0,1-3.14,1c.06-.1.1-.23.17-.27a.8.8,0,0,0,.42-.85,1.76,1.76,0,0,1,0-.45s.11-.07.17-.11l.59.49c.08-1.26-.32-2.39,0-3.78.2.47.3.69.38.93.2.57.35,1.16.58,1.72a.81.81,0,0,0,1.11.49,2.44,2.44,0,0,0,1.37-1,4.65,4.65,0,0,1,.43-.49l.72.83a.91.91,0,0,0,1.13.26c.21-.09.4-.22.61-.29a1.8,1.8,0,0,1,.75-.19,2.55,2.55,0,0,0,1.56-.39l.77.52a4.84,4.84,0,0,0-1.58-3.65,9.91,9.91,0,0,1-1,.36.51.51,0,0,1-.62-.37c-.1-.32-.17-.66-.26-1l-1.23-.56c0-.54.08-1,.13-1.43,0-.23.11-.44.46-.4l.38,1.15a.61.61,0,0,0,.51-.45,3.34,3.34,0,0,1,.37-.81.4.4,0,0,1,.67,0c.14.21.26.43.38.65.63-.32.68-.37.56-.83-.21-.77-.43-1.53-.67-2.28a6.3,6.3,0,0,1-.32-2.46.61.61,0,0,0-.07-.21l-.9-.54a8.18,8.18,0,0,1,.18-.89,17.35,17.35,0,0,1,.63-1.82,5,5,0,0,0,.17-3.11,2.33,2.33,0,0,0-.19-.4,3.24,3.24,0,0,0-.31.52c-.14.47-.24,1-.39,1.42s-.48.62-.92.24c-.22-.19-.42-.4-.63-.6l-.67.47a.83.83,0,0,1-.06-1c.6-1,.88-2.27,2.14-2.76a4.46,4.46,0,0,1,.55-2.22,1.23,1.23,0,0,0,.13-.88c-.06-.33-.1-.66-.17-1.06a2.82,2.82,0,0,1-2.68-.29,3.74,3.74,0,0,1,.22-1.71c.71-.19.75-.17,1-.6A2.48,2.48,0,0,1,241,122a2.89,2.89,0,0,0-.39-3c-.78,0-1.37.61-2.12.44a2.26,2.26,0,0,1,0-2.38,2.38,2.38,0,0,1,.31.25c.1.12.16.26.25.37.36.42.77.35.94-.15.08-.25.12-.51.19-.77a1.08,1.08,0,0,1,.1-.2l.55-.18c.24-.94.49-1.89.72-2.84a2.52,2.52,0,0,0,.08-.67,1.19,1.19,0,0,0-.85-1.18c-.33.28.08.83-.45,1l-.76-.35c-.35.86-.47,1-1.29,1.34-.53.21-1.08.35-1.61.53-1,.3-1.13.59-1,1.59a2.17,2.17,0,0,0,0,.22,9.91,9.91,0,0,1,.06,3.38,2.82,2.82,0,0,1-.24.62,4.88,4.88,0,0,1-.34-1.8c0-.6,0-1.21-.07-1.81A4.17,4.17,0,0,0,234.88,114.62Zm15.41-38a.7.7,0,0,1-.15-.79c.07-.18.2-.33.25-.51a4.78,4.78,0,0,0,.18-1,1,1,0,0,0-.23-.89,3.76,3.76,0,0,0-.52.38c-.42.44-.8.91-1.23,1.33-1.26,1.23-1.26,1.22-1,2.88-.81.88-1.49,2-2.92,2.17.09.17.14.26.2.34.58.89.48,1.32-.43,1.77a2.5,2.5,0,0,0-1.55,2.42,1.09,1.09,0,0,1-.19.73c-.33.31-.33.72-.45,1.1a18.17,18.17,0,0,0-4.63,1.24c-1,.36-2,.67-3,1a4,4,0,0,1-.89.11c-.16,0-.28-.07-.27-.31a3.21,3.21,0,0,1,1-.38,9.22,9.22,0,0,0,1.29-.41,1.85,1.85,0,0,0,.92-2.64c-.07-.13-.17-.25-.23-.39-.29-.57-.2-.85.37-1.22.16-.1.33-.18.49-.28a.79.79,0,0,0,.15-.18l0-.75,1.39-1.31a.76.76,0,0,1,1-.14l-.46.89c1.2-.42,1.38-1.09.7-2.56-.27,0-.57-.05-.87-.06h-1.47c-.19,0-.43,0-.44-.25s.14-.32.25-.45a4.64,4.64,0,0,1,.51-.44,6.33,6.33,0,0,0-.61.16,1.14,1.14,0,0,1-1,0,1.56,1.56,0,0,0-1.31,0c-1,.31-1.95.6-2.93.89a2.52,2.52,0,0,1-.88.16.94.94,0,0,0-.94.5A3.08,3.08,0,0,1,228.69,81a3.08,3.08,0,0,0-1.94,1.44,2.32,2.32,0,0,1-1.41,1.08l-.52-.65-.77.62c-.5-.51-.74-.54-1-.07a2.17,2.17,0,0,1-.93,1,2.26,2.26,0,0,0-.67.59,42.57,42.57,0,0,0-4.29,6.8,4.58,4.58,0,0,0-.19.59c.71.09,1.35,0,2,.12s1.29-.13,1.88.28l.15,1.15,1.17.07c.38,0,.76,0,1.13,0a1.89,1.89,0,0,1,.5.19,4.94,4.94,0,0,1-.59,1.4c-.21.51-.06.83.49.89.83.09,1.66.1,2.49.18a1.88,1.88,0,0,0,1.45-.47A22.21,22.21,0,0,1,233.07,93c1-.41,1-.41,1.89.15.14-.07.31-.15.47-.25s.29-.24.45-.35a.83.83,0,0,1,.86-.1l.47.2c2.09-1.26,3.06-1.42,4-.62l-.64.93c.23.11.42.29.56.26a7.37,7.37,0,0,0,2-.4c.22-.12.42-.33.75-.27a4.49,4.49,0,0,1,.76,1.31l1.29-1c-.28-.55-.31-.63-.58-.78a5.41,5.41,0,0,0-2.85-.69c0-.4,0-.73,0-1.06a.86.86,0,0,1,1-.83,4.53,4.53,0,0,1,1.32.3,4.11,4.11,0,0,1,.88.77c.41,0,.86,0,1.31,0s.75.5,1.32.38c-.13-.42-.25-.77-.34-1.12-.14-.53,0-.79.47-1,.74-.28,1.5-.53,2.26-.75s.85-.07,1.16.57c.13.26.21.55.31.8a3.19,3.19,0,0,1-1.24,1.21,9.22,9.22,0,0,0-1-.3c-.48-.09-.74.08-1.06.65l1.7.32.26.88c-1.3.46-2.62.17-4,.44.61.62,1.56.25,2,1-.38,1.32-1.52,1.18-2.53,1.23l-.83.79c.08.45.62.56.73,1.06l-3.4.9a2.39,2.39,0,0,0-1.55-.92l-.37-.68c-.75-.15-1.4.23-2.15.06.28-.72,1.11-.74,1.42-1.34-.35-.26-.68-.48-1.09-.11a1.22,1.22,0,0,1-1.06.27,2,2,0,0,0-1.21.17,1.64,1.64,0,0,1-.44.12.5.5,0,0,1-.64-.45c0-.21,0-.43-.07-.66a1.11,1.11,0,0,0-1,.05,5.54,5.54,0,0,1-1,.51,22.12,22.12,0,0,0-4.75,2.85,5.74,5.74,0,0,0-.49.47c.18.52.35.94.46,1.37a1.27,1.27,0,0,0,.69,1,.8.8,0,0,0,.34-1.08c-.11-.27-.2-.55-.31-.85a1.85,1.85,0,0,1,.4-.07,10.54,10.54,0,0,1,3.54.71,11.26,11.26,0,0,0,2.82.83,5.21,5.21,0,0,1,1.4.41,5.51,5.51,0,0,0,2.53.52c.72,0,1.43-.1,2.14-.17a1.2,1.2,0,0,1,1.34.79l-.31.36c-.6.73-1.21,1.45-1.8,2.19a1.9,1.9,0,0,0-.48,1.36.9.9,0,0,0,.16.52,2.55,2.55,0,0,0,1.25.89,5,5,0,0,1,1-2.64,12.9,12.9,0,0,1,1.5-2.57,3.66,3.66,0,0,1,.9.47c.53.52,1,1.09,1.52,1.66a1.6,1.6,0,0,0-.32-1.16,1.88,1.88,0,0,1-.06-1.84s0-.14,0-.22c-.39-.1-.79-.18-1.19-.3a.33.33,0,0,1-.13-.55,1.46,1.46,0,0,1,2.34.06c.24.33.41.72.63,1.07a2,2,0,0,0,.37.41.21.21,0,0,0,.2,0,.24.24,0,0,0,.08-.19.82.82,0,0,0-.13-.31c-.58-.86-.89-1.21-.06-2.21.11-.13.05-.39.08-.69a2,2,0,0,0-.37.25c-.1.11-.15.26-.24.38a.55.55,0,0,1-.71.12c-.18-.09-.22-.32-.08-.59a10.25,10.25,0,0,1,2.16-2.76c.56-.51,1.11-1,1.67-1.53a5.7,5.7,0,0,0,1-1.21c.53-.83,1.08-1.64,1.67-2.43a17.47,17.47,0,0,1,1.25-1.44.72.72,0,0,1,.4-.17,5.51,5.51,0,0,1,.65,0c.3-.45.6-.85.84-1.27A.6.6,0,0,0,257,86a2.65,2.65,0,0,0-.79,0,6.66,6.66,0,0,0-1,.23,2.58,2.58,0,0,1-2.17-.31,2.09,2.09,0,0,0-.5-.27,3.73,3.73,0,0,0-.66-.07c-.05-.34-.11-.64-.14-.93a1.72,1.72,0,0,1,0-.45.82.82,0,0,1,1.18-.65,5,5,0,0,1,.83.59c.44.35.87.7,1.29,1,1.08-.6,1.16-1.11.32-1.79a1.15,1.15,0,0,0-.19-.13,6.74,6.74,0,0,1-1.74-1.43,2.84,2.84,0,0,0-.48-.33c-.24.25-.46.45-.65.69a8.53,8.53,0,0,1-.51.75,3.74,3.74,0,0,1-.68.46,7.67,7.67,0,0,1-.15,1.29c-.19.65-.46,1.27-.71,1.94a7.82,7.82,0,0,1-3.67.08,4.39,4.39,0,0,0-1-.06h-.95c-.27-.48-.54-.93-.79-1.39a.21.21,0,0,1,.05-.2.5.5,0,0,1,.3,0c.29.08.27.53.69.6l.1-2.14a2.11,2.11,0,0,0,.63.09c1.33-.29,2.65-.59,4-.9a1.34,1.34,0,0,0,.21-.08.89.89,0,0,0,.59-.88,2.93,2.93,0,0,0-.61-2,5.18,5.18,0,0,1-.34-.53l1.13.13a1.66,1.66,0,0,0,1.74-.83l-.55-.46a.49.49,0,0,1-.15-.61c.07-.17.18-.33.25-.51s0-.14,0-.25l-.58-.4ZM195.15,267.89c.42-.14.71-.22,1-.33a1,1,0,0,0,.67-1.51,3.4,3.4,0,0,1-.16-2,2.25,2.25,0,0,0,0-.45.31.31,0,0,0-.48-.27,1.84,1.84,0,0,0-1,1.42c-.08.48-.14,1-.2,1.43a12.42,12.42,0,0,0-1.69,1,14,14,0,0,0-1.37,1.53,4.35,4.35,0,0,1-.95-1c-.42-.48-.82-1-1.26-1.46a1,1,0,0,0-1.42-.12,5.62,5.62,0,0,0-.72.85l-.38.43c-.32-.32-.59-.56-.59-1a2.8,2.8,0,0,1,.43-.33,1.24,1.24,0,0,0,.68-1.31c0-.87,0-1.74-.05-2.61a5.38,5.38,0,0,0-.1-.66.92.92,0,0,0-1.08.5,6.7,6.7,0,0,0-.41,1.16c-.13.43-.08.9-.22,1.17a17.4,17.4,0,0,0-1.7,1,14.8,14.8,0,0,0-1.33,1.21,3.82,3.82,0,0,1-1.52-1.46,7,7,0,0,0-.5-.76.54.54,0,0,0-.81,0,6.72,6.72,0,0,0-.55,1c-.14.29-.25.6-.38.94a3.82,3.82,0,0,1-1.2-2.29c.33-.42.88-.09,1.36-.41a4.27,4.27,0,0,0-.19-3.8,1,1,0,0,0-.91.82c-.12.51-.16,1-.24,1.56,0,.25-.07.5-.11.8a8.86,8.86,0,0,0-1.05.07,1.26,1.26,0,0,0-.85,2c.39.56.86,1.06,1.23,1.63a6.48,6.48,0,0,0,2.69,2.18,9.25,9.25,0,0,0,2.69.84c.14,0,.31,0,.38.24l-.36.4a7.05,7.05,0,0,0,1.59,1.05.45.45,0,0,0,.67-.36,6.66,6.66,0,0,0,0-.82,2.68,2.68,0,0,1,.5,0c.91.21,1.81.4,2.74.53,2.39.33,4.76.83,7.14,1.25.56.1,1.12.16,1.68.23a.84.84,0,0,0,.3-.07c.17-.26-.09-.65.37-.81a3.62,3.62,0,0,1,.38.52,1.5,1.5,0,0,0,1.28.8c4.38.59,8.75,1.26,13.15,1.77,4.21.48,8.43.77,12.65,1.19,2.14.21,4.29.45,6.41.79,4.59.74,9.14,1.7,13.76,2.24,2.78.32,5.56.64,8.35.79a43.81,43.81,0,0,0,10.5-.67c1-.18,1.93-.36,2.89-.59.71-.17.83-.53.41-1.13a4.78,4.78,0,0,0-.37-.43c-.43-.48-.86-1-1.28-1.44a10,10,0,0,0-2.36-1.93,1.06,1.06,0,0,0-1.36.13,2.58,2.58,0,0,0-.31.33,1.58,1.58,0,0,1-1.06.58c-.62.09-.71.22-.7.8s.09,1.36.1,2a6.64,6.64,0,0,1-.09,1.23c0,.22-.24.25-.52.08v-1.76a3.62,3.62,0,0,0-1.39-1c-.95-.49-.95-.49-.68-1.58a.89.89,0,0,0,0-.27,3.43,3.43,0,0,1-1.71-1,.77.77,0,0,0-.85-.16c-.54.17-1.07.37-1.61.53a.91.91,0,0,0-.71.9c0,.57-.09,1.13-.18,1.69a1,1,0,0,1-1.09.93.88.88,0,0,1-.86-.43.77.77,0,0,1,.12-.85c.22-.34.47-.67.68-1a1.2,1.2,0,0,0-.91-.87,2.64,2.64,0,0,1-1.57-1.22.82.82,0,0,0-1.16-.38c-.66.28-1.3.6-1.94.93a1,1,0,0,0-.53,1c0,.22.09.44.13.67.08.44.15.88.23,1.3-.6.26-.73.23-.86-.14-.07-.21-.13-.44-.18-.66a2.79,2.79,0,0,0-1.71-2c-.76-.33-1.52-.67-2.27-1a2,2,0,0,0-2.69,1.1c-.08.2-.17.4-.28.66a2.1,2.1,0,0,1-.52-.32,6.11,6.11,0,0,0-1.76-1.58,1.89,1.89,0,0,1-.5-.59c-.13-.17-.22-.37-.34-.58-.77.28-1.47.56-2.18.8a1.4,1.4,0,0,0-1,1.44c0,.21,0,.43-.09.75-.25-.12-.45-.16-.55-.28-.23-.3-.4-.64-.62-.95a7.38,7.38,0,0,0-.83-1.07c-.48-.47-1-.87-1.56-1.32-.52.2-1.05.39-1.57.6a2.24,2.24,0,0,0-1.36,1.43c-.06.18,0,.46-.37.53l-.64-.75a5.51,5.51,0,0,0-2.61-1.73,1.51,1.51,0,0,0-1.81.54c-.18.24-.29.53-.45.78s-.07.46-.35.52a6.17,6.17,0,0,1-1.94-2.28c.43-.43.83.26,1.33,0a3,3,0,0,0,.34-1.44,3.73,3.73,0,0,1,.91-2.27,1.66,1.66,0,0,0,.2-.34c-.19-.35-.43-.39-.69-.23q-.81.51-1.6,1.07a1.38,1.38,0,0,0-.63,1.15c0,.3,0,.6,0,.93l-2.22,1.16a1.93,1.93,0,0,0-1.18,1.55,3.29,3.29,0,0,1-.19.58,9.17,9.17,0,0,1-2.13-1.94.84.84,0,0,1-.1-.2.43.43,0,0,1,.43-.61c.3,0,.6.09.89.12a.62.62,0,0,0,.76-.51,2.42,2.42,0,0,0,0-1.67,1.07,1.07,0,0,1,.4-1.47,4.91,4.91,0,0,0,.48-.49,1,1,0,0,0-1.14.07c-.45.35-.88.71-1.3,1.1a1.18,1.18,0,0,0-.39,1.23,2.43,2.43,0,0,1,0,.61,10,10,0,0,0-2,1,9.42,9.42,0,0,0-1.3,1.69,2.76,2.76,0,0,1-1.31-2c.19-.41.61-.53,1-.76a3.26,3.26,0,0,0,.43-.42c-.35-.48-.91-.71-1-1.35a8,8,0,0,0,.63-.6,2.63,2.63,0,0,0,.42-.66.51.51,0,0,0-.09-.4.36.36,0,0,0-.3-.09,2.44,2.44,0,0,0-1.82,1.94c0,.29,0,.59-.07.9-.66.38-1.28.73-1.89,1.1a2,2,0,0,0-1.08,1.63,1.52,1.52,0,0,1-.15.36,4.5,4.5,0,0,1-1.11-1.76l.78-.69c.26-.22.7,0,.94-.41-.21-.55-.43-1.14-.68-1.73a1.26,1.26,0,0,1,0-1.29.69.69,0,0,0,.13-.31.41.41,0,0,0-.1-.3.36.36,0,0,0-.3-.08,2.2,2.2,0,0,0-1.52,1.81c-.07.37-.12.74-.16,1-.71.45-1.35.79-1.9,1.22s-.6,1.36-1,2A4.23,4.23,0,0,1,195.15,267.89ZM278.76,223a1.7,1.7,0,0,0-2,.9,1.24,1.24,0,0,1-.86.5,9,9,0,0,0-1.19.35,2.46,2.46,0,0,0-1.76,2.27.91.91,0,0,1-.36.82c-.48-.26-1-.5-.89-1.16a2.57,2.57,0,0,1,.49-1.45,4.22,4.22,0,0,0,3.45-2.35c-.37-.17-.73-.37-1.11-.52a2.17,2.17,0,0,0-2.75.64c-.23.25-.43.53-.67.77a1.14,1.14,0,0,1-1.27.35c.09-.16.15-.29.22-.41s.19-.24.26-.37a.83.83,0,0,0-.39-1.3,2,2,0,0,0-.54-.16,2.62,2.62,0,0,0-2.31.68,9.27,9.27,0,0,1-.76.68.73.73,0,0,1-1,0c0-.33,0-.71,0-1.08s-.38-.69-.79-.85a.82.82,0,0,0-1,.2,7.29,7.29,0,0,1-2.78,1.69c-.1,0-.26,0-.42,0a8.23,8.23,0,0,0,.23-.83.78.78,0,0,0-.56-1,2.31,2.31,0,0,0-2.35.34c-.85.62-.91,1.16-.28,2,.13.18.29.35.44.52.46.51.9,1,1.38,1.51a5.19,5.19,0,0,1,1.28,2,3.62,3.62,0,0,0,1.12,1.69l1-.36a.94.94,0,0,1,1.12.32,2.51,2.51,0,0,1,.56,2.1s-.06,0-.13.08c-.4-.3-.81-.62-1.23-.92a.37.37,0,0,0-.55.07,3.68,3.68,0,0,0,0,.5,9,9,0,0,0,.24,1c.22.7.45.86,1.17.7a5.26,5.26,0,0,1,2.25,0,6.85,6.85,0,0,0,3,.17,2.4,2.4,0,0,1,1.71.4,1.34,1.34,0,0,1-.87.13c-1.89,0-3.78,0-5.67,0-.94,0-1.26.29-1.36,1.17-.2,1.65-.35,3.31-.5,5a2.1,2.1,0,0,0,.13.61,3.64,3.64,0,0,0,2.06-.19l5.66-1.65a2.41,2.41,0,0,1,1.45-.1,2.25,2.25,0,0,0,1.75-.21c.44-.22.87-.45,1.32-.66.85-.4,1.7-.82,2.57-1.19s1.49-.55,2.23-.83a5.33,5.33,0,0,0,.91-.45c.13-.08.19-.27.34-.5l-1.57-.14-1.36-.09c-.49,0-1-.07-1.47-.13a9.37,9.37,0,0,1-1.34-.23c-.45-.12-1,0-1.46-.53a8.08,8.08,0,0,1,2.14.07,2.87,2.87,0,0,0,1.86-.28,3.07,3.07,0,0,1,2.32-.17,6,6,0,0,1,.85.31,3.84,3.84,0,0,0,3.39-.07,15.78,15.78,0,0,1,1.81-.65,2.45,2.45,0,0,0,1.34-.79.71.71,0,0,1,.8-.29,2.59,2.59,0,0,0,1.76-.24c1.83-.72,3.65-1.45,5.49-2.14a7.86,7.86,0,0,0,2.68-1.65,9,9,0,0,1,2.37-1.72,2.3,2.3,0,0,0,1-1.3c0-.1,0-.26-.08-.41a9.81,9.81,0,0,1-1.11.35c-.47.09-.68-.42-1-.55a2.79,2.79,0,0,0-2.07,1.83,3.35,3.35,0,0,1-.42.63c-.29-.07-.5-.14-.72-.18a2,2,0,0,0-1.93.7c-.17.2-.3.43-.47.64s-.29.32-.44.48c-.73-.64-.75-.8-.28-1.41.28-.35.51-.74.78-1.1a6.16,6.16,0,0,1,.45-.48l.58.18a1.17,1.17,0,0,0,1.07-.2.77.77,0,0,0,.38-.77c-.06-.3-.34-.38-.59-.47a1.33,1.33,0,0,0-.33-.07,1.87,1.87,0,0,1-1-.37.67.67,0,0,0-.93.06,13.37,13.37,0,0,0-1,.95,4.9,4.9,0,0,1-2.12,1.45,3.22,3.22,0,0,0-2,2.13,4.94,4.94,0,0,1-.21.64,1.72,1.72,0,0,1-.36.36,3.1,3.1,0,0,1-.62-1.74.81.81,0,0,1,.45-.84,8.71,8.71,0,0,0,.8-.41.72.72,0,0,0,.3-1c-.1-.24-.26-.46-.35-.71a7.33,7.33,0,0,1-.21-.75,1.74,1.74,0,0,0-.93,1,4.33,4.33,0,0,1-.57,1.28c-.5-.36-1-.69-1.59-.44a3.52,3.52,0,0,0-1.39.73c-.42.45-.28,1.07-.45,1.61a1.64,1.64,0,0,1-1.68-.48c0-.55.5-.74.83-1s.76-.62,1.08-.88l.13-1.29.69-.29a.81.81,0,0,0,.54-.54.79.79,0,0,0-.3-.87,4.15,4.15,0,0,0-1.84.16,1.92,1.92,0,0,1-.82,1.78,3.19,3.19,0,0,1-2,.68c0-.1,0-.15,0-.17l.82-.77c.44-.41.46-.73,0-1.15a5.77,5.77,0,0,0-.82-.59c-.05,0-.14,0-.35,0Zm-40.89-38.35c.55-.15.34-.92.82-1.22l.37.75a2.37,2.37,0,0,1,1.46,1c.14-.15.35-.29.4-.46a6.74,6.74,0,0,0,.16-1,6.4,6.4,0,0,1,.12-.67c0-.19,0-.44.33-.57l.24,1.43a2.66,2.66,0,0,0,.75-1.16,1.28,1.28,0,0,0-.44-1.53l-.87.74c-.25-.32-.44-.6-.66-.85a.47.47,0,0,0-.71,0c-.27.24-.51.51-.79.8a4.87,4.87,0,0,1-.74-1.23c.29-.39.91-.73.26-1.36-1.46.21-3,.27-4.49.53,0,.11,0,.17,0,.18a2.11,2.11,0,0,0,.52.14c.53,0,1.06,0,1.58,0a1.27,1.27,0,0,1,1.12.53c-.07.19-.08.47-.23.58a2.77,2.77,0,0,1-.8.26l-.18.75c-.31-.24-.56-.45-.84-.64a1.16,1.16,0,0,0-1.64.12,2.4,2.4,0,0,0-.78,1.35c-.1.56-.17,1.12-.24,1.68,0,.17-.08.38.21.5l1.38-.67c.17.14.31.26.46.36.41.28.66.26,1-.12s.33-.51.5-.75a.55.55,0,0,1,.87-.15C237.34,184.18,237.58,184.42,237.87,184.69Zm44.28,94.77c0-.29,0-.63,0-1,0-.68,0-1.36,0-2a2.55,2.55,0,0,0-.24-.86,1.17,1.17,0,0,0-1.35-.77,4.54,4.54,0,0,1-2.34-.18.74.74,0,0,0-.53.07,2.4,2.4,0,0,0-1,.91,1.27,1.27,0,0,0-.06,1.38,5.55,5.55,0,0,1,.27.64l-1.68.43a2.3,2.3,0,0,0,.19,1.41C277.51,280.28,280.64,280.26,282.15,279.46Zm.86-1.58a2.57,2.57,0,0,0,.87,1.49,1.94,1.94,0,0,0,1.74.61c.67-.09,1.35-.12,2-.19a8.79,8.79,0,0,0,1-.16c.83-.19,1-.49,1-1.35,0-.56,0-1.13,0-1.69a1.3,1.3,0,0,0-.38-1,2.87,2.87,0,0,0-2.88-.89,12.92,12.92,0,0,0-1.48.56,6.22,6.22,0,0,1-.62,1.56A7,7,0,0,1,283,277.88Zm-8.78-.53a7.4,7.4,0,0,0-.12-.94,2.26,2.26,0,0,0-2-1.83,4.18,4.18,0,0,1-.88-.17,1.22,1.22,0,0,0-.87,0c-.41.15-.41-.38-.7-.42a1.38,1.38,0,0,0-.34,0,2,2,0,0,0-1.28.55l.23,2.89A28.71,28.71,0,0,0,274.23,277.35ZM222,177.16a3,3,0,0,0,1-2.76,5.72,5.72,0,0,0-.85-2.44,2.63,2.63,0,0,1-.47-1.6c0-.26,0-.53,0-.79a3.29,3.29,0,0,0-1.2-2.58,1.86,1.86,0,0,0-.42-.18c0,.39,0,.69,0,1a2.91,2.91,0,0,1-.54,2.25,1.21,1.21,0,0,0-.28,1.18c.52-.32.41-1.08,1-1.33.91.89,1,1.35.41,2.37-.09.16-.21.32-.3.48a1.18,1.18,0,0,0,0,1.28,8.18,8.18,0,0,1,.48,1.26c.11.32.18.66.29,1A1.35,1.35,0,0,0,222,177.16Zm28,43.24a4.76,4.76,0,0,1-2.47,1,1.45,1.45,0,0,0-1.38,1.12c0,.07-.09.12-.14.17-.38.15-.78.27-1.15.45s-.58.44-.63,1.06a4.18,4.18,0,0,0,.54-.14c.94-.39,1.88-.77,2.81-1.18a11.84,11.84,0,0,0,2.67-1.68l.52-.43a1.45,1.45,0,0,1,1.77-.21c.43.23.88.42,1.33.61s.76.31,1.17.47c0-.15.13-.29.1-.34a.77.77,0,0,0-.34-.27l-4.25-1.53a1.19,1.19,0,0,0-.44-.06.68.68,0,0,0-.69.6Zm44.74,54-.59.87c.1.23.17.4.25.57a2.88,2.88,0,0,1,.15,1.66c-.08.6-.42.81-1,.69a2.31,2.31,0,0,0-.32-.1,10.83,10.83,0,0,0-1.23,0,.35.35,0,0,0-.3.41.37.37,0,0,0,.33.39,1.84,1.84,0,0,0,.67,0,4.42,4.42,0,0,1,2.45,0,3.37,3.37,0,0,0,.56.06,1.11,1.11,0,0,0,1.13-.59,4.25,4.25,0,0,0,.24-.55c-.27-.87-1.05-1.5-.65-2.45A2.4,2.4,0,0,1,294.76,274.39ZM238.63,176c.43-.35.57-.68.41-1.08a1.83,1.83,0,0,0-1.59-1,4.43,4.43,0,0,1-2.21-.31c-.06,0-.14,0-.21,0a1.31,1.31,0,0,0-.34,1.53c.14.42.23.85.37,1.35l1-.42.27.21c.6.49,1,.37,1.2-.37.07-.24,0-.55.44-.62ZM244.52,268l-1.13.48a5.43,5.43,0,0,0-.51.24,1,1,0,0,0-.45,1.6,7,7,0,0,0,1,1.23.79.79,0,0,0,1.12.13,2.4,2.4,0,0,0,1.21-1.91ZM215,96.53c.34-.15.48-.17.51-.23a6.94,6.94,0,0,0,.27-.74,1.34,1.34,0,0,1,.73-.83,4.22,4.22,0,0,1,2.44-.31.53.53,0,0,1,.39.6c0,.32-.3.6-.24,1a1.76,1.76,0,0,0,1.46.09c.35-.08.76-.06,1-.51a4.76,4.76,0,0,0-2.5-2.18,3.33,3.33,0,0,0-1.9-.15,1.39,1.39,0,0,0-1.12.85C215.77,94.81,215.46,95.54,215,96.53Zm16.49,170.31a4.59,4.59,0,0,0-2.68,1.22,1,1,0,0,0-.26,1.05,3,3,0,0,0,1.37,1.73.94.94,0,0,0,1.07,0,.67.67,0,0,0,.14-.83,3,3,0,0,1,.23-2.51A2.57,2.57,0,0,0,231.54,266.84Zm-14.46-10.21,1.25-1c.15-.12.32-.21.45-.33.36-.32.32-.7-.1-.89a10.86,10.86,0,0,0-1.06-.39.91.91,0,0,0-1.09.35c-.2.25-.31.6-.62.7-.52-.12-.76-.71-1.39-.6a4.3,4.3,0,0,0,.61,2.16Zm-2.15,9.63c.81-1,.57-2,.52-3,.43-.45,1.09-.3,1.43-.76a1.73,1.73,0,0,0-1.16-.59,1.79,1.79,0,0,0-2.15,1.51,2.23,2.23,0,0,0,1,2.65Zm19.39-17.65a3.1,3.1,0,0,0,.72.32c.82.08,1.64.16,2.47.16s1.64-.1,2.46-.17a.39.39,0,0,0,.37-.36.7.7,0,0,0-.6-.91c-.37-.07-.76,0-1.11-.15A4.82,4.82,0,0,0,234.32,248.61Zm3.86,18.73a14.1,14.1,0,0,0-2.34,1.06,1,1,0,0,0-.61,1.1,1.25,1.25,0,0,0,.89,1.19,1.87,1.87,0,0,0,1.93-.37,2.73,2.73,0,0,1,.13-1.88A1.13,1.13,0,0,0,238.18,267.34Zm5.15-129.24a7.48,7.48,0,0,1,.06,1.51,9.22,9.22,0,0,0,.43,3.33.5.5,0,0,0,.45.43.53.53,0,0,0,.59-.42,4.35,4.35,0,0,1,.71-1.27c.13-.21.23-.44.34-.67a3.28,3.28,0,0,0-.41-.32,2.45,2.45,0,0,1-1.48-2C244,138.42,243.8,138.16,243.32,138.1ZM224.16,266.58a8.35,8.35,0,0,0-1.13.48,1.8,1.8,0,0,0-.32,2.83,1.36,1.36,0,0,0,1.24.39.56.56,0,0,0,.51-.52A9.51,9.51,0,0,0,224.16,266.58Zm-40.89-6.08a1.69,1.69,0,0,0-1.4,1.45c-.11.47-.12,1-.19,1.45a2.29,2.29,0,0,0,1.12,2.14,1.51,1.51,0,0,0,.54-1.14A13.45,13.45,0,0,0,183.28,260.5Zm46.23-82.29a1.21,1.21,0,0,0,1.13-.45,1.33,1.33,0,0,0,.16-1.08,3.13,3.13,0,0,0-1.3-2.16,3.23,3.23,0,0,0-.67-.26,3.86,3.86,0,0,0-.28,1,2.15,2.15,0,0,0,.33.76l-.51.62A9,9,0,0,0,229.5,178.22Zm27.11-93.75a.72.72,0,0,0,.87.34,2.7,2.7,0,0,0,1.15-.66,4.45,4.45,0,0,1,3.46-1.34c.06,0,.14-.05.26-.11a5,5,0,0,0,.29-.66.46.46,0,0,0-.38-.58,2.37,2.37,0,0,0-1.72.32c-1.16.82-2.37,1.58-3.56,2.37A4.62,4.62,0,0,0,256.61,84.47ZM259.69,269a6,6,0,0,0-1.74.78c-1.24.69-1.19,1.33-.09,2.19a2.37,2.37,0,0,0,.59.24,4,4,0,0,0,1.38-1.36A1.44,1.44,0,0,0,259.69,269Zm-11.92-4a2.22,2.22,0,0,0-1.19.4,1,1,0,0,0-.47,1,1.91,1.91,0,0,0,.74,1.36.82.82,0,0,0,.63.14,1.9,1.9,0,0,0,1.28-1Zm15.77,3.26c-.07-.42-.15-.95-.23-1.47a2.78,2.78,0,0,0-.09-.44.6.6,0,0,0-.82-.37,2,2,0,0,0-1,1,.71.71,0,0,0-.07.44,2.35,2.35,0,0,0,1.47,1.74.53.53,0,0,0,.74-.46C263.52,268.63,263.52,268.51,263.54,268.3ZM219.64,260a3.47,3.47,0,0,0-1.43-.91,1,1,0,0,0-.54,0,1.57,1.57,0,0,0-.79,2.54c.38.41.8.79,1.22,1.17.07.06.2,0,.35.06a3.37,3.37,0,0,0,.11-1.57,5.72,5.72,0,0,1-.6.05.46.46,0,0,1-.49-.38.5.5,0,0,1,.24-.58,3.6,3.6,0,0,1,.85-.27C218.83,260.08,219.12,260.07,219.64,260Zm159.5-13.26c-.67,1.3-1.25,2.4-1.8,3.51a1.42,1.42,0,0,0-.11.65.46.46,0,0,0,.21.35.45.45,0,0,0,.4-.08,3.85,3.85,0,0,0,.48-.61,7.49,7.49,0,0,1,.69-1,4.21,4.21,0,0,0,1.06-3,8.34,8.34,0,0,0-.57.94s-.1,0-.15.05ZM227,264.28l.63-.55a3.43,3.43,0,0,0,.42-.36.32.32,0,0,0,0-.3.85.85,0,0,0-.35-.22c-.06,0-.15,0-.21.05a3.13,3.13,0,0,0-1.59,1.82,1.31,1.31,0,0,0,0,.77,2.3,2.3,0,0,0,1.15,1.46.61.61,0,0,0,.51,0,.58.58,0,0,0,.21-.47,5,5,0,0,0-.29-1C227.36,265.16,227.19,264.78,227,264.28Zm14.28,2.52a3.31,3.31,0,0,0-.56-1.93.5.5,0,0,0-.78-.14,1.77,1.77,0,0,0,0,2.84c.3.23.62.48,1,.26s.3-.58.31-.91C241.27,266.88,241.27,266.84,241.27,266.8Zm-7-3a2,2,0,0,0-1.49.62,1.5,1.5,0,0,0-.38.93,1.89,1.89,0,0,0,1.28,2.11,1.49,1.49,0,0,0,.66-1.13,1.09,1.09,0,0,0-.39-.91.73.73,0,0,1,0-1C234,264.25,234.12,264.08,234.28,263.8Zm-42.87,2.71a1.49,1.49,0,0,0,.52-1.59,3.7,3.7,0,0,1,0-1.89,1.07,1.07,0,0,0,0-.36,1.71,1.71,0,0,0-1.54,1.68,12.22,12.22,0,0,1-.27,1.36A2.31,2.31,0,0,0,191.42,266.51ZM298.05,234a2.05,2.05,0,0,0,1.39,0,9.34,9.34,0,0,0,2.89-1.47,1,1,0,0,0,.16-.15.41.41,0,0,0-.13-.66,1.27,1.27,0,0,0-1.46.22,6.37,6.37,0,0,1-1.94,1.31C298.64,233.47,298.24,233.55,298.05,234Zm79.09,12.55c-.38.52-.73.79-.78,1.11-.08.51-.57.55-.78.87a.36.36,0,0,0,0,.1,25.09,25.09,0,0,0-.73,2.69.59.59,0,0,0,.85-.34c.14-.34.24-.7.36-1.05a3.46,3.46,0,0,0,.57-.17c.12-.06.29-.17.31-.29A7,7,0,0,0,377.14,246.59ZM221.89,262.64c-.2-.4-.46-.43-.71-.26-.43.3-.85.63-1.26,1a1.71,1.71,0,0,0,.14,2.51c.41.32.83.21.94-.3a4.86,4.86,0,0,0,.07-1.23,1.44,1.44,0,0,1,.59-1.38A1.47,1.47,0,0,0,221.89,262.64Zm17.4-74.49c-.58-.06-1-.12-1.38-.14a1.06,1.06,0,0,0-1.19.95,3.12,3.12,0,0,0,.13,1,1.68,1.68,0,0,0,.62,1.1c.13-.27.23-.5.34-.72a3.51,3.51,0,0,1,.44-.77,1.05,1.05,0,0,1,.59-.24c.15,0,.31.23.56-.06Zm112.5,39.12a3.13,3.13,0,0,0-2.61-.54,2,2,0,0,0-1.76,1.22c.25.39.66.37,1,.48a1.22,1.22,0,0,0,1.18-.19A4.6,4.6,0,0,1,351.79,227.27Zm-23.22,8.43a3.6,3.6,0,0,0,2.25-.15,1.16,1.16,0,0,0,.78-.82,3.31,3.31,0,0,0-.5-1.18,5.78,5.78,0,0,0-2.09,1.13A1.22,1.22,0,0,0,328.58,235.7ZM171.49,254.18a1.72,1.72,0,0,0-1.21,1.46,2.78,2.78,0,0,0,.24,2.57A3.77,3.77,0,0,0,171.49,254.18Zm80.17,15.68a6.73,6.73,0,0,0-1-.44,1,1,0,0,0-1.22,1.23,1.65,1.65,0,0,0,1.37,1.17.7.7,0,0,0,.8-.62C251.69,270.81,251.66,270.39,251.66,269.86Zm-42.2-56.26a15.91,15.91,0,0,0-2.67,2.39,6.3,6.3,0,0,0-.63.93c-.06.1,0,.27,0,.38s.15,0,.17,0a7.2,7.2,0,0,0,3.25-3C209.68,214.24,209.54,214,209.47,213.6Zm107.1,14.89a1,1,0,0,0,1,.51,5.72,5.72,0,0,0,2.55-1.55.21.21,0,0,0,0-.1c0-.18,0-.41-.08-.52a.55.55,0,0,0-.5-.12,8.27,8.27,0,0,0-1.21.61A8.86,8.86,0,0,0,316.57,228.49ZM169.13,253.4a3.8,3.8,0,0,0-1.69,2.75,1.5,1.5,0,0,0,.26,1.34,1.51,1.51,0,0,0,.94-1A5.92,5.92,0,0,0,169.13,253.4Zm4.71,10.43c-.25.1-.29.36-.16.45a1.31,1.31,0,0,1,.43,1.78,1.19,1.19,0,0,0,0,.33,1,1,0,0,0,.19.85,1,1,0,0,0,1.11.22l.33-1.23a.88.88,0,0,0-.34-1C174.86,264.8,174.39,264.33,173.84,263.83Zm57.8-79.91a6.58,6.58,0,0,0-.07-1.07,2.42,2.42,0,0,0-.37-.8.74.74,0,0,0-.92-.18,1.13,1.13,0,0,0-.45,1.37,2.72,2.72,0,0,0,1.26,1.24.33.33,0,0,0,.46-.19A3.48,3.48,0,0,0,231.64,183.92Zm-61.35,62.73a3.9,3.9,0,0,0,1-1.33,2.4,2.4,0,0,1,1-1,2.16,2.16,0,0,0,.55-.39,2.62,2.62,0,0,0,.93-1.52c-.18,0-.31,0-.38,0a3.38,3.38,0,0,0-.75.66,2.75,2.75,0,0,1-1.35,1.12,1.52,1.52,0,0,0-1,1.29A8.44,8.44,0,0,0,170.29,246.65Zm158.78-18.08c1.19.43,1.66.28,2.23-.71a3.41,3.41,0,0,0,.23-.52c.13-.36,0-.64-.38-.63a2.07,2.07,0,0,0-.86.18A3.48,3.48,0,0,0,329.07,228.57Zm-50,37.66a2.93,2.93,0,0,0-1.55,1.29.82.82,0,0,0-.06.86,1.73,1.73,0,0,0,1.24.88.36.36,0,0,0,.38-.44.65.65,0,0,0-.09-.21,1,1,0,0,1,.09-1.43A.74.74,0,0,0,279.08,266.23Zm24.42-36.72a1.42,1.42,0,0,0,1.62.08c.79-.35,1.53-.8,2.29-1.22a.38.38,0,1,0-.31-.69l-.21.09c-.89.4-1.78.8-2.67,1.22A5.45,5.45,0,0,0,303.5,229.51Zm-84.68,16.16a2.6,2.6,0,0,0,.78.24,2.14,2.14,0,0,1,1.74.64.33.33,0,0,0,.52,0c-.08-.3-.16-.63-.25-1a1.54,1.54,0,0,0-.51-.92A2.62,2.62,0,0,0,218.82,245.68Zm55.43,26.84a1.85,1.85,0,0,0,1.16-1.9c0-.23-.25-.49-.42-.43a8.86,8.86,0,0,0-1.21.56,1.31,1.31,0,0,0-.69.89ZM170.19,223.69l2.4.42a1.63,1.63,0,0,0,1.35-.42c.12-.1.13-.31.23-.57-.8-.08-1.5-.18-2.21-.21A2.11,2.11,0,0,0,170.19,223.69Zm60.75,40.25c.2-.88.19-.89-.39-1.15-.2-.09-.39-.2-.56-.29.13-.76.74-1.3.67-2a.49.49,0,0,0-.74,0,5,5,0,0,0-.68.89,1.05,1.05,0,0,0,.15,1.35A5.28,5.28,0,0,0,230.94,263.93Zm5.87-2.78a1.36,1.36,0,0,0-1.17.94,1.28,1.28,0,0,0,.23,1.18,2.48,2.48,0,0,0,1.22,1c.17.06.35.16.57-.06a1.52,1.52,0,0,0-.08-.48,2.46,2.46,0,0,0-.45-.65,1.33,1.33,0,0,1-.36-1.45A2.84,2.84,0,0,0,236.81,261.15ZM266,272.49c.58-.5.51-1.15.63-1.71a.79.79,0,0,0-.22-.59c-.21-.21-.49-.14-.73,0a2.07,2.07,0,0,0-1,1.2A3.61,3.61,0,0,0,266,272.49ZM238.39,85.87l-.26.2-.2.11c-.15.06-.29.16-.23.33s.15.32.25.34a2.62,2.62,0,0,0,1.87-.21.58.58,0,0,0,.24-.36,1,1,0,0,0-.7-1.15,2,2,0,0,0-1.28.1Zm-34.69,175.4a.77.77,0,0,0-.85.42,2.66,2.66,0,0,0-.3,1.07c0,.91.42,1.41,1.16,1.5A15.56,15.56,0,0,0,203.71,261.27Zm65-18.82a3,3,0,0,0-2.54.05c-.44.17-1,.27-1.09.84a1.35,1.35,0,0,0,1.49.18A3.74,3.74,0,0,0,268.75,242.46Zm-93.82,12.3c-1.41.78-1.94,1.79-1.74,3a.48.48,0,0,0,.47.47l.74-.64A4.58,4.58,0,0,1,174.93,254.76Zm96.26,14.54a4.33,4.33,0,0,0-.23-1,7.61,7.61,0,0,0-.84-1.32.51.51,0,0,0-.87.27,1.22,1.22,0,0,0,.17,1,2.44,2.44,0,0,0,1.38,1.1A1.32,1.32,0,0,0,271.19,269.29Zm-72.49-5.12c.09,0,.21-.08.21-.12a12.24,12.24,0,0,0-.62-3.29,1.35,1.35,0,0,0-.77,1.36A2.51,2.51,0,0,0,198.7,264.18ZM240.36,77.86c1.06,0,1.21-.1,1.53-1.12-.34-.13-.68-.29-1-.39s-.54-.59-.86-.84C239.23,76.47,240,77.13,240.36,77.86Zm-58.64,179a1.88,1.88,0,0,0-1.3,1.84c-.07.71-.23,1.51.58,2a1.55,1.55,0,0,0,.43-1.27A4.72,4.72,0,0,1,181.72,256.81Zm103.88-22.2a2.85,2.85,0,0,0,.61.2,4.57,4.57,0,0,0,3.14-1.07c.09-.08.12-.23.22-.44A7,7,0,0,0,285.6,234.61Zm-109.9,24.15c-.59.05-.91.29-.91.77,0,.86,0,1.72.06,2.57a3.39,3.39,0,0,0,.27.76A10.2,10.2,0,0,0,175.71,258.76Zm1.62.92a1.87,1.87,0,0,0,.19-1.35,2.53,2.53,0,0,1,.44-2c.08-.11.21-.24,0-.44a2.19,2.19,0,0,0-1.38,2A1.78,1.78,0,0,0,177.33,259.67ZM372.78,250a1.2,1.2,0,0,0,1.16-.76,2.55,2.55,0,0,0-.24-2.31,3.65,3.65,0,0,0-.77,1.64C372.79,249,372.54,249.5,372.78,250Zm-201.7-2.83a2.44,2.44,0,0,0-1.11,1.75c-.11.47-.24.94.17,1.35a3.54,3.54,0,0,0,1.14-2A1.06,1.06,0,0,0,171.08,247.19Zm72.17,14.52a.94.94,0,0,0-.84,1.11,1.86,1.86,0,0,0,1,1.5.41.41,0,0,0,.56-.06A8.26,8.26,0,0,0,243.25,261.71Zm37.87,10.1a1.66,1.66,0,0,0,1.2.58.6.6,0,0,0,.69-.58c0-.44,0-.88,0-1.35a2.21,2.21,0,0,0-1.38.56A.92.92,0,0,0,281.12,271.81Zm-33.76-119a2.86,2.86,0,0,0,.2-.61,1,1,0,0,0-.63-1,1,1,0,0,0-1.12.27.54.54,0,0,0-.11.62C246,152.81,246.3,152.94,247.35,152.76ZM232,255.31c-.06-.28,0-.43-.11-.48q-1.08-.88-2.19-1.73c-.14-.1-.37,0-.43.23a.61.61,0,0,0,.12.72A5.7,5.7,0,0,0,232,255.31Zm92-32.63a6.72,6.72,0,0,0-2.94,1.47,1.79,1.79,0,0,0,1.93,0A1.56,1.56,0,0,0,324,222.69ZM194.1,263.2a7.94,7.94,0,0,0-.07-1.28,4.83,4.83,0,0,1,0-2s-.06-.1-.1-.15a1.91,1.91,0,0,0-1,1.65C192.94,262.07,193.21,262.54,194.1,263.2Zm107,13.93-1.24,1.49a1.8,1.8,0,0,0,2,.12c.08-.41.39-.74.22-1.2A1.26,1.26,0,0,0,301.08,277.13Zm-111.92-15.2a9,9,0,0,0,.67-3,.24.24,0,0,0-.25-.29,2,2,0,0,0-1,1.77A1.56,1.56,0,0,0,189.16,261.94Zm49.27-6.23a2.43,2.43,0,0,0-1.46-1.51,3.26,3.26,0,0,0-1-.22.34.34,0,0,0-.19.61,8.43,8.43,0,0,0,2.39,1.19S238.28,255.76,238.44,255.71Zm-64.56-4.41a1.72,1.72,0,0,0-1.09,1.33,2.47,2.47,0,0,0,.22,2.15A7.43,7.43,0,0,0,173.88,251.3Zm-1.74-3.88a3.34,3.34,0,0,0,1.25-2.18c0-.21,0-.46-.25-.55a2,2,0,0,0-1.26,1.57A1,1,0,0,0,172.14,247.42Zm102.64,18.71a11.41,11.41,0,0,0-1.27-2.37c-.46,0-.73.23-.82.6a.78.78,0,0,0,.33.8A4.36,4.36,0,0,0,274.78,266.13ZM209,265.2a11.37,11.37,0,0,1-.24-1.17c0-.37,0-.75,0-1.13s0-.61-.32-.8a.84.84,0,0,0-.69.64,1.6,1.6,0,0,0,.1,1.21A2,2,0,0,0,209,265.2ZM258.25,263a5.61,5.61,0,0,0-.77,0,.52.52,0,0,0-.42.47,1.34,1.34,0,0,0,.36,1.14,1.11,1.11,0,0,0,1.28.33Zm-90.47-9.85a4.11,4.11,0,0,0,1.5-2,1.28,1.28,0,0,0-.1-1.05c-.59.3-.6.29-.78.63A4,4,0,0,0,167.78,253.2Zm3.49-2.58c-.42.06-.61.39-.83.68a2.36,2.36,0,0,0-.5,1.34,1.44,1.44,0,0,0,.29,1.11,3.66,3.66,0,0,0,.82-1.47A2.47,2.47,0,0,0,171.28,250.62Zm58.46-8.94a4,4,0,0,0-1.32,1.18,2.85,2.85,0,0,0,1.83,0c.37-.1.74-.2.88-.61-.05-.05-.09-.13-.15-.15ZM242.94,259l.13-.21c-.19-.16-.38-.33-.59-.48-.38-.25-.77-.48-1.15-.73a.84.84,0,0,1-.42-1.15A1.8,1.8,0,0,0,241,256c-.89.22-1.16.88-.61,1.46A6.93,6.93,0,0,0,242.94,259ZM243,79.41A1.31,1.31,0,0,0,242,78.3a1,1,0,0,0-1,.52.82.82,0,0,0,.15,1.07A3,3,0,0,1,243,79.41Zm-8.7,175.92a1,1,0,0,0-.67,1.7,4.78,4.78,0,0,0,.81.59c.14.09.33.2.44,0Zm-49.47,5.88a1.15,1.15,0,0,0,.57-1.28,1.55,1.55,0,0,0-.8-1.27c-.46.34-.39.81-.39,1.24A1.38,1.38,0,0,0,184.88,261.2Zm30.2-141.28c.32-.73.65-1.44.94-2.17.14-.35,0-.54-.45-.87C214.64,118,214.5,118.87,215.08,119.92ZM335.28,222.47a4.63,4.63,0,0,0-2.29,1c-.11.09-.13.29-.2.45,1.09.15,1.5.09,2-.29A1.12,1.12,0,0,0,335.28,222.47ZM251.37,143.7a1.93,1.93,0,0,0-.28-1.71c-.24-.4-.43-.87-1.05-1a2.28,2.28,0,0,0,.24,1.57C250.49,143,250.68,143.49,251.37,143.7ZM223.28,252.58c-.36.3-.29.54-.1.68.6.44,1.23.86,1.85,1.28a.3.3,0,0,0,.21,0c.13,0,.32-.07.38-.17s0-.28-.05-.4a.59.59,0,0,0-.24-.23ZM345.77,224a4,4,0,0,0-2,1.07,1.14,1.14,0,0,0,.87.44,1.32,1.32,0,0,0,1.37-.77A.51.51,0,0,0,345.77,224ZM336.5,220c.84.65,1.64.64,2.16,0a.49.49,0,0,0,.1-.4.65.65,0,0,0-.4-.32A1.92,1.92,0,0,0,336.5,220Zm-3.68,11.1s0,.08.05.08a2.83,2.83,0,0,0,2.17-.66.76.76,0,0,0,.22-1,7.26,7.26,0,0,0-1.49.77,10.3,10.3,0,0,0-.91.64S332.82,231,332.81,231.09Zm-160.21,20a13.09,13.09,0,0,0,.58-3.21,2.43,2.43,0,0,0-1.08,1.61A1.37,1.37,0,0,0,172.6,251.08Zm90.09-6.3a1,1,0,0,0-1.09,0,3.59,3.59,0,0,0-.89.64c-.18.17-.1.41.06.6a.41.41,0,0,0,.49.14,2.53,2.53,0,0,0,1.33-1A1.2,1.2,0,0,0,262.69,244.78ZM246.15,140.44a6.75,6.75,0,0,0,1-1.95,1.06,1.06,0,0,0,0-.44.38.38,0,0,0-.52-.28,1.08,1.08,0,0,0-.57.66A2.75,2.75,0,0,0,246.15,140.44ZM246,75.64c-.11-.11-.16-.23-.25-.26a1.79,1.79,0,0,0-1.88.36.65.65,0,0,0-.23.37.79.79,0,0,0,.11.5c0,.07.28.08.4,0,.52-.21,1-.45,1.53-.7A1.62,1.62,0,0,0,246,75.64Zm-21.82,56.64a2.43,2.43,0,0,0,.53-1.76.55.55,0,0,0-.52-.5.47.47,0,0,0-.57.25,1.88,1.88,0,0,0-.05,1.22A1,1,0,0,0,224.15,132.28Zm1.67,38.5a7.67,7.67,0,0,0,.54-2,1.08,1.08,0,0,0,0-.44.53.53,0,0,0-.24-.33.43.43,0,0,0-.39.11,1.09,1.09,0,0,0-.31.57,13.92,13.92,0,0,0,0,1.66C225.46,170.46,225.62,170.55,225.82,170.78Zm72.63,44.11a1.62,1.62,0,0,0,.87,1,1.43,1.43,0,0,0,.65.08.48.48,0,0,0,.38-.74.84.84,0,0,0-.27-.34A1.66,1.66,0,0,0,298.45,214.89ZM310.68,240a1.91,1.91,0,0,0,2.38-1.06,1.17,1.17,0,0,0-1.26.07C311.34,239.21,310.83,239.39,310.68,240Zm-17.45-2a2.23,2.23,0,0,0,2-.54,1,1,0,0,0,.5-1.09,5.31,5.31,0,0,0-1.89,1C293.56,237.48,293.24,237.58,293.23,238Zm-70.16,6.2a13.52,13.52,0,0,1,1.63.09,14.64,14.64,0,0,1,1.59.45c.22-.66.1-1-.41-1a7.13,7.13,0,0,0-2.68.24S223.16,244,223.07,244.2Zm22.36,12s0-.09,0-.11a9.41,9.41,0,0,0-2.88-1.47c-.07,0-.18.06-.28.1A4.11,4.11,0,0,0,245.44,256.24Zm-34-4.65c.07.41,0,.66.14.73a21,21,0,0,0,1.77,1.17c.1.06.36-.06.47-.17s.05-.35-.11-.47A15.24,15.24,0,0,0,211.41,251.58Zm-35.6-8.82a1.86,1.86,0,0,0-1.62,1.14c-.17.37-.33.76,0,1.13A5,5,0,0,0,175.8,242.76Zm70.78-98.16c-.44,0-.76.18-1,.08a1.35,1.35,0,0,0-1.17.16c-.51.24-.52.49-.08,1l.88-.6,1,.21Zm107.75,75.62a.67.67,0,0,0-1-.18c-.35.21-.67.47-1,.71,0,0,0,.13-.07.26l.65.44C354,221,354,221,354.34,220.22ZM234.34,169c.26-1.14.25-1.21-.22-2a.78.78,0,0,0-.71.48,1.55,1.55,0,0,0-.09.76C233.38,168.79,233.59,168.93,234.34,169Zm-48.76,82.63a1.48,1.48,0,0,0-.48,1.77c.21.7.45.94,1,1.08ZM246,148.06a1,1,0,0,0,1.27-.47,1.51,1.51,0,0,0-.14-1.63A4.15,4.15,0,0,0,246,148.06Zm-7.47,18.57a7.55,7.55,0,0,0-.07,1,.51.51,0,0,0,.25.34.38.38,0,0,0,.5-.12c.11-.15.21-.3.31-.44.4.13.35.69.78.76a.73.73,0,0,0,0-1A1.72,1.72,0,0,0,238.54,166.63ZM303.1,276.35a2.35,2.35,0,0,0-.35.42.8.8,0,0,0,.25,1.08c.27.19.55.16.91-.14a2.63,2.63,0,0,0,.34-.44A1.82,1.82,0,0,0,303.1,276.35ZM225.81,129.58A1.75,1.75,0,0,0,225,131a1.61,1.61,0,0,0,.41,1.43C226.1,131.55,225.86,130.62,225.81,129.58Zm23.48,125.67c.16.19.26.37.4.44.91.43,1.82.83,2.74,1.23,0,0,.09-.08.14-.13a6.54,6.54,0,0,0-2.31-1.47A.89.89,0,0,0,249.29,255.24Zm-9.71,5.62a2.76,2.76,0,0,0-.29-.35,1.29,1.29,0,0,1-.38-1.62,1.81,1.81,0,0,0,0-.53c-.39,0-.7.16-.79.46a2.25,2.25,0,0,0,0,1,1.46,1.46,0,0,0,.72,1C239.07,260.92,239.29,261.09,239.58,260.86ZM360,245.46c.16,0,.3.1.41.07a.88.88,0,0,0,.56-.65,2,2,0,0,0-.25-1.82,1.71,1.71,0,0,0-.33-.26,9.15,9.15,0,0,1,0,1.3A11.66,11.66,0,0,1,360,245.46ZM172.24,259.25a2.65,2.65,0,0,0,0,2.92,2.31,2.31,0,0,0,.24-1.53A1.85,1.85,0,0,0,172.24,259.25Zm159.49-40.62a1.52,1.52,0,0,0,1.79.24c.47-.21.6-.44.66-1A6.75,6.75,0,0,0,331.74,218.63Zm-162.19,28.1c-.56.14-.67.57-.83.92a3,3,0,0,0-.33,1.94A3.74,3.74,0,0,0,169.55,246.73Zm123.87,21.52a4.45,4.45,0,0,0,1.74.85.5.5,0,0,0,.35-.18s0-.22-.07-.3a6.88,6.88,0,0,0-1.47-1.07Zm-118-16.81a4.55,4.55,0,0,0,.33-2.18c0-.16,0-.29-.24-.29C174.57,250.1,174.53,250.84,175.38,251.45Zm75.14-116.57a2.69,2.69,0,0,0-.69-2.08.87.87,0,0,0-.37-.23.36.36,0,0,0-.3.07.34.34,0,0,0-.09.29A4.67,4.67,0,0,0,250.51,134.88Zm-19,55.09v1a1.72,1.72,0,0,0,.9-1.29.61.61,0,0,0-.4-.61,1,1,0,0,0-1.07.27C230.93,189.75,231.26,189.68,231.47,190ZM319.67,222a2.25,2.25,0,0,0-1.91.15c-.36.18-.75.36-.84.87A3.62,3.62,0,0,0,319.67,222Zm-4.24-8.78a1.25,1.25,0,0,0,1.63.12c.23-.14.42-.31.32-.62C316.29,212.27,316,212.34,315.43,213.24ZM295.22,230.1a3.53,3.53,0,0,0-1.87.36,2.16,2.16,0,0,0-1.37,1.08A13.15,13.15,0,0,0,295.22,230.1Zm70.53-4.41a1.81,1.81,0,0,0-1.33,1,13.38,13.38,0,0,0,1.3.42.63.63,0,0,0,.46-.22.45.45,0,0,0,0-.4A7,7,0,0,0,365.75,225.69ZM293.8,242.91a1,1,0,0,0-.34-.08,4.36,4.36,0,0,0-.75.21,11.24,11.24,0,0,0-2,.86c.17.1.26.21.33.19a9.89,9.89,0,0,0,2.65-.88C293.76,243.18,293.77,243,293.8,242.91Zm-82.52,18.36a3.38,3.38,0,0,0-.32-2,1.16,1.16,0,0,0-.5,1.42A.66.66,0,0,0,211.29,261.27Zm-19-8.48a5,5,0,0,0-1.1-2.37.56.56,0,0,0-.27.73A2.26,2.26,0,0,0,192.32,252.79Zm17.08-4c-.36.82.24,1.1.64,1.44s.64.4,1.18.13A6.42,6.42,0,0,0,209.4,248.78Zm36-174.64a2.86,2.86,0,0,0,1.52.72,2.33,2.33,0,0,0,.77-.06c.05,0,.11-.11.12-.17a.23.23,0,0,0-.07-.19A2.76,2.76,0,0,0,245.44,74.14ZM225.91,251.06c0,.1,0,.2,0,.24a3.86,3.86,0,0,0,2.21,1.21s.11-.15.17-.24a5.74,5.74,0,0,0-2.12-1.29C226.12,251,226,251,225.91,251.06ZM205.31,259a1.28,1.28,0,0,0,0,1.31,1.7,1.7,0,0,0,1.06,1.12,4.21,4.21,0,0,0-.49-1.85C205.75,259.34,205.73,259,205.31,259Zm40.36-.06c-.55.31-.83.62-.75,1.13a1,1,0,0,0,1,.88A4.2,4.2,0,0,0,245.67,258.92Zm-66.92-17.14a1.82,1.82,0,0,0-1.85.47.55.55,0,0,0-.11.84A5.34,5.34,0,0,0,178.75,241.78Zm175.94,2.15a5.51,5.51,0,0,0-.26,2.24c0,.07.16.12.25.18C355.38,245.48,355.4,244.94,354.69,243.92Zm-110.24,4.84a1.1,1.1,0,0,0-1.25-.34,1,1,0,0,0-.67.84.33.33,0,0,0,.42.37A5.86,5.86,0,0,0,244.45,248.76Zm10.77-4.85c.12,0,.24.11.32.08q1.87-.61,3.73-1.26s0-.12.06-.18A13,13,0,0,0,255.22,243.91ZM348.94,218a1.68,1.68,0,0,0,1.31.45.29.29,0,0,0,.2-.09c.11-.14.29-.29.28-.44a.63.63,0,0,0-.3-.43.88.88,0,0,0-.54-.08A1.26,1.26,0,0,0,348.94,218ZM228.38,119.48c.6-.52.63-.58.52-1a1.33,1.33,0,0,0-.6-.89c-.08,0-.21,0-.33,0A2.11,2.11,0,0,0,228.38,119.48Zm-62.05,132.9c1.11-.95,1.45-1.76,1.11-2.51A4.56,4.56,0,0,0,166.33,252.38Zm8.61-6.65a1.19,1.19,0,0,0-.84,1.14.93.93,0,0,0,.59,1c.09-.52.18-1,.24-1.46A6.25,6.25,0,0,0,174.95,245.73Zm131.82-8.24a1.51,1.51,0,0,0,1.42-.26c.32-.21.73-.39.74-.89A2.78,2.78,0,0,0,306.77,237.49Zm-82.4-61.63c-.69.95-.7,1.41,0,1.95C224.9,176.73,224.9,176.46,224.36,175.86Zm-9.06-52.32a3.45,3.45,0,0,0-.91,2.06c.45.12.61.09.72-.19A3.07,3.07,0,0,0,215.3,123.54Zm19.28,129.39a7.27,7.27,0,0,0-2.18-1.51c-.22.23-.22.49,0,.6.64.37,1.31.69,2,1C234.38,253.06,234.47,253,234.58,252.93ZM234,190.28a2,2,0,0,0,.1.55c.06.14.24.32.37.32a.53.53,0,0,0,.39-.31,1.84,1.84,0,0,0,0-.76c0-.36-.35-.63-.57-.54S234,189.91,234,190.28Zm3.38-23c0-.26-.32-.44-.68-.42a.61.61,0,0,0-.64.62.78.78,0,0,0,.62.67C237,168.11,237.42,167.61,237.38,167.23ZM183.65,219.9c-.76.23-1.4.28-1.82.87.62.33.81.39,1.2.27a1,1,0,0,0,.53-.36C183.67,220.51,183.62,220.26,183.65,219.9Zm12.4,39.24c0-.27,0-.53,0-.79a6.15,6.15,0,0,1,.16-.89c.06-.23.23-.44.05-.76a1.91,1.91,0,0,0-.77,1.82C195.53,258.8,195.6,259.14,196.05,259.13Zm-17.72-8.82a1.39,1.39,0,0,0-.32,1.51c.09.39.24.8.79.89A5.79,5.79,0,0,0,178.33,250.31Zm77,18.11a1.44,1.44,0,0,0-1.42-1.21.64.64,0,0,0,.11.88A1.09,1.09,0,0,0,255.31,268.42Zm-52.24-16.79a1.37,1.37,0,0,0-1.17-1.3c-.07,0-.26.16-.27.26a1,1,0,0,0,.49.83A.86.86,0,0,0,203.07,251.63Zm69.66-11.55c1.55-.18,2.36-.46,2.79-.93A3.63,3.63,0,0,0,272.73,240.08Zm8.8,25.35a1.17,1.17,0,0,0-.28-1.34,4.18,4.18,0,0,0-.6.46.55.55,0,0,0-.07.41C280.64,265.34,280.9,265.46,281.53,265.43ZM214.17,140.89c.18-1.67.15-2.26-.13-2.9a3.29,3.29,0,0,0-.24,1.92C213.82,140.23,213.76,140.59,214.17,140.89ZM185.71,246.63a6.59,6.59,0,0,0-.07,1,1.08,1.08,0,0,0,.68.85c.11.06.27,0,.46,0A2.61,2.61,0,0,0,185.71,246.63ZM201.44,249l-.6-1.84c-.47.1-.71.34-.62.73a1.85,1.85,0,0,0,.43.76C200.78,248.8,201,248.83,201.44,249Zm23.62,9.31a.76.76,0,0,0,.05.87,1.15,1.15,0,0,0,.76.62c.09,0,.26,0,.3-.08a.5.5,0,0,0,0-.4A2.13,2.13,0,0,0,225.07,258.32ZM363.82,220.7a2.83,2.83,0,0,0-.51-.29.82.82,0,0,0-.54,0,.86.86,0,0,0-.42.46c0,.11.15.34.28.42a.79.79,0,0,0,.52.09A.71.71,0,0,0,363.82,220.7ZM177.16,247.16c-.45.24-.39.64-.31,1a1.14,1.14,0,0,0,.86,1C177.55,248.41,177.63,247.72,177.16,247.16Zm11.26,4.57-1-2c-.49.37-.33.77-.18,1.14A1.19,1.19,0,0,0,188.42,251.72Zm-4.16-1.07a3.57,3.57,0,0,0-.52-2c-.34.48-.4.62-.34.94A1.32,1.32,0,0,0,184.26,250.66Zm-7.47-9.42c-.23-.09-.36-.2-.47-.18a2.16,2.16,0,0,0-1.47.93c-.06.09,0,.25,0,.51.55-.32,1-.58,1.45-.85A5.45,5.45,0,0,0,176.79,241.24Zm138.9-5.57a2,2,0,0,0,1.92-.57c.14-.12.25-.28.06-.49a2.52,2.52,0,0,0-1.31.5A5.77,5.77,0,0,0,315.69,235.67ZM181.76,251.05c-.64,1.19-.41,2,.53,2.4C182.18,252.67,181.86,252,181.76,251.05Zm99,6.77a1.33,1.33,0,0,0-.86-1.05.46.46,0,0,0-.6.18.37.37,0,0,0,.19.56A2,2,0,0,0,280.76,257.82Zm-92.91-2.71c-.42,0-.54.31-.69.55a1.67,1.67,0,0,0-.14,1.19,1,1,0,0,0,.49.76,10.59,10.59,0,0,1,0-1.31A9.21,9.21,0,0,1,187.85,255.11Zm5.66-1.44c-.46.33-.38.78-.29,1.21a1.14,1.14,0,0,0,.94,1ZM225.76,100a1.4,1.4,0,0,0,1.1-.4.42.42,0,0,0-.13-.65.74.74,0,0,0-.82.18C225.64,99.39,225.46,99.66,225.76,100Zm16-17.9a2.71,2.71,0,0,0,1.28-1.65,8.89,8.89,0,0,0-1.34.91.51.51,0,0,0-.17.38C241.59,81.88,241.72,82,241.8,82.12ZM217,181.37a2.22,2.22,0,0,0,1.2-.51c0-.36,0-.69-.37-.91A1.54,1.54,0,0,0,217,181.37ZM197,244.46c-.23,0-.47-.1-.62,0a1.91,1.91,0,0,0-.65.55c-.06.07.07.34.18.46a.42.42,0,0,0,.4,0A1.29,1.29,0,0,0,197,244.46Zm17.77-111.24a1.42,1.42,0,0,0,.33-.27,1.12,1.12,0,0,0,0-1.17c-.11-.2-.29-.35-.55-.2A2,2,0,0,0,214.81,133.22Zm29,42.71a2.85,2.85,0,0,0-.28.54.78.78,0,0,0,.29,1,.22.22,0,0,0,.21,0,1.06,1.06,0,0,0,.29-.91A.62.62,0,0,0,243.86,175.92Zm-67.22,76.56a1.69,1.69,0,0,0-.76,1.74c0,.24,0,.55.38.57Zm3.77-4.6a1.16,1.16,0,0,0-.25,1.35c.13.29.26.59.74.6A6.94,6.94,0,0,0,180.41,247.88Zm57.45-138.14a1.16,1.16,0,0,0-1.21.34.44.44,0,0,0,0,.4.46.46,0,0,0,.35.22C237.45,110.69,237.69,110.43,237.86,109.74Zm7.33-4.2c.52-1.32.47-1.54-.5-2A6.71,6.71,0,0,0,245.19,105.53ZM349.58,234.67a1.13,1.13,0,0,0,1-.93c.09-.28.18-.58-.2-.79A3.13,3.13,0,0,0,349.58,234.67ZM189.78,254.86a2.93,2.93,0,0,0-.49-1.84,1.15,1.15,0,0,0-.19,1.15C189.16,254.47,189.27,254.82,189.78,254.86Zm4.46-5a1.93,1.93,0,0,0-.43-1.18.43.43,0,0,0-.38-.12.42.42,0,0,0-.24.32,1.33,1.33,0,0,0,.19.62A.73.73,0,0,0,194.24,249.84Zm38,8.11a1.07,1.07,0,0,0-.88.77c-.15.38,0,.61.61.87Zm-49.93-14.58a.73.73,0,0,0-.65.74c0,.34.09.68.52.75C182.51,244.19,182.51,244.19,182.28,243.38Zm10.83-28a1.35,1.35,0,0,0-1.38.45.37.37,0,0,0-.05.3.34.34,0,0,0,.24.18C192.5,216.34,192.71,216.17,193.11,215.34ZM187,218.81a1,1,0,0,0,1.11,0c.22-.15.39-.34.24-.65a1,1,0,0,0-1,.1A1.82,1.82,0,0,0,187,218.81Zm84.77,37.79a2.49,2.49,0,0,0,.28.59,1.78,1.78,0,0,0,1.18.54c.08,0,.17-.08.35-.18A5,5,0,0,0,271.77,256.6ZM255.4,259c.18-.28,0-.49,0-.68a4.16,4.16,0,0,0-.39-.81.3.3,0,0,0-.28-.09.84.84,0,0,0-.25.33.29.29,0,0,0,0,.22A2.07,2.07,0,0,0,255.4,259Zm-75.68-3.07.2-2.3c-.48.39-.56.48-.59.93A1.38,1.38,0,0,0,179.71,255.93Zm.64-13.53c-1,.34-1.11.39-1.34.85a.39.39,0,0,0,.24.62A7.22,7.22,0,0,0,180.36,242.41Zm-.66,4.23c.1-.65.21-1.17-.2-1.66a1,1,0,0,0-.35,1.23C179.2,246.37,179.45,246.46,179.69,246.63ZM224,255.93c.47-.64.5-.83.25-1.11a.69.69,0,0,0-.67-.3c-.18,0-.21.32,0,.69A8.39,8.39,0,0,0,224,255.93Zm-46.42-12.22c-1.23.67-1.41,1.1-.87,1.81.15-.27.31-.52.43-.79S177.38,244.2,177.59,243.71ZM295.7,217.64a2.31,2.31,0,0,0-1.67-.81c-.07,0-.14.14-.25.25A2.74,2.74,0,0,0,295.7,217.64Zm55.42-1.35a2.09,2.09,0,0,0,.43-.1c.09,0,.21-.15.21-.23a.53.53,0,0,0-.15-.37.7.7,0,0,0-1.09.27.29.29,0,0,0,.08.28A2.73,2.73,0,0,0,351.12,216.3ZM250,264.14c.42-.72.42-.92-.05-1.49C249.52,263.33,249.53,263.61,250,264.14Zm46.8,0a1.18,1.18,0,0,0-.74.92.44.44,0,0,0,.2.35.42.42,0,0,0,.38-.07,1.19,1.19,0,0,0,.38-1C297,264.29,296.88,264.23,296.81,264.16Zm-72.13-1.28c-.76-.69-.9-.77-1.57-.86a2.09,2.09,0,0,0,1.05,1.09C224.4,263.24,224.58,263.13,224.68,262.88Zm22.7-9.15a2.82,2.82,0,0,0-1.77-.74A1.62,1.62,0,0,0,247.37,253.73ZM230.15,232.9a2.48,2.48,0,0,0-1.6,0,.51.51,0,0,0,.48.57A1,1,0,0,0,230.15,232.9Zm59,31.44c-.73.27-.86.41-.82.78a.48.48,0,0,0,.45.43.34.34,0,0,0,.37-.34C289.14,265,289.12,264.7,289.12,264.34Zm-13.19-47.17c-.9-.55-1.14-.58-1.79-.28C274.66,217.24,274.88,217.28,275.93,217.16Zm-42,27.9a2.13,2.13,0,0,0,1.73-.38A1.38,1.38,0,0,0,233.88,245.06ZM222,251.63c-1-1-1.09-1.07-1.76-.91A2.37,2.37,0,0,0,222,251.63Zm-26.69-.08c-.13,1.18,0,1.38.81,1.39A2,2,0,0,0,195.28,251.54Zm181.84-21.82a5.6,5.6,0,0,0-.35-.53c-.35-.39-.72-.53-.82-.32s.14.53.3.76.16.2.25.21A3,3,0,0,0,377.12,229.72Zm-149.85,5.21a1.2,1.2,0,0,0-1.4-.19c.15.35.34.55.66.58S227.13,235.35,227.27,234.94ZM191.43,258c.4-1.11.4-1.11.25-1.62-.55.6-.59.64-.55,1A2,2,0,0,0,191.43,258ZM228,170.09a3.27,3.27,0,0,0,.08-1.62c0-.13-.19-.23-.39-.46A3,3,0,0,0,228,170.09ZM217.2,252.43c.36.81.44.86,1.18.87-.32-.66-.31-.68-.64-.83A1.69,1.69,0,0,0,217.2,252.43Zm-3.6,6.91a1.22,1.22,0,0,0-.91-.59c-.21,0-.45,0-.47.36C212.61,259.31,213,259.63,213.6,259.34Zm7.94-5.33a6.34,6.34,0,0,0,.25.83.51.51,0,0,0,.33.23c.07,0,.19-.12.24-.21C222.63,254.35,222.39,254.06,221.54,254Zm20.24-108.89a3.31,3.31,0,0,0,.41.49.52.52,0,0,0,.63,0,.41.41,0,0,0,.14-.36C242.69,144.77,242.3,144.72,241.78,145.13ZM213.81,246a1.56,1.56,0,0,0,.46.19.61.61,0,0,0,.39-.16c.24-.2.21-.4-.06-.86A1.37,1.37,0,0,0,213.81,246Zm44.71-29.92c.75.21.75.21,1.28,0C259.22,215.49,259.21,215.49,258.52,216.08ZM240,253.13c-.71-.8-.8-.84-1.49-.73A1.36,1.36,0,0,0,240,253.13Zm15.49-117.59a1.27,1.27,0,0,0,0-1.28c0-.07-.19-.08-.29-.08s-.13.08-.14.14A1.24,1.24,0,0,0,255.54,135.54ZM231.09,248c.82.3,1,.15.89-.72A1.28,1.28,0,0,0,231.09,248Zm4.85-1.67c-1.23,0-1.7.18-2.14.64A4.26,4.26,0,0,0,235.94,246.34ZM212.66,121.75c-.45.73-.45.73-.43,1.83A2.77,2.77,0,0,0,212.66,121.75ZM183.35,254.69a1.59,1.59,0,0,0-.1,2.14c.26-.32,0-.65,0-1S183.32,255.14,183.35,254.69Zm119.44-29.63a1.69,1.69,0,0,0,1.3-.44c.11-.09.18-.23,0-.38A2.45,2.45,0,0,0,302.79,225.06Zm3.39-.33c-.18-.1-.35-.27-.49-.25-.4.06-.61.34-.68.79A1,1,0,0,0,306.18,224.73Zm57.94,5.54c.49-.6.49-.6-.15-1.08l-.47.58ZM224.69,117.62a1.52,1.52,0,0,0,.14,1.4.23.23,0,0,0,.19.07.21.21,0,0,0,.15-.13A1.47,1.47,0,0,0,224.69,117.62ZM198.33,256.2l-.57-1.87c-.12.33-.24.5-.22.65A1.46,1.46,0,0,0,198.33,256.2Zm55.8-175.67a1.19,1.19,0,0,0,0-1.07.49.49,0,0,0-.32-.23c-.16,0-.26.19-.19.42a4.84,4.84,0,0,0,.26.72C253.88,80.45,254,80.47,254.13,80.53ZM205,221.56c-.22.17-.4.3-.56.45a4.89,4.89,0,0,0-.36.42c.31.31.53.13.72,0S205.19,222,205,221.56Zm29.73-34.19c-.17-.11-.26-.2-.34-.21-.48,0-1,0-1.43,0-.1,0-.2.12-.39.23A4.27,4.27,0,0,0,234.68,187.36Zm17.27-35.06a1.33,1.33,0,0,0-.34-1.49A2.58,2.58,0,0,0,251.95,152.3Zm-64.32,64.32c.93-.12,1.09-.26,1.15-1A3.23,3.23,0,0,0,187.63,216.62Zm32.78,40.08c-.18-.4-.43-.51-.74-.4s-.33.16-.26.4A1,1,0,0,0,220.41,256.7ZM194,227.3c-.48.11-.77.28-.88.67a.33.33,0,0,0,.08.28.31.31,0,0,0,.29,0A1.18,1.18,0,0,0,194,227.3Zm41-60.45a6.24,6.24,0,0,0,0,.87c0,.09.2.25.28.23a.42.42,0,0,0,.26-.29A.74.74,0,0,0,235,166.85Zm-25.27,88a1.28,1.28,0,0,0-.25-1c-.06-.1-.2-.15-.34-.24C209.06,254.38,209.06,254.38,209.73,254.85Zm168.48-10c.39-1,.39-1,.22-1.65C378.12,243.77,378.12,243.77,378.2,244.8ZM243,108.93c.32-.32.37-.58.16-.87s-.36-.38-.67-.14A1.24,1.24,0,0,0,243,108.93Zm23.76,145.25c.18.35.32.61.62.51s.23-.36.2-.58a1.4,1.4,0,0,0-.2-.38Zm-40.2-141.63a4,4,0,0,0-.73.36.31.31,0,0,0,0,.48.4.4,0,0,0,.38,0A.63.63,0,0,0,226.52,112.54Zm64.33,111.69a2.19,2.19,0,0,0-.17-.64.71.71,0,0,0-.91-.19C290,223.86,290,223.86,290.85,224.23Zm-75.54-84.91c0,.79,0,.79.25,1.27C215.9,140,215.9,140,215.31,139.32Zm90.15,123.54a.76.76,0,0,0,0-.25c0-.09-.15-.23-.2-.22a.54.54,0,0,0-.33.21.48.48,0,0,0,.12.6.24.24,0,0,0,.37-.06C305.43,263,305.45,262.93,305.46,262.86Zm25.42-21.75a.54.54,0,0,0-.63-.63.31.31,0,0,0-.19.22.57.57,0,0,0,.53.58C330.71,241.28,330.82,241.16,330.89,241.11ZM256.7,255.58c.46.9.47.91,1.22.78A2.35,2.35,0,0,0,256.7,255.58Zm-29.66.28c.44,0,.77-.15.8-.67C227,255,226.92,255.07,227,255.86Zm48.69,6.49c.06,0,.15-.08.16-.14a1.23,1.23,0,0,0,0-.54.4.4,0,0,0-.35-.18.38.38,0,0,0-.22.3,1.35,1.35,0,0,0,.2.5S275.68,262.33,275.74,262.35Zm-64.58-.26c-.86-.52-1-.55-1.6-.45A2.09,2.09,0,0,0,211.16,262.08ZM190,243.15c-.76,0-1,0-1.25.25s-.32.33,0,.54Zm3,4a1.85,1.85,0,0,0-.53-1C192.1,246.72,192.18,246.91,193.05,247.14Zm43.9-2.36a3.66,3.66,0,0,0,.37.49c.16.16.43.13.45,0a.65.65,0,0,0-.09-.48A.51.51,0,0,0,236.95,244.78Zm48.41,22.84c-.13.45-.1.73.15,1s.3.22.49,0A1.19,1.19,0,0,0,285.36,267.62Zm-61.44-7.25a1.56,1.56,0,0,0,.41-.09.37.37,0,0,0,.18-.25c0-.08-.1-.19-.19-.24a.83.83,0,0,0-.32-.1.29.29,0,0,0-.34.32C223.7,260.16,223.85,260.28,223.93,260.37Zm-19.43-6.62c0,.54.36.7.65.91.11.08.24.18.37-.06A2,2,0,0,0,204.49,253.75Zm111.25-36.14c-.13-.14-.23-.32-.36-.36a1.8,1.8,0,0,0-.64,0s-.1.1-.1.16,0,.16.09.18C315,217.65,315.33,217.87,315.74,217.61Zm-50.82,46.75a.82.82,0,0,0,.58.84.23.23,0,0,0,.2-.05s.08-.16.06-.2C265.58,264.68,265.43,264.36,264.93,264.36Zm-22.07-88.49a1.55,1.55,0,0,0-.77-1.1C242.23,175.52,242.23,175.52,242.85,175.87ZM200,253.36c.35.76.35.76,1.1.81A2.08,2.08,0,0,0,200,253.36Zm24.6-88.58a1.61,1.61,0,0,0-.38-1.29C224.18,164.26,224.19,164.25,224.62,164.78ZM189,246.21c.18-.34.08-.62-.26-.92-.11.19-.28.36-.28.52S188.64,246.25,189,246.21Zm65.87-120.34c-.27.67-.27.67.27,1.06C255.14,126.53,255.18,126.17,254.84,125.86ZM215.21,240.72a.69.69,0,0,0,.85-.26.23.23,0,0,0,0-.2.24.24,0,0,0-.17-.12A.6.6,0,0,0,215.21,240.72ZM245,148.83a1,1,0,0,0,.06-.83c0-.15-.15-.28-.31-.19a.44.44,0,0,0-.21.33A.76.76,0,0,0,245,148.83ZM307.95,259c.19-.21.42-.34.44-.5s-.22-.27-.42-.26-.39.14-.39.33S307.78,258.86,307.95,259Zm-21.62-37.29c0-.27-.17-.42-.28-.34a1.8,1.8,0,0,0-.41.37.3.3,0,0,0,0,.29c.06.07.25.12.3.07A2.71,2.71,0,0,0,286.32,221.76ZM282,217.9c-.07-.06-.16-.19-.28-.22a.34.34,0,0,0-.39.4.73.73,0,0,0,.34.38C281.76,218.54,282,218.21,282,217.9Zm-60.36,38a2.24,2.24,0,0,0-.2-.37c-.13-.17-.29-.31-.44-.48a.53.53,0,0,0,0,.75A.41.41,0,0,0,221.6,255.88ZM235,111.76c.1-.35.25-.55,0-.74a.48.48,0,0,0-.61,0s0,.13-.08.23ZM182.79,247.5c.09-.65,0-1-.4-1.26C182.35,246.75,182.35,246.75,182.79,247.5Zm19.89,9.13c0-.52,0-.88-.4-1.2C202.22,255.91,202.14,256.3,202.69,256.63Zm103.11-32.81c.39-.47.39-.47.42-.89C305.63,223.18,305.6,223.23,305.79,223.81Zm-21.34,1.06c.68-.08.68-.08.7-.6A.9.9,0,0,0,284.46,224.87ZM264,260.06l.16-.16a2.16,2.16,0,0,0-.43-.42c-.18-.1-.35,0-.38.27Zm-50.86-12.49c-.32.27-.15.46,0,.61s.39.4.73.22Zm-16.28.4c-.1-.44-.19-.73-.66-.78A.71.71,0,0,0,196.87,248Zm32-1.15a1.54,1.54,0,0,0,1.51-.33A2.67,2.67,0,0,0,228.84,246.82Zm-27.61,13.69c0-.69,0-.69-.64-1A1.26,1.26,0,0,0,201.24,260.51Zm18.35-7.12c-.29,0-.57.18-.51.35a.47.47,0,0,0,.29.27.26.26,0,0,0,.35-.3A1.05,1.05,0,0,0,219.58,253.39Zm24.07-91.29a.89.89,0,0,0,.1-1,.23.23,0,0,0-.16-.11.19.19,0,0,0-.16.1A1.24,1.24,0,0,0,243.65,162.1Zm-21.06-30.66c.1-.46.12-.82-.31-1.12C222.12,130.77,222.1,131.13,222.59,131.43Zm-3.17,107c.25.1.42.18.59.24s.31.08.34-.13-.09-.2-.17-.25S219.74,238,219.42,238.39Zm30.37-125.14s-.09,0-.11,0c-.22.32-.22.44,0,.63.07.05.24.09.28,0,.22-.2,0-.39-.06-.58A.78.78,0,0,0,249.79,113.26Zm-21.27,13.83c-.47,0-.69,0-.91,0a1.52,1.52,0,0,0-.31.08C227.8,127.58,227.8,127.58,228.52,127.08ZM289.36,241c-.14,0-.22-.11-.26-.09-.25.14-.49.3-.91.57.32,0,.45,0,.52,0S289.12,241.17,289.36,241Zm47.38,18.2-.12.22c.25.15.49.31.75.45,0,0,.14,0,.21-.05s0-.16-.09-.19C337.24,259.47,337,259.33,336.74,259.19Zm-139.36-9.38c.15.2.29.42.46.61s.24.19.39,0C198.06,250.11,197.89,249.8,197.38,249.81Zm10.84-2.67A.76.76,0,0,0,209,247a.31.31,0,0,0,.05-.29.32.32,0,0,0-.26-.14C208.49,246.57,208.29,246.72,208.22,247.14Zm-.91,9.16a.73.73,0,0,0,.37,1C207.74,256.87,207.74,256.53,207.31,256.3Zm154.27-33.07c0,.06.08.17.12.18a2,2,0,0,0,.52,0,.44.44,0,0,0,0-.3c-.14-.19-.33-.13-.49,0A.73.73,0,0,0,361.57,223.23ZM243.77,215.4c.26.22.45.14.76,0C244.19,215.15,244,215.1,243.77,215.4Zm-.66-4.63a1,1,0,0,0-.12.26.21.21,0,0,0,.1.17,1.11,1.11,0,0,0,.41.1c.07,0,.16-.1.21-.17s0-.14-.1-.17A4.49,4.49,0,0,0,243.11,210.76ZM366.32,245l.21.05c.05-.24.13-.47.16-.71s0-.3-.3-.25Zm-106.2,15.59c-.58.44-.58.6,0,1a1.82,1.82,0,0,0,.11-.43A3.43,3.43,0,0,0,260.12,260.57Zm69.12-43.23c-.53.13-.91-.07-1.1.43C328.52,218,328.84,218,329.24,217.34Zm-143.17,25.4a.56.56,0,0,0-.75.14.3.3,0,0,0,0,.28c0,.06.22.12.26.08A5.6,5.6,0,0,0,186.07,242.74ZM259.19,86.68a.59.59,0,0,0-.51-.5c-.06,0-.18.14-.18.21a.53.53,0,0,0,.37.51C259,87,259.21,86.8,259.19,86.68ZM301.75,268l-.53.64C301.77,268.68,301.77,268.68,301.75,268ZM221.67,135.08c0,.79.05,1,.29.87A.72.72,0,0,0,221.67,135.08Zm80.61,77.41a.82.82,0,0,0,1,.32C303.05,212.32,302.72,212.41,302.27,212.49ZM289.8,213a.91.91,0,0,0-.74,0C289.25,213.22,289.45,213.34,289.8,213Zm-30.2,1.34c-.17-.14-.24-.24-.33-.26a.35.35,0,0,0-.44.23c0,.06.11.24.14.24A5,5,0,0,0,259.6,214.34Zm116.9,25.23a1.61,1.61,0,0,0-.08,1.28A1.4,1.4,0,0,0,376.5,239.57ZM329,213.76a4,4,0,0,0-.62-.37c-.07,0-.17.08-.26.12s.09.22.15.23A4.5,4.5,0,0,0,329,213.76ZM227.91,237.69a3.22,3.22,0,0,0-.36-.28s-.16,0-.2.06a.21.21,0,0,0,0,.19.66.66,0,0,0,.19.27.39.39,0,0,0,.28,0S227.85,237.84,227.91,237.69Zm54.85-.26c.51-.07.51-.07.59-.48ZM226.16,257a.33.33,0,0,0-.38.34.21.21,0,0,0,.11.16c.17.06.43-.1.42-.27S226.21,257.09,226.16,257Zm14.32-81.46c.11-.28.14-.5-.21-.65C240.1,175.22,240.15,175.42,240.48,175.57Zm-77.81,81c-.28.19-.44.41-.26.76A.52.52,0,0,0,162.67,256.54Zm174.5-41.78c.06-.52.06-.52-.48-.41a1.29,1.29,0,0,0,.19.27A1.33,1.33,0,0,0,337.17,214.76ZM224.28,249.38c.09-.32,0-.51-.22-.59s-.21.12-.41.24ZM241,75.41c0,.06,0,.14.06.18s.28.22.45.06,0-.13.05-.19l-.48-.11S241,75.39,241,75.41ZM315.2,220.08c-.06,0-.16,0-.18.08a.87.87,0,0,0-.06.38s.16.06.25.09a2.43,2.43,0,0,0,.09-.39C315.31,220.19,315.24,220.13,315.2,220.08Zm-132,22.16c0-.05-.09-.12-.15-.15a.34.34,0,0,0-.46.16s.05.16.07.16a3.89,3.89,0,0,0,.49-.08S183.21,242.26,183.23,242.23Zm49.94-140.68c-.14.1-.26.14-.3.22a.3.3,0,0,0,.24.41c.12,0,.23-.12.35-.19Zm-43.7,146.83.37.29s.11-.1.11-.15c0-.25-.23-.48-.37-.39S189.52,248.26,189.46,248.39Zm88.06-33.94-.05-.2-.7.07c.22.14.3.24.39.24A1.23,1.23,0,0,0,277.52,214.44ZM174.28,241.3c-.09-.05-.12-.09-.15-.09-.2,0-.37,0-.43.26a.11.11,0,0,0,0,.09c.21.17.33,0,.48-.12S174.24,241.38,174.28,241.3Zm98.8-26.87c.54.39.54.39.88.07Zm-10.71.94s.1.11.14.1.1-.07.15-.11l-.19-.14ZM250.88,98.16c.07-.05.17-.1.16-.12a.5.5,0,0,0-.13-.21s-.11,0-.17.08ZM186.37,213.63s0,.06,0,.07h.09l0-.12Z"/><path d="M255.92,305.7a43.64,43.64,0,0,1,4.8,1.76q3,1.25,6.59,3.15a65.38,65.38,0,0,1,7.65,4.8,74.13,74.13,0,0,1,8.13,6.85q1.17,1.17,2.23,2.38t2,2.45l-14.58,7.18a52.81,52.81,0,0,0-6.81-7.21,35.92,35.92,0,0,0-7.4-4.94,60.34,60.34,0,0,0-8.35-3.41,73.86,73.86,0,0,0-9.67-2.38q-7.91,5.57-7.91,17.07,0,8,8.64,11.06,41.6,14.87,48.85,22a17.75,17.75,0,0,1,4,6.59,27.16,27.16,0,0,1,1.46,9.3A18.35,18.35,0,0,1,294,390a28.31,28.31,0,0,1-5.38,7.62q-6.74,7-9.59,8.35l-19.56,10.69q-7.62-.88-22.56-8.94a47.17,47.17,0,0,1-6.15-4.17q-3.59-2.78-8.2-7.18a20.37,20.37,0,0,1-2.27-2.34q-1-1.24-2-2.49l14.58-7.18q2.42,4,15.75,11.65,11.43,6.52,29.52,9.81,8-5.64,8-17.14,0-9.67-13.11-15.31-16.33-6.88-24.9-10.55t-9.59-4q-14.94-5.78-14.94-19.48,0-7.84,6.59-14.79t9.52-8.35Z"/></svg>