<svg id="Gryffindor" xmlns="http://www.w3.org/2000/svg" xmlns:xlink="http://www.w3.org/1999/xlink" viewBox="0 0 512 512"><defs><style>.cls-1{stroke-miterlimit:10;stroke-width:9px;fill:url(#linear-gradient);stroke:url(#Steel_Radial);}</style><linearGradient id="linear-gradient" x1="43.17" y1="256.27" x2="468.83" y2="256.27" gradientUnits="userSpaceOnUse"><stop offset="0" stop-color="#ff1c22"/><stop offset="0.5" stop-color="#b0605d"/><stop offset="0.6" stop-color="#a84948"/><stop offset="0.77" stop-color="#9d2a2c"/><stop offset="0.9" stop-color="#96171a"/><stop offset="1" stop-color="#941014"/></linearGradient><radialGradient id="Steel_Radial" cx="256" cy="256.27" r="225.49" gradientUnits="userSpaceOnUse"><stop offset="0" stop-color="#e5e2df"/><stop offset="0" stop-color="#f1efee"/><stop offset="0" stop-color="#fff"/><stop offset="0.13" stop-color="#f0f0f1"/><stop offset="0.37" stop-color="#c9cacb"/><stop offset="0.52" stop-color="#adaeb0"/><stop offset="0.6" stop-color="#a3a5a7"/><stop offset="0.74" stop-color="#898d90"/><stop offset="0.91" stop-color="#5f6769"/><stop offset="1" stop-color="#465053"/></radialGradient></defs><title>Gryffindor</title><path class="cls-1" d="M255.36,27.79c11.35-.72,20.94,2.5,30.76,5.23,11.38,3.16,22.72,6.35,33.81,10.4,11.24,4.11,22.55,8.06,33.62,12.58a189.11,189.11,0,0,1,48,28.2,23.71,23.71,0,0,1,3,2.68c1,1.11,2.14,2.33,1.29,4C405,92.32,403.49,92,402.19,92a15.49,15.49,0,0,0-13.33,7.57c-3.3,5.17-7.49,9.85-9.3,15.87-2.94,9.74,1.24,14.87,11.25,14.32,7.29-.4,12.06-5.21,17.28-9.27,7-5.42,9.33-5.39,15.63,1,11.8,12,23.62,23.91,36.17,35.1,1.24,1.11,2.34,2.37,3.49,3.58,5.41,5.66,6.91,11.56,4,19.48-12,32.33-23.36,64.89-38.22,96.08a132.34,132.34,0,0,0-8.75,26c-1.54,6.4-1.35,12.4,3.78,17.62,4.19,4.25,7.5,9.37,12.64,12.68,2.88,1.85,2.74,4,1.31,6.84-12.57,24.67-29.28,46.56-47.17,67.4-11.6,13.51-27.17,23-41,34.25-26,21.29-56.61,33.36-88.06,43.7a18.4,18.4,0,0,1-11.78-.26c-23.75-7.88-47-16.86-68.43-30-14.24-8.77-26.28-20.47-39.83-30.11-18.34-13.05-30.85-31-44.06-48.63a298.09,298.09,0,0,1-22.43-35.39c-2.07-3.75-1.93-6.17,1.85-8.75a41.51,41.51,0,0,0,15-18.89c2.34-5.65.57-11.26-1-16.64-4.28-14.94-11.2-28.86-17.07-43.19C64.49,228.64,55.11,204.76,45,181.16c-3.66-8.58-1.87-15,4.46-21.06,11.21-10.69,22.31-21.49,33.5-32.2,3.36-3.22,6.27-6.91,10.12-9.64,3.28-2.33,6.32-2.58,9.47.26,2.34,2.12,4.91,4,7.33,6a22.19,22.19,0,0,0,16.2,5.29c4.77-.27,7.39-2.8,8-7.36a13.54,13.54,0,0,0-.34-5.92,56.68,56.68,0,0,0-13.19-20.92,12.79,12.79,0,0,0-9.61-3.54c-1.45,0-3.22.5-3.92-1.32-.63-1.62.53-2.92,1.49-4,4.77-5.42,10.67-9.57,16.56-13.57a113,113,0,0,1,26.7-13.46c5-1.72,9.53-4.53,14.47-6.55,14.47-5.91,28.94-12.34,44-15.86C225.5,33.78,239.92,25.56,255.36,27.79Z"/><path d="M209.31,238l-.49.94a19.16,19.16,0,0,1-2.11,3.23,10.06,10.06,0,0,1-.78.83.26.26,0,0,1-.24,0,.26.26,0,0,1-.12-.2,4.16,4.16,0,0,1,.11-.6c0-.2.12-.39.16-.59,0,0-.05-.09-.09-.13a.09.09,0,0,0-.08,0c-.19.14-.37.28-.55.43s-.39.35-.6.52a.19.19,0,0,1-.33-.12,4.11,4.11,0,0,1,0-.44,1.43,1.43,0,0,0-.75-1.3,4.24,4.24,0,0,1-.91-.69,1.79,1.79,0,0,1-.46-1.94c.15-.41.31-.82.45-1.24.06-.18,0-.36-.19-.41a.36.36,0,0,1-.34-.43,1,1,0,0,0-.24-.81,2.13,2.13,0,0,1-.38-1.33,3.22,3.22,0,0,0-.47-1.75,9,9,0,0,1-.46-1,1.08,1.08,0,0,0-1-.55c-.7.13-1.09-.28-1.43-.8a4.28,4.28,0,0,1-.54-1.2,1.83,1.83,0,0,0-.33-.71.46.46,0,0,0-.62-.13c-.22.14-.41.33-.62.48a.3.3,0,0,1-.47-.19c0-.26,0-.52-.07-.78a.21.21,0,0,0-.25-.19,1.88,1.88,0,0,0-.43.09,3.27,3.27,0,0,1-.87.13,1.76,1.76,0,0,1-1.68-.91,2.79,2.79,0,0,1-.25-.46c-.25-.68-.41-.83-1.07-.37a1.8,1.8,0,0,1-.39.2.3.3,0,0,1-.41-.21,1.5,1.5,0,0,1-.06-.34,14.91,14.91,0,0,1,.07-2.72,4.46,4.46,0,0,0,0-1.14,1.28,1.28,0,0,0-1.3-1.28c-.26,0-.53,0-.79-.05-.41,0-.56-.26-.46-.67a6.81,6.81,0,0,1,.34-.9c.11-.27.25-.53.37-.79s.13-.29,0-.41-.33,0-.48.06a1.55,1.55,0,0,0-.55.56c-.2.32-.39.66-.57,1s-.21.42-.33.62-.19.31-.4.27a.48.48,0,0,1-.37-.34c-.09-.25-.16-.5-.22-.76-.13-.46-.35-.78-.9-.79-.32,0-.4-.16-.25-.47a11.85,11.85,0,0,1,.68-1.43.37.37,0,0,0,0-.55.62.62,0,0,0-.73-.12,1.2,1.2,0,0,0-.3.31c-.11.17-.19.36-.3.54s-.19.43-.43.36-.2-.33-.23-.53a6.1,6.1,0,0,1,.18-2.35,7.77,7.77,0,0,1,.56-1.57c.16-.34.31-.7.46-1a.74.74,0,0,0-.13-1,.44.44,0,0,1-.08-.49,1.11,1.11,0,0,1,.09-.25,1.37,1.37,0,0,0-.22-1.62c-.21-.28-.42-.57-.65-.83a2.62,2.62,0,0,1-.69-2.19,3.2,3.2,0,0,0,0-.7c-.08-1.05-.17-2.1-.26-3.15a9.47,9.47,0,0,1,.21-3,3.56,3.56,0,0,0-.14-2.24,4.86,4.86,0,0,1-.32-1.18c0-.23-.12-.26-.37-.13-.05,0-.09.08-.14.1s-.29.07-.37-.09a3.22,3.22,0,0,1-.36-1.61.18.18,0,0,1,.25-.17,6,6,0,0,1,.64.28c.53.26,1,.53,1.57.78.24.11.39,0,.47-.23s.14-.57.22-.85a3.12,3.12,0,0,1,.2-.58.78.78,0,0,1,1.17-.39c.41.21.8.49,1.24.66.21.09.26.3.31.5s.1.51.16.77a.17.17,0,0,0,.12.1.18.18,0,0,0,.15-.06c.14-.26.26-.52.41-.78s.37-.3.53,0,.34.6.52.92c.31-.22.23-.56.4-.79s.25-.11.3,0a3.32,3.32,0,0,1,.21.48c.08.25.13.51.22.76.24.63.55.74,1.15.41l.15-.09a.56.56,0,0,0,.28-.59c0-.35-.07-.7-.09-1,0-.13-.05-.33.14-.35s.22.17.28.29.24.54.35.8l1.06,2.51c.09.22.19.43.3.64a.29.29,0,0,0,.18.15c.1,0,.12-.1.12-.19s0-.29,0-.44a2.65,2.65,0,0,1,0-.35.33.33,0,0,1,.27-.31.27.27,0,0,1,.3.13,3.13,3.13,0,0,1,.24.47c.14.32.26.65.4,1a1.36,1.36,0,0,0,.24.36.34.34,0,0,0,.57-.13,1.75,1.75,0,0,0-.07-1.45c-.11-.24-.26-.46-.38-.69a.3.3,0,0,1,.14-.44,3.27,3.27,0,0,1,.48-.2c.49-.16.6-.09.74.42,0,.17.08.34.14.51a2.25,2.25,0,0,0,1.17,1.36,7.39,7.39,0,0,0,1.14.45,23.81,23.81,0,0,1,2.69.81c.24.1.42,0,.36-.3s-.19-.8-.3-1.19a53.18,53.18,0,0,0-2.17-5.85c-.19-.46-.39-.92-.57-1.38a2.53,2.53,0,0,1-.12-.42.18.18,0,0,1,.06-.15.16.16,0,0,1,.16,0l.71.77c.12.13.25.11.36,0s.13-.4.36-.48.39.09.58.16a.58.58,0,0,0,.18,0c.15-.15.06-.32,0-.48a1.65,1.65,0,0,1,.56-1.58,16.83,16.83,0,0,1,1.87-1.3.38.38,0,0,1,.49.06,4.06,4.06,0,0,1,.49.5,4,4,0,0,1,.73,1.58c.16.68.31,1.37.46,2.06,0,.09,0,.2,0,.24s-.21-.06-.27-.15-.22-.35-.33-.52a.25.25,0,0,0-.3-.12.27.27,0,0,0-.16.29,5.81,5.81,0,0,0,.48,2.13A9.12,9.12,0,0,0,206.6,194c.55.68,1.15,1.32,1.73,2a2.85,2.85,0,0,0,.25.25c.21.19.33.19.52,0,0,0,.07-.1.11-.14.27-.28.35-.29.66-.07.14.1.27.22.42.32a.32.32,0,0,0,.23.07.26.26,0,0,0,.11-.2,5,5,0,0,0,0-.87,9.8,9.8,0,0,0-2.61-5.27,1.69,1.69,0,0,1-.49-1.68,23.58,23.58,0,0,1,1.32-4.27,1.82,1.82,0,0,1,.27-.44.18.18,0,0,1,.3,0c.2.32.35.67.8.74.08,0,.17.16.21.26a5.71,5.71,0,0,1,.2.67l2.24,8.95c0,.2.1.4.15.6.19.68.32.74,1,.44.49-.21.56-.35.41-.89-.2-.76-.42-1.52-.63-2.29-.09-.31-.18-.62-.25-.93-.1-.49.07-.63.56-.46.2.07.26,0,.31-.15a3.39,3.39,0,0,0,.09-.34,2.27,2.27,0,0,1,.88-1.47.93.93,0,0,0,.38-.92c0-.23-.06-.46-.08-.7q0-.74-.08-1.49a.8.8,0,0,1,.35-.76,1.68,1.68,0,0,0,.65-2c-.05-.26-.13-.51-.19-.77a2.7,2.7,0,0,1-.06-.43.35.35,0,0,1,.3-.37.3.3,0,0,1,.34.22,4.5,4.5,0,0,1,.16.59c.21,1.06.44,2.12.62,3.19.1.59.33,1,1,1.08a1.83,1.83,0,0,1,1.16.88,15.11,15.11,0,0,0,1.61,1.74c.16.15.32.41.59.24s.11-.37.07-.56l-.52-2.49a.78.78,0,0,1,.22-.8.36.36,0,0,1,.55,0c.17.16.31.35.47.52s.34.41.52.6a.22.22,0,0,0,.37,0,1.84,1.84,0,0,0,.14-.22.5.5,0,0,1,.72-.27l.17.05a.25.25,0,0,0,.34-.19,7.2,7.2,0,0,0,.13-.78c0-.36,0-.63-.46-.71a.67.67,0,0,1-.56-.69c0-.76,0-1.52,0-2.28,0-.28.24-.39.51-.29a1.61,1.61,0,0,1,1.08,1.72,4.42,4.42,0,0,1-.19.94.64.64,0,0,0,.31.82,1.28,1.28,0,0,0,.57.31,3.63,3.63,0,0,0-.11-1.14l-.62-3.28q-.06-.3-.1-.61a.26.26,0,0,1,.12-.3.29.29,0,0,1,.32.08l.47.4c.18.15.35.31.54.45.37.28.51.23.58-.2a2.27,2.27,0,0,1,.18-.76c.07-.12.19-.17.29-.07a3.4,3.4,0,0,1,.4.46l1.49,2c.05.07.13.12.22.06a.21.21,0,0,0,.06-.16,3.85,3.85,0,0,0-.62-1.9,2.16,2.16,0,0,0-1.37-.89,9.16,9.16,0,0,0-1.47-.24,2,2,0,0,1-2-1.68,15.44,15.44,0,0,1-.39-3.57,1.34,1.34,0,0,1,.49-1.08.69.69,0,0,1,.81-.11,2.87,2.87,0,0,1,.71.51l1.07,1c.15.14.26.32.47.38a1.84,1.84,0,0,0,.08-1.16.66.66,0,0,0-.23-.25,2.32,2.32,0,0,0-.4-.19,4.68,4.68,0,0,1-2.39-2.23,14.15,14.15,0,0,1-.78-1.77.88.88,0,0,1,0-.68c.33-.75.65-1.51,1-2.25.1-.23.34-.2.46.06.37.76.73,1.53,1.1,2.3.11.24.23.47.36.7a.17.17,0,0,0,.15,0,.17.17,0,0,0,.11-.12,1.32,1.32,0,0,0,0-.43c-.13-.45-.27-.9-.41-1.34,0-.14-.12-.27-.16-.41s-.31-.61,0-.79.44.22.63.38q1.17,1,2.32,2a1.49,1.49,0,0,0,.86.39c.67.08,1.33.21,2,.32a.22.22,0,0,0,.16,0c.08-.07,0-.15,0-.23-.16-.28-.33-.55-.47-.84a.53.53,0,0,1,.17-.7c.18-.15.38-.27.57-.41.38-.28.42-.43.17-.8s-.66-.89-1-1.33c-.13-.16-.28-.3-.41-.46a1.49,1.49,0,0,1-.16-1.87,3.5,3.5,0,0,0,.29-.54.71.71,0,0,0-.29-.92,6.21,6.21,0,0,0-.69-.38l-2.19-1.12a1.38,1.38,0,0,1-.35-.26.13.13,0,0,1,0-.21c.4-.09.8-.15,1.2-.24a.32.32,0,0,0,.21-.13c.06-.12,0-.22-.12-.29a2.38,2.38,0,0,0-1.18-.54,8.88,8.88,0,0,1-3.85-2c-.26-.19-.23-.39.05-.54l.16-.08c.68-.33.68-.33.18-.93a11.64,11.64,0,0,1-1.57-2.32,7.43,7.43,0,0,1-.67-4,1.65,1.65,0,0,1,.08-.34.25.25,0,0,1,.42-.11c.26.28.5.57.76.85.09.11.17.24.33.26s.07-.08,0-.15c-.09-.27-.31-.51-.18-.83s.38-.35.59-.5a.38.38,0,0,0,.07-.61,8.6,8.6,0,0,0-.73-.62,2.36,2.36,0,0,1-.93-1.54.28.28,0,0,1,.28-.36H224c.14,0,.31.06.38-.1s-.06-.27-.13-.4c-.18-.3-.38-.59-.54-.9s0-.41.25-.39l.61.06a.17.17,0,0,0,.13-.08.17.17,0,0,0,0-.16,4.43,4.43,0,0,0-.41-.32c-.19-.13-.4-.25-.59-.39a.93.93,0,0,1-.18-1.51,2.18,2.18,0,0,1,1-.71c.44-.16.87-.34,1.32-.49a1.18,1.18,0,0,0,.75-.69c.14-.32.29-.64.45-1a.3.3,0,0,1,.51-.08c.17.16.32.34.48.51a4.7,4.7,0,0,0,.44.42.29.29,0,0,0,.33,0,.25.25,0,0,0,.12-.3,31.86,31.86,0,0,0-1.34-4.45,5.28,5.28,0,0,0-.92-1.39,31.4,31.4,0,0,0-4-3.92,11.28,11.28,0,0,0-5.14-2.34,13,13,0,0,0-2-.1c-.37,0-.72,0-.82.47l-1.31,1.17c-.14.13-.36.2-.4.49a3.91,3.91,0,0,0,.9.23l2.84.56c.09,0,.17.07.13.18a.23.23,0,0,1-.11.13c-.1,0-.22.08-.33.12s-.59,0-.66.33.27.35.4.53a1.36,1.36,0,0,1,.25,1.25,2.78,2.78,0,0,0,.4,2.34c.22.38.44.76.65,1.15a6.21,6.21,0,0,0,1.1,1.47,5.72,5.72,0,0,1,.47.52.29.29,0,0,1,.06.24c-.06.13-.19.1-.3.07a5.66,5.66,0,0,1-.57-.22.68.68,0,0,0-.81.13c-1,.86-1.06.73-.23,1.76.59.73.55.84-.32,1.1l-1.61.46a.17.17,0,0,0-.14.19.23.23,0,0,0,.09.14c.29.2.59.38.88.59a.32.32,0,0,1,.1.47,19.14,19.14,0,0,1-1.5,2.05,1,1,0,0,1-.81.27,2.13,2.13,0,0,1-1.08-.32,6.12,6.12,0,0,1-1.82-1.76c-.18-.24-.09-.45.2-.53a5.05,5.05,0,0,0,.51-.13c.17-.07.51,0,.46-.26s-.33-.19-.54-.21l-1.05,0c-.23,0-.31-.17-.22-.36s.39-.33.28-.5-.42,0-.62.05-.4,0-.6-.19a2.1,2.1,0,0,0-2-.5,13.11,13.11,0,0,0-3.7,1.79.23.23,0,0,0,0,.38,1.31,1.31,0,0,0,.88.34c.41,0,.82,0,1.23,0s.47.16.43.5a2.22,2.22,0,0,1-.28.83,1.23,1.23,0,0,1-1.15.68,3.78,3.78,0,0,1-1.37-.29l-1.23-.46a1.57,1.57,0,0,0-1.58.23c-.12.09-.23.18-.36.26a.72.72,0,0,1-.67.07,3.44,3.44,0,0,0-.33-.13,1.14,1.14,0,0,0-1.39.46,3.26,3.26,0,0,0-.28.44,6.52,6.52,0,0,1-1.71,2c-.67.53-1.36,1-2.06,1.5-.37.26-.54.2-.74-.23s-.32-.75-.49-1.13a.15.15,0,0,0-.28,0,1.72,1.72,0,0,0-.12.23,48.73,48.73,0,0,0-1.9,5.19c-.19.71-.35,1.42-.53,2.13a1.27,1.27,0,0,0,.22,1.16l.59.76c.11.14.23.26.34.4a.39.39,0,0,1,.07.48.43.43,0,0,1-.53.18l-.42-.11c-.14,0-.3-.13-.39,0s0,.28.11.41a1.26,1.26,0,0,0,.66.55,5.4,5.4,0,0,0,.58.19,2.52,2.52,0,0,1,1.32.82l.71.78a6.59,6.59,0,0,0,.5.49c.11.09.23.21.39.12s.12-.19.12-.31,0-.47,0-.7,0-.41,0-.61c0-.53.18-.76.77-.65a.66.66,0,0,0,.17,0,2.91,2.91,0,0,1,2.68,1.38c.53.7,1.05,1.41,1.6,2.1.31.39.64.76,1,1.13a1.31,1.31,0,0,0,.34.26.29.29,0,0,0,.24,0,.25.25,0,0,0,.11-.21,5.75,5.75,0,0,0-.19-.68l-1.22-3.67a7.62,7.62,0,0,1-.21-.76.38.38,0,0,1,.21-.44c.26-.13.53-.24.8-.36.48-.22,1-.42,1.43-.67a1.8,1.8,0,0,0,1-2.05c-.08-.46-.14-.93-.2-1.39a2.56,2.56,0,0,1,0-.44.26.26,0,0,1,.39-.21,1.43,1.43,0,0,1,.72.62c.12.2.22.41.33.62.76,1.52,1.51,3,2.28,4.56.69,1.36,1.41,2.7,2.11,4.05a21.18,21.18,0,0,0,2.74,3.86l.62.74c.25.29.38.28.59-.07s.37-.67.57-1a.49.49,0,0,0-.07-.7.5.5,0,0,1-.1-.57c0-.14.08-.28.13-.42a2.59,2.59,0,0,0-.6-2.61c-.23-.26-.5-.5-.73-.76s-.2-.38,0-.59a6.56,6.56,0,0,1,.55-.43.65.65,0,0,0,.24-.84,2.92,2.92,0,0,0-.82-1.43l-.12-.13c-.47-.55-.48-.91.13-1.31a1.22,1.22,0,0,0,.51-1.45,4.43,4.43,0,0,0-.44-1.14,4.63,4.63,0,0,1-.28-.64.36.36,0,0,1,.14-.39.33.33,0,0,1,.41-.05c.22.14.44.29.65.44l1.36,1a.16.16,0,0,0,.23,0,.25.25,0,0,0,0-.16,1.35,1.35,0,0,0-.43-.75c-.23-.23-.47-.44-.7-.67a1.76,1.76,0,0,1-.51-.71.37.37,0,0,1,0-.25.16.16,0,0,1,.23,0,9.12,9.12,0,0,1,2.39,1.75,2.31,2.31,0,0,0,1,.72l.16.07c.83.41.9.59.64,1.53a.68.68,0,0,0,0,.14c.27.2.63.16,1,.26s.48.09.51.39-.12.43-.48.54a5.73,5.73,0,0,1-1.63.31,2.69,2.69,0,0,1-1.8-.58c-.07-.05-.17-.08-.23,0a.21.21,0,0,0,0,.16,2.2,2.2,0,0,0,1.18,1.24c.9.36,1.78.74,2.67,1.12.35.15.7.3,1,.47a1.15,1.15,0,0,1,.53.45.32.32,0,0,1,0,.24.26.26,0,0,1-.2.13,7.68,7.68,0,0,1-.78-.06l-1.48-.2a1.34,1.34,0,0,0,.39.83c.67,1,1.35,2,2,3,.12.17.23.34.34.52a.41.41,0,0,1-.19.65.35.35,0,0,1-.48-.07c-.24-.29-.46-.59-.71-.92-.25.19-.14.4-.1.58.23,1.09.48,2.17.71,3.26a4.38,4.38,0,0,1,.1.69c0,.26-.15.41-.43.47a.35.35,0,0,1-.43-.21,6.83,6.83,0,0,1-.25-.84c-.25-1.08-.49-2.17-.74-3.26,0-.17-.09-.34-.14-.51s-.08-.24-.22-.24-.21.11-.26.21a4.65,4.65,0,0,0-.28.55,7,7,0,0,0-.32,4.64,10.76,10.76,0,0,1,.33,4.44c0,.32-.05.64-.09,1s-.19.44-.49.33a1.09,1.09,0,0,0-.25-.07.25.25,0,0,0-.3.25,6.14,6.14,0,0,0,0,.7c0,.88,0,1.76,0,2.64,0,.32.13.71-.27.92-.37-.13-.33-.51-.46-.79a2.21,2.21,0,0,1-.14-.42,2.42,2.42,0,0,0-1-1.58,2.81,2.81,0,0,1-.84-1c-.18-.3-.36-.61-.55-.9a.25.25,0,0,0-.44,0,4.82,4.82,0,0,0-1.1,1.47A8.19,8.19,0,0,1,210,176a2.85,2.85,0,0,1-3.25,1.35c-.43-.09-.84-.24-1.27-.36a5.77,5.77,0,0,0-1.37-.28,2,2,0,0,0-1.52.56c-.23.22-.45.46-.67.69-.4.41-.43.41-.88.12-.17-.11-.33-.24-.51-.34a1.4,1.4,0,0,0-2,.32c-.16.17-.29.37-.44.54s-.34.31-.69.15a2.86,2.86,0,0,0-1.09-.32,1.09,1.09,0,0,0-1.09.59c-.15.28-.26.59-.39.88s-.25.66-.41,1a2.39,2.39,0,0,1-2.86,1.13c-.33-.12-.65-.27-1-.4a.43.43,0,0,0-.64.24,1.28,1.28,0,0,0,0,1.1,3.23,3.23,0,0,0,.52.81c.26.31.52.63.77,1a2,2,0,0,1,.41.87.19.19,0,0,1-.09.22.2.2,0,0,1-.17,0c-.27-.17-.55-.34-.81-.53l-4.19-3c-.16-.12-.34-.22-.5-.33-.22.11-.12.27-.09.39a2.4,2.4,0,0,1-.14,1.38,6.57,6.57,0,0,1-1,1.67c-.25.33-.44.34-.72.05s-.53-.62-.8-.93-.31-.35-.48-.51a.13.13,0,0,0-.22,0c-.08.22-.15.44-.21.67a.87.87,0,0,1-.23.46.27.27,0,0,1-.32.05.32.32,0,0,1-.15-.19,2.94,2.94,0,0,1,0-.52,1.74,1.74,0,0,0-1.11-2l-.4-.17a1,1,0,0,1-.53-.55,2.39,2.39,0,0,1-.2-1.28c0-.32.11-.64.14-1a3.36,3.36,0,0,0-1.08-2.93c-.27-.25-.45-.25-.66,0-.38.52-.74,1.05-1.11,1.59-.15.23-.12.43.13.48.8.18.94.75,1,1.46a7.18,7.18,0,0,1-.47,2.93,5,5,0,0,1-.26.55c-.1.17-.18.42-.41.42s-.22-.29-.29-.47,0-.24-.14-.31c-.24.1-.28.35-.42.53a2.91,2.91,0,0,1-2.52,1.18,1,1,0,0,1-.9-.57,6,6,0,0,1-.65-2.53c0-.88-.06-1.75-.16-2.63a8.49,8.49,0,0,0-1-3.06,1,1,0,0,0-.92-.56,8.75,8.75,0,0,1-.87-.08A.76.76,0,0,1,168,175l-.64-1.64c-.29-.74-.58-1.47-.85-2.21a1.35,1.35,0,0,0-.8-.86,4,4,0,0,1-2.15-2.2,12.51,12.51,0,0,1-.66-2.09,1.36,1.36,0,0,1,.16-1.1,17,17,0,0,1,1.5-1.95.24.24,0,0,1,.42.09c.27.71.53,1.43.8,2.14.16.44.33.88.51,1.31a.25.25,0,0,0,.37.11,10.72,10.72,0,0,0,1.9-1.81.27.27,0,0,0,0-.24.17.17,0,0,0-.24,0c-.23.12-.46.26-.7.37s-.45,0-.48-.3a1.23,1.23,0,0,1,.56-1.28c1.24-.84,2.45-1.7,3.68-2.56a3.05,3.05,0,0,0,.36-.25c.24-.22.66-.28.64-.72-.36-.11-.61.15-.88.28-1.71.76-3.41,1.55-5.12,2.32a1.34,1.34,0,0,1-.66.2c-.13,0-.27-.23-.19-.33a2.25,2.25,0,0,1,.28-.33l.89-.82c-.12-.24-.27-.12-.39-.1l-1.83.19a.16.16,0,0,1-.19-.14.22.22,0,0,1,0-.16,5.17,5.17,0,0,1,.46-.41l1.74-1.34a3.07,3.07,0,0,0,.38-.36.17.17,0,0,0,0-.16.21.21,0,0,0-.15-.07.56.56,0,0,0-.17,0L165,159a3.29,3.29,0,0,0-1.83,1,.46.46,0,0,1-.68.11c-.31-.19-.46-.1-.61.22s-.18.43-.28.64a.17.17,0,0,1-.14.07.19.19,0,0,1-.13-.1,1.38,1.38,0,0,1-.08-.34c-.25-2.36-.49-4.72-.75-7.07-.2-1.83-.43-3.66-.63-5.5s-.39-3.67-.59-5.5c-.07-.61-.15-1.22-.19-1.83a2.13,2.13,0,0,0-.93-1.7c-.34-.23-.64-.51-1-.77a4,4,0,0,1-1-1.49,11.81,11.81,0,0,1-.74-3.76,3.05,3.05,0,0,1,.84-2.5,3.59,3.59,0,0,0,.33-.41.77.77,0,0,0,.12-.75,4,4,0,0,1-.12-2.33.65.65,0,0,0-.15-.65c-.34-.33-.25-.67-.09-1,.49-1.16,1-2.32,1.45-3.49l.2-.49a1.43,1.43,0,0,0,0-1.35,1.52,1.52,0,0,1-.15-.59,1.94,1.94,0,0,0-.21-.84.8.8,0,0,1,.09-.91,2.49,2.49,0,0,1,.28-.34,2.08,2.08,0,0,0,.41-2.29,9.09,9.09,0,0,0-.38-.89c-.11-.24-.23-.47-.35-.71a.83.83,0,0,1,0-.76,5.15,5.15,0,0,0,.4-2.49,6.49,6.49,0,0,1,.19-1.57,17.07,17.07,0,0,0,.37-2.25,9.56,9.56,0,0,1,.26-1.47,2.86,2.86,0,0,1,1.13-1.73,42.24,42.24,0,0,1,4.23-2.83,7,7,0,0,1,1.12-.5,3.59,3.59,0,0,0,1.76-1.25,13.81,13.81,0,0,1,2.25-2.21,1.28,1.28,0,0,1,1.38-.29,1.15,1.15,0,0,0,1.08-.14l.75-.46a3.6,3.6,0,0,1,4-.06,7.38,7.38,0,0,0,1.18.57,1.74,1.74,0,0,0,2.16-.65c.11-.14.2-.29.3-.44a2.53,2.53,0,0,1,2.08-1.13c.29,0,.59,0,.88,0a2.63,2.63,0,0,0,1.49-.47c.54-.36,1-.74,1.57-1.12.17-.12.32-.26.49-.37a1,1,0,0,1,1.29.11,1.75,1.75,0,0,0,1.82.47,18.11,18.11,0,0,0,4.29-1.23c.54-.23,1.09-.43,1.63-.66a2.09,2.09,0,0,1,1.7,0,5.19,5.19,0,0,1,.56.24,5,5,0,0,0,1.76.5c.55.08,1.1.14,1.66.19a40.37,40.37,0,0,0,4.91.21c.47,0,.94,0,1.41,0a1.81,1.81,0,0,1,1.16.33,2.08,2.08,0,0,0,1.49.38,7.33,7.33,0,0,1,2.84.45,20.46,20.46,0,0,0,2.77.85,5.56,5.56,0,0,0,.6.1c1,.07,2,.14,3.07.18a9.32,9.32,0,0,1,2.08.33,2.85,2.85,0,0,1,.57.22.8.8,0,0,1,.45.79,4.52,4.52,0,0,1-.08.52c-.09.57,0,.73.63.76a8.38,8.38,0,0,1,1.57.13,12.14,12.14,0,0,1,1.83.6c.43.18.87.35,1.28.57a8.27,8.27,0,0,0,2.77.81,23.74,23.74,0,0,1,3.77.84,2.7,2.7,0,0,1,1.59,1,1.15,1.15,0,0,0,.65.43,14.36,14.36,0,0,1,3.07,1.51,19.56,19.56,0,0,0,4.59,2.18,6,6,0,0,1,.73.29,5,5,0,0,1,2.23,1.79,1.81,1.81,0,0,0,1,.78,15.25,15.25,0,0,1,5,2.9,2.1,2.1,0,0,1,.79,1.13,4.16,4.16,0,0,0,2.16,2.64c.41.23.82.45,1.24.66a18.58,18.58,0,0,1,3,1.91,9.38,9.38,0,0,0,2.48,1.48,2.43,2.43,0,0,1,1.34,1.21,4.6,4.6,0,0,0,1.7,1.86,9.86,9.86,0,0,1,3,3c.42.63.84,1.28,1.21,1.94.87,1.56,1.86,3.05,2.88,4.52a14.71,14.71,0,0,0,2.55,2.89,14.38,14.38,0,0,1,1.8,2,9.57,9.57,0,0,0,2.15,2.05,3.07,3.07,0,0,0,1.28.53c1.54.21,3.07.47,4.6.66s3,.32,4.45.48l.35,0c1.64.07,3.28.13,4.91.21l5.43.3.7,0c1.55,0,3.11,0,4.66,0,1.76,0,3.51-.11,5.26-.22s3.5-.24,5.25-.35c2.31-.14,4.62-.22,6.93-.36,1.58-.1,3.16-.13,4.74-.2a13.38,13.38,0,0,1,4.17.51,22.24,22.24,0,0,1,4.79,2,34.38,34.38,0,0,1,5.48,3.64,37.87,37.87,0,0,1,4.37,4.32,64.69,64.69,0,0,1,4.13,5.36c1.19,1.7,2.52,3.31,3.79,5,.86,1.11,1.71,2.23,2.46,3.42a28.52,28.52,0,0,1,3,6.81,28.08,28.08,0,0,1,1.25,8.4c0,1.55,0,3.11,0,4.66s-.18,3.33-.27,5c-.06,1.05-.1,2.1-.17,3.16a110.56,110.56,0,0,0-.18,12.56c.12,2.58.08,5.15.18,7.73.15,3.48,0,7,.11,10.45,0,1.43,0,2.87.13,4.3s.05,3.1.05,4.66a15.76,15.76,0,0,0,.37,3.4,15,15,0,0,0,2.33,5.37,11.31,11.31,0,0,0,1.34,1.51,7.11,7.11,0,0,1,2.05,4,10.29,10.29,0,0,1,0,3c-.31,2.26-.56,4.53-.67,6.81-.09,1.72-.21,3.45-.31,5.17a5.13,5.13,0,0,1-.27,1.29c-.17.53-.36,1.05-.53,1.58a31.13,31.13,0,0,0-1.35,6.25,40,40,0,0,0-.16,5,19.55,19.55,0,0,1-.1,2.81,3.46,3.46,0,0,0,.41,2.21,1.27,1.27,0,0,1-.28,1.74,5.2,5.2,0,0,1-3.16,1.58c-1.72.2-3.44.28-5.16.39-2.17.13-4.34.06-6.5.19s-4.15.15-6.23.14a25.22,25.22,0,0,1-3.23-.29c-1.28-.17-2.54-.41-3.82-.54a19.31,19.31,0,0,0-3.77,0c-1.78.16-3.55.4-5.33.5-1.37.08-2.75.08-4.12.17-2.25.15-4.5.26-6.73.62-2.05.33-4.12.53-6.18.78l-7.06.82c-2.15.25-4.31.46-6.45.77s-4.51.7-6.76,1.11c-3.94.73-7.87,1.54-11.81,2.28-2.91.54-5.82,1-8.76,1.35-1.34.15-2.68.28-4,.35a24,24,0,0,0-3.9.6c-1.65.38-3.3.81-5,1-1.25.16-2.5.31-3.74.48-1.68.23-3.37.43-5,.73-1.27.22-2.55.33-3.84.43s-2.87.13-4.3.22c-1.05.06-2.1.16-3.15.25-.38,0-.76.07-1.14.09-5.12.23-10.25.16-15.37.22a42.88,42.88,0,0,1-9.68-.93c-1.11-.24-2.25-.36-3.38-.5a27,27,0,0,1-6.25-1.35,11.31,11.31,0,0,1-2.13-1,3.1,3.1,0,0,1-.73-.62,1.13,1.13,0,0,1,.16-1.7,3.4,3.4,0,0,1,.67-.41c.66-.32,1.32-.62,2-.93l.88-.39a3,3,0,0,0,1.63-1.75,13.22,13.22,0,0,1,1.64-3.1,10.89,10.89,0,0,1,4.53-3.65A7,7,0,0,1,212,278c.29,0,.59,0,.88,0a2,2,0,0,0,1.84-1.5,6.52,6.52,0,0,0,.2-1.21c.2-1.63.52-3.24.86-4.84a22.82,22.82,0,0,0,.46-6.2,43.18,43.18,0,0,0-.6-4.79c-.46-2.59-.93-5.19-1.37-7.78a47.18,47.18,0,0,1-.66-6,16.23,16.23,0,0,0-.43-3c-.37-1.57-.74-3.13-1.11-4.7-.08-.36-.2-.69-.62-.75a.87.87,0,0,0-.86.51c-.19.3-.35.61-.54.9a1.26,1.26,0,0,1-.3.3.17.17,0,0,1-.23-.06C209.37,238.64,209.46,238.38,209.31,238ZM294,269.62a4.28,4.28,0,0,0,3.47-1.41,7.33,7.33,0,0,0,.78-.95q1.64-2.18,3.26-4.36c.42-.56.83-1.14,1.21-1.73a19.2,19.2,0,0,0,3.16-10.71c0-1,0-2.05,0-3.08a19.62,19.62,0,0,0-1.07-6.64q-.53-1.54-1-3.1a56.09,56.09,0,0,1-1.68-7.54c-.21-1.42-.33-2.85-.42-4.28a23,23,0,0,1,0-4,9.7,9.7,0,0,0-.75-4.54,1,1,0,0,0-1.15-.73c-.58.06-1.17.1-1.75.18a8.58,8.58,0,0,0-3.33,1.05c-.45.27-.87.59-1.3.9a25.79,25.79,0,0,1-7.23,3.73,19.26,19.26,0,0,1-8.49.83c-.7-.1-1.39-.21-2.08-.32a3.66,3.66,0,0,0-3.37,1.07,10.61,10.61,0,0,0-2.19,3.26,29.79,29.79,0,0,0-1.23,3.57c-.11.36-.23.73-.36,1.08a2,2,0,0,1-1.73,1.31c-.32,0-.64,0-1,0a4.75,4.75,0,0,0-.78.09.63.63,0,0,0-.55.83,6.44,6.44,0,0,0,.19.68,1.62,1.62,0,0,1-1.45,2.07,2.36,2.36,0,0,1-1.36-.25,8.16,8.16,0,0,1-1.25-.82c-.25-.2-.5-.41-.77-.59a2.1,2.1,0,0,0-1.67-.34,4.91,4.91,0,0,0-2.67,1.59,6,6,0,0,0-1.38,3q-.31,1.59-.68,3.18a87.28,87.28,0,0,1-4.55,14,36,36,0,0,0-1.34,3.53,12.78,12.78,0,0,0-.66,4.32,5.1,5.1,0,0,0,0,.61,11.59,11.59,0,0,1-.28,4.62,27.22,27.22,0,0,1-1.2,3.67c-.57,1.47-1.15,2.95-1.63,4.45a25.86,25.86,0,0,0-1.1,5.32,4.31,4.31,0,0,0,.19,1.65,1.49,1.49,0,0,0,1,1,4.09,4.09,0,0,0,1.55.25c.64,0,1.28-.09,1.92-.17l3.92-.47c2.15-.24,4.29-.6,6.42-1,1.93-.37,3.82-.89,5.72-1.38a17.06,17.06,0,0,1,3.63-.59,13.49,13.49,0,0,0,3.61-.66c1.14-.36,2.28-.76,3.44-1.07a3.39,3.39,0,0,0,1.84-1.11,8.31,8.31,0,0,1,3.07-2.29l1.44-.65a3,3,0,0,0,1.75-2.17c0-.23.08-.46.14-.69a5.76,5.76,0,0,1,2.06-3.28,7.87,7.87,0,0,1,4.72-1.66,10.5,10.5,0,0,1,3.21.38A6.36,6.36,0,0,0,294,269.62Zm24.64,6.64v-.06H320a16.12,16.12,0,0,1,3,.14c1.88.31,3.74.67,5.64.85,1.37.13,2.74.27,4.11.28a44.5,44.5,0,0,0,4.74-.11c.9-.09,1.8-.18,2.71-.24a7.42,7.42,0,0,0,1-.17,1.07,1.07,0,0,0,.87-.88,7.23,7.23,0,0,0,.11-.78,5.62,5.62,0,0,1,3.33-4.72,6.55,6.55,0,0,1,2.1-.61,2,2,0,0,0,1.83-1.51c.32-.94.75-1.84,1.13-2.76a44.34,44.34,0,0,0,1.66-4.44,12.19,12.19,0,0,0,.55-3.63,48.3,48.3,0,0,0-.59-7.52,21.74,21.74,0,0,0-2.78-7.82,86.43,86.43,0,0,1-4.35-8.52c-.62-1.33-1.29-2.63-1.93-3.94a3.24,3.24,0,0,0-.17-.31c-.4-.63-.74-.67-1.25-.15l-.17.2-.89,1.09c-1.83,2.29-3.73,4.51-5.74,6.65a58.12,58.12,0,0,1-9,7.88,4.3,4.3,0,0,0-.48.38.94.94,0,0,0-.25,1.19c.1.21.22.41.32.62A5.36,5.36,0,0,1,326,251a8.36,8.36,0,0,1-1.1,2.57c-.34.55-.72,1.07-1.06,1.62a6.34,6.34,0,0,0-1,2.23,14.16,14.16,0,0,1-1.23,3.65,20.74,20.74,0,0,1-1.92,3.35,3.13,3.13,0,0,1-2.09,1.34,2.28,2.28,0,0,0-1.72,1.23c-.17.31-.33.62-.5.93a7.62,7.62,0,0,1-4.8,4.09,9.67,9.67,0,0,0-3.89,2.48,1.07,1.07,0,0,0-.11.13c-.25.33-.14.64.27.7s1,.15,1.57.21l3.66.41a38.38,38.38,0,0,0,4.38.3ZM323,237.84c0,.29,0,.58,0,.88a4.42,4.42,0,0,0,0,.53c.07.53.45.69.87.34a6.72,6.72,0,0,0,.86-.87c.75-.9,1.59-1.71,2.4-2.56s1.86-2,2.74-3a99.37,99.37,0,0,0,7.43-9.89l.43-.66a2.23,2.23,0,0,0,.19-2c-.07-.19-.15-.38-.23-.57-.57-1.41-1.16-2.82-1.72-4.23a58.07,58.07,0,0,0-2.64-5.94c-.29-.54-.59-1.08-.91-1.6-.45-.74-.58-.74-1.05,0-.32.52-.62,1.06-.89,1.61-.61,1.2-1.17,2.43-1.79,3.62-.53,1-1,2-1.51,3.07a20.49,20.49,0,0,0-1.73,5.87,22.76,22.76,0,0,1-1,4.71,20.12,20.12,0,0,0-1,4.8C323.22,233.93,323.13,235.89,323,237.84ZM203.6,123.14a5.91,5.91,0,0,0,.09-.61.45.45,0,0,0-.09-.32c-.59-.54-1.1-1.3-2.09-.8l-.09,0a.33.33,0,0,1-.43-.31q-.09-.7-.14-1.4a1.17,1.17,0,0,1,.23-.83c.25-.32.51-.64.77-1a.37.37,0,0,1,.47-.12c.13.06.28.21.39.07s-.07-.31-.17-.43a3,3,0,0,0-.45-.42,1.44,1.44,0,0,0-1.72,0,6.51,6.51,0,0,0-.65.59c-.21.2-.41.42-.63.61a.37.37,0,0,1-.61,0c-.15-.18-.28-.38-.42-.56a5.12,5.12,0,0,0-2-1.57,1.44,1.44,0,0,0-2,.56c0,.05-.07.1-.09.15a1.34,1.34,0,0,1-1.08.77,2.29,2.29,0,0,0-1.87,1.66c-.13.39-.28.77-.37,1.17A7.21,7.21,0,0,1,189.3,123c-.48.63-.95,1.27-1.41,1.91a3.62,3.62,0,0,0-.58,1.17,7.74,7.74,0,0,1-.33.91,2.07,2.07,0,0,0,.28,2.15c.31.42.61.86.94,1.27.86,1,1.27,1,2.26.22.82-.66.87-.92.4-1.88s-.94-1.89-1.4-2.83c-.12-.24-.22-.48-.33-.72a.87.87,0,0,1,0-.76.35.35,0,0,1,.43-.2,1.73,1.73,0,0,1,.9.8l1.75,2.84c.14.22.28.45.43.66a.23.23,0,0,0,.42,0c.16-.31.3-.64.45-1a1.83,1.83,0,0,1,1.5-1.07,15.43,15.43,0,0,0,1.56-.26,2.85,2.85,0,0,1,1.72.11l1.56.58a3.55,3.55,0,0,0,2.49.09.94.94,0,0,1,1.15.39,1.79,1.79,0,0,1,.31,1.25.9.9,0,0,1-.48.78.58.58,0,0,0-.28.68,2.42,2.42,0,0,1-.09,1.3,7.41,7.41,0,0,0-.17.95.92.92,0,0,0,.14.67,4.21,4.21,0,0,1,.55,1.56,5.14,5.14,0,0,0,.21.76,1.36,1.36,0,0,0,1.43.94.19.19,0,0,0,.2-.14.2.2,0,0,0,0-.15,2.33,2.33,0,0,0-.26-.24,2,2,0,0,1-.72-1.89c0-.2.06-.41.09-.61a6,6,0,0,0,.17-2.09c0-.23.1-.38.34-.43s.35,0,.52-.06l1.83-.2a.3.3,0,0,0,.21-.12c.06-.12,0-.21-.13-.29l-.14-.1c-.26-.18-.54-.36-.79-.55a1.26,1.26,0,0,1-.52-1.31c0-.09,0-.17.06-.26,0-.29-.05-.38-.33-.35s-.62.25-.8-.06.16-.47.29-.69.11-.32-.1-.44-.2-.19-.07-.36.19-.28-.05-.4A2.22,2.22,0,0,1,203.6,123.14Zm33.31,36.39a1.59,1.59,0,0,0-.24-.83c-.24-.53-.47-1.07-.74-1.59a1.48,1.48,0,0,1-.08-1.27c.05-.14.08-.28.12-.42a2.87,2.87,0,0,0,0-1.64,19.18,19.18,0,0,0-.59-2,37,37,0,0,0-3.31-6.87c-.32-.52-.71-1-1.08-1.49-.07-.1-.14-.26-.37-.18l.36.8c.4.88.8,1.76,1.19,2.64.07.16.15.34,0,.49s-.33.08-.5.06a.68.68,0,0,1-.51-.31c-.16-.24-.32-.49-.46-.75-.68-1.19-1.36-2.39-2.05-3.58-.08-.14-.11-.34-.31-.38a.19.19,0,0,0-.09.22q.2,1.83.4,3.66s.07.08.11.13c.23-.07.22-.32.34-.47a.41.41,0,0,1,.2-.14c.09,0,.16.06.19.14a3.26,3.26,0,0,1,.11.33l1,4c0,.06,0,.11,0,.17s.11.37-.1.46-.33-.06-.46-.17a2.68,2.68,0,0,1-.81-1.23c-.15-.44-.27-.9-.4-1.35a2,2,0,0,0-.67-1.1c-.71-.57-1.4-1.15-2.11-1.72a.57.57,0,0,0-.23-.11.15.15,0,0,0-.12.09.81.81,0,0,0,.19.48l1.44,2.41c.22.38.45.75.66,1.14s.08.44-.23.51a4.28,4.28,0,0,1-.6.12c-.75.07-.67.34-.49.87l.75,2.16c.1.28.19.55.27.83s-.08.36-.28.3-.39-.13-.58-.19a.29.29,0,0,0-.31.13c-.28.36-.21.67.2.81a10,10,0,0,1,3.86,2.68,3.65,3.65,0,0,1,.44.55.4.4,0,0,1,0,.49c-.24.27-.16.45.08.66,1.3,1.14,2.56,2.32,3.92,3.39a1.44,1.44,0,0,0,.22.14s.07,0,.08,0,.08-.1.07-.14a3.22,3.22,0,0,0-.15-.31c-.27-.58-.25-.81.3-1.07a.85.85,0,0,0,.52-1q0-.39-.06-.79a1,1,0,0,1,0-.34.33.33,0,0,1,.19-.15.17.17,0,0,1,.16,0C236.58,159,236.7,159.2,236.9,159.53Zm-49.81,1.14c0-.47-.12-1.11-.14-1.75,0-1.21,0-1.52-1.43-2.11l-6.21-2.68a3.58,3.58,0,0,0-.49-.18.28.28,0,0,0-.34.2.85.85,0,0,0-.07.34c0,.55-.29.78-.76.92s-.72.25-1.08.38c-.11,0-.21.13-.17.26a.33.33,0,0,0,.17.18c.24.1.49.19.74.28l1.33.44c.16.06.39.1.4.29s-.25.29-.43.37-.44.16-.66.24l-1.05.44a3.39,3.39,0,0,0-1.81,2.36.7.7,0,0,0,.14.66,1.41,1.41,0,0,0,1,.61,2.38,2.38,0,0,1,1.81,1.1,6,6,0,0,0,2,1.62,1.52,1.52,0,0,0,.49.17,1.38,1.38,0,0,0,1.09-.24c.28-.21.56-.43.83-.65.95-.76.82-.75,1.63.17l.34.41c.69.83,1.38,1.67,2.08,2.5.1.12.21.34.42.23s.09-.27.07-.41a3,3,0,0,0-.43-1.23c-.27-.45-.56-.9-.84-1.34a4.27,4.27,0,0,1-.52-1.11,2,2,0,0,1,.06-1.29c.27-.72.51-.81,1-.27.17.17.32.52.61.37s.07-.43.09-.66S187.09,161,187.09,160.67Zm27.7,131.39a4.79,4.79,0,0,0,1.62-.31,1.79,1.79,0,0,0,1.06-1c.58-1.31,1-2.67,1.49-4,0-.08,0-.19,0-.24a.3.3,0,0,0-.24,0l-1.08.58a.42.42,0,0,1-.49,0,.43.43,0,0,1-.12-.55c.16-.37.35-.74.53-1.11.29-.6.59-1.21.88-1.81a.25.25,0,0,0-.21-.38,3,3,0,0,0-3.13,1.31,3.61,3.61,0,0,0-.63,1.8,5.36,5.36,0,0,1-.59,2c-.22.45-.44.89-.64,1.34a2.65,2.65,0,0,0-.22,1.28,1,1,0,0,0,.62.88A2.87,2.87,0,0,0,214.79,292.06Zm15.12-122.76c-.13.15-.25.32-.4.46s-.39.26-.7.06-.53-.36-.8-.54a.23.23,0,0,0-.32,0,.33.33,0,0,0-.06.33,1,1,0,0,0,.38.47,2,2,0,0,1,.71,1.07,7,7,0,0,0,1.72,2.92c.7.74,1.43,1.46,2.16,2.18.06.06.16.13.22.11s.05-.15,0-.23A23.56,23.56,0,0,1,232,174a4.21,4.21,0,0,0-.38-.79q-.35-.61-.73-1.2A6.13,6.13,0,0,1,229.91,169.31ZM172.74,134c0,.1.06.33.12.56a5.74,5.74,0,0,1,.22.85,1.54,1.54,0,0,0,.93,1.19.26.26,0,0,0,.4-.19c0-.29,0-.58,0-.87s.18-.5.56-.27l.52.31a.2.2,0,0,0,.25-.17,1.46,1.46,0,0,0-.06-.34c-.5-1.34-1-2.69-1.5-4-.2-.53-.51-.59-.91-.2a1,1,0,0,0-.33,1,2.1,2.1,0,0,0,.09.34,1,1,0,0,1-.12,1A1.28,1.28,0,0,0,172.74,134Zm20.84,40.51a1.33,1.33,0,0,0,.79-.2,5.24,5.24,0,0,1,1.47-.75.17.17,0,0,0,0-.29,4.37,4.37,0,0,0-.54-.28l-4.13-1.69a4.86,4.86,0,0,0-.49-.18.44.44,0,0,0-.53.2c-.11.19,0,.34.11.46l2.61,2.46A1,1,0,0,0,193.58,174.51Zm8.35-5.36h0c0,.47,0,.94,0,1.4,0,.66.07.72.69.94a3.14,3.14,0,0,0,.5.14.64.64,0,0,0,.72-.38,1.5,1.5,0,0,0,.14-.94,4.87,4.87,0,0,0-1.55-3,1,1,0,0,0-.14-.1.2.2,0,0,0-.33.14C201.92,168,201.93,168.57,201.93,169.15Zm-38.72-16.67a.47.47,0,0,0-.31.33,4.39,4.39,0,0,0-.2,1.73c0,1.23.3,2.44.22,3.67a.28.28,0,0,0,0,.09.27.27,0,0,0,.23.23.26.26,0,0,0,.27-.18,3.37,3.37,0,0,0,.42-1.42,6.91,6.91,0,0,1,.72-2.78c.1-.24.18-.49.26-.74a.17.17,0,0,0-.06-.15.2.2,0,0,0-.16,0,1,1,0,0,0-.22.14l-.89.71a2,2,0,0,1-.29.19.25.25,0,0,1-.17,0,.17.17,0,0,1-.13-.2C163,153.61,163.11,153.09,163.21,152.49Zm19.76,18a19.56,19.56,0,0,1,.17,2.64,8.73,8.73,0,0,0,0,.87,2.11,2.11,0,0,0,.16.59.29.29,0,0,0,.37.15,1.11,1.11,0,0,0,.88-1.15,7.66,7.66,0,0,0-.34-2.16,3.71,3.71,0,0,0-.67-1.22c-.14-.17-.26-.47-.52-.36S183,170.26,183,170.53Zm-18.67-13.82a5.37,5.37,0,0,0,.28,1.33.3.3,0,0,0,.43.18c.63-.23,1.25-.47,1.87-.73a1.45,1.45,0,0,0,.73-.6c.19-.32.1-.59-.27-.65-.8-.12-1.61-.2-2.42-.26C164.5,156,164.3,156.25,164.29,156.71Zm27-24.81a1.14,1.14,0,0,0-.76.34c-.73.64-.77.86-.26,1.7a4,4,0,0,0,.75,1,.71.71,0,0,0,.89.1,1.14,1.14,0,0,0,.45-.72.35.35,0,0,0-.25-.41c-.2,0-.4-.05-.6-.1a1.94,1.94,0,0,1-.4-.15.24.24,0,0,1,0-.37,1.58,1.58,0,0,1,.56-.24,4.75,4.75,0,0,0,.57-.21.16.16,0,0,0,.07-.23A1.25,1.25,0,0,0,191.25,131.9Zm37.34,155.39a2.41,2.41,0,0,0-.12-.79c-.08-.19-.29-.25-.41-.08a6.41,6.41,0,0,0-1.15,3.25,1.66,1.66,0,0,0,.42,1.21c.14.17.33.15.39-.06.24-.78.48-1.56.72-2.34A3.91,3.91,0,0,0,228.59,287.29ZM203.12,138.62v0c.5,0,1,0,1.49,0,.25,0,.59.13.71-.15s-.19-.46-.32-.68-.1-.14-.15-.21a.87.87,0,0,0-1-.37,20.3,20.3,0,0,0-2.76.84.74.74,0,0,0-.21.15.2.2,0,0,0,.06.3,1.63,1.63,0,0,0,.42.09Zm3.49,151.5c.06-.05.09-.07.09-.09q0-1.22-.07-2.44a3.79,3.79,0,0,0,0-.52,2.53,2.53,0,0,0-1-1.68.18.18,0,0,0-.31.15,8.63,8.63,0,0,0,.07,2.26A4.25,4.25,0,0,0,206.6,290.11ZM172.32,163c0-.15,0-.24,0-.33s0-.12,0-.18c0-.21-.18-.32-.37-.24a7.39,7.39,0,0,0-.78.39.89.89,0,0,0-.44,1,11.08,11.08,0,0,0,.8,2.23.76.76,0,0,0,.1.14.2.2,0,0,0,.3,0,1.44,1.44,0,0,0,.18-.67A23,23,0,0,1,172.32,163ZM211,287.42a.63.63,0,0,0,.17,0,3.07,3.07,0,0,0,.81-.66,22,22,0,0,0,1.66-2.14.25.25,0,0,0,0-.23.26.26,0,0,0-.23,0,3,3,0,0,0-1.34.95,8.51,8.51,0,0,0-1.15,2,.29.29,0,0,0,0,.16S210.94,287.4,211,287.42ZM222,275.69a.2.2,0,0,0-.24.1l-2.4,3.35a1,1,0,0,0-.11.24.09.09,0,0,0,0,.08s.11.08.15.06a1.56,1.56,0,0,0,.38-.2,6.49,6.49,0,0,0,2.22-3.38A.64.64,0,0,0,222,275.69ZM171.27,135.05h0c0-.23,0-.47,0-.7s.11-.56-.1-.65-.42.23-.56.43a2,2,0,0,0,.28,2.41.23.23,0,0,0,.16.05.18.18,0,0,0,.19-.15C171.24,136,171.25,135.52,171.27,135.05Zm40,155.08a2,2,0,0,0-.12-.33c-.21-.41-.44-.82-.66-1.22s-.3-.36-.56,0c-.83,1-.9.81.24,1.51l.52.31a1,1,0,0,0,.24.09C211,290.47,211.24,290.32,211.26,290.13ZM199.79,132.35c-.11.27-.22.54-.34.8a6.81,6.81,0,0,1-.43.76,4.68,4.68,0,0,1-.54.69,5.26,5.26,0,0,1-.68.55c-.21.15-.44.29-.78.5A3,3,0,0,0,199.79,132.35Zm-2.08,40.13a15.07,15.07,0,0,0,3.29-.32.24.24,0,0,0,.14-.1.3.3,0,0,0,0-.16s0-.05-.06-.06a.7.7,0,0,0-.25,0Z"/><path d="M281.64,405.42q.73-5,1.1-9.41t.37-8.39v-2.05a105.37,105.37,0,0,0-.66-10.66A56.47,56.47,0,0,0,280.4,365l-.51-1.68a42.16,42.16,0,0,0,8.86-2.05,56.94,56.94,0,0,0,9.59-4.47q-4.69,11-4.69,26.66v1.83q0,13.7,3.88,21.9l.73,1.83a40.67,40.67,0,0,0-6,1.13,43.45,43.45,0,0,0-5.2,1.76q-2.38,1-4.25,2a23.12,23.12,0,0,0-3,1.87q.51-2.56,1-5.09t.81-4.87l-15.82,10a45.79,45.79,0,0,1-6.23-2.2,60.06,60.06,0,0,1-7.14-3.66,76.33,76.33,0,0,1-7.47-5.09,59.13,59.13,0,0,1-7.14-6.48,57.23,57.23,0,0,1-6.15-7.84,40.75,40.75,0,0,1-4.47-9.16,63.42,63.42,0,0,1-4-20.87,50.91,50.91,0,0,1,1.72-12.89,64.91,64.91,0,0,1,4.76-12.67,59.49,59.49,0,0,1,7.21-11.17,44,44,0,0,1,9.08-8.46l16.26-10.47q2,.59,4.91,1.76a63.73,63.73,0,0,1,6.52,3.11,75.15,75.15,0,0,1,7.62,4.8,67.25,67.25,0,0,1,8.13,6.88,55.35,55.35,0,0,1,4.17,4.83L279,333.35a51.6,51.6,0,0,0-6.74-7.14,39.46,39.46,0,0,0-7.32-5,49.65,49.65,0,0,0-8.31-3.44,79.12,79.12,0,0,0-9.78-2.34l-.07.07q-6.3,3.66-9.59,19.41a94,94,0,0,0-2.2,19,58.39,58.39,0,0,0,1.1,11,47.23,47.23,0,0,0,3.77,11.39,48.54,48.54,0,0,0,18.57,20.51A61.1,61.1,0,0,0,281.64,405.42Z"/></svg>