<svg id="Hufflepuff" xmlns="http://www.w3.org/2000/svg" xmlns:xlink="http://www.w3.org/1999/xlink" viewBox="0 0 512 512"><defs><style>.cls-1{stroke-miterlimit:10;stroke-width:9px;fill:url(#Citrine);stroke:url(#Steel_Radial);}</style><linearGradient id="Citrine" x1="42.6" y1="255.63" x2="468.26" y2="255.63" gradientUnits="userSpaceOnUse"><stop offset="0" stop-color="#e5a31e"/><stop offset="0.09" stop-color="#e5a522"/><stop offset="0.18" stop-color="#e7aa2d"/><stop offset="0.27" stop-color="#e9b340"/><stop offset="0.36" stop-color="#ecc05b"/><stop offset="0.44" stop-color="#f0d07d"/><stop offset="0.5" stop-color="#f3dd99"/><stop offset="0.56" stop-color="#ebd18f"/><stop offset="0.66" stop-color="#d5af74"/><stop offset="0.8" stop-color="#b27a48"/><stop offset="0.97" stop-color="#81300c"/><stop offset="1" stop-color="#782200"/></linearGradient><radialGradient id="Steel_Radial" cx="255.43" cy="255.63" r="225.49" gradientUnits="userSpaceOnUse"><stop offset="0" stop-color="#e5e2df"/><stop offset="0" stop-color="#f1efee"/><stop offset="0" stop-color="#fff"/><stop offset="0.13" stop-color="#f0f0f1"/><stop offset="0.37" stop-color="#c9cacb"/><stop offset="0.52" stop-color="#adaeb0"/><stop offset="0.6" stop-color="#a3a5a7"/><stop offset="0.74" stop-color="#898d90"/><stop offset="0.91" stop-color="#5f6769"/><stop offset="1" stop-color="#465053"/></radialGradient></defs><title>Hufflepuff</title><path class="cls-1" d="M254.79,27.14c11.35-.72,20.94,2.5,30.76,5.23,11.38,3.16,22.72,6.35,33.81,10.4,11.24,4.11,22.55,8.06,33.62,12.58a189.11,189.11,0,0,1,48,28.2,23.71,23.71,0,0,1,3,2.68c1,1.11,2.14,2.33,1.29,4-.75,1.45-2.29,1.15-3.58,1.18A15.49,15.49,0,0,0,388.3,99c-3.3,5.17-7.49,9.85-9.3,15.87-2.94,9.74,1.24,14.87,11.25,14.32,7.29-.4,12.06-5.21,17.28-9.27,7-5.42,9.33-5.39,15.63,1,11.8,12,23.62,23.91,36.17,35.1,1.24,1.11,2.34,2.37,3.49,3.58,5.41,5.66,6.91,11.56,4,19.48-12,32.33-23.36,64.89-38.22,96.08a132.34,132.34,0,0,0-8.75,26c-1.54,6.4-1.35,12.4,3.78,17.62,4.19,4.25,7.5,9.37,12.64,12.68,2.88,1.85,2.74,4,1.31,6.84C425,363,408.27,384.85,390.38,405.69c-11.6,13.51-27.17,23-41,34.25-26,21.29-56.61,33.36-88.06,43.7a18.4,18.4,0,0,1-11.78-.26c-23.75-7.88-47-16.86-68.43-30-14.24-8.77-26.28-20.47-39.83-30.11-18.34-13.05-30.85-31-44.06-48.63A298.09,298.09,0,0,1,74.84,339.2c-2.07-3.75-1.93-6.17,1.85-8.75a41.51,41.51,0,0,0,15-18.89c2.34-5.65.57-11.26-1-16.64-4.28-14.94-11.2-28.86-17.07-43.19C63.92,228,54.54,204.12,44.48,180.52c-3.66-8.58-1.87-15,4.46-21.06,11.21-10.69,22.31-21.49,33.5-32.2,3.36-3.22,6.27-6.91,10.12-9.64,3.28-2.33,6.32-2.58,9.47.26,2.34,2.12,4.91,4,7.33,6a22.19,22.19,0,0,0,16.2,5.29c4.77-.27,7.39-2.8,8-7.36a13.54,13.54,0,0,0-.34-5.92A56.68,56.68,0,0,0,120,95a12.79,12.79,0,0,0-9.61-3.54c-1.45,0-3.22.5-3.92-1.32-.63-1.62.53-2.92,1.49-4,4.77-5.42,10.67-9.57,16.56-13.57a113,113,0,0,1,26.7-13.46c5-1.72,9.53-4.53,14.47-6.55,14.47-5.91,28.94-12.34,44-15.86C224.93,33.14,239.35,24.92,254.79,27.14Z"/><path d="M153.72,151.94c1.1-.42,2.19-.9,3.31-1.24a30,30,0,0,1,3.45-.82,10.5,10.5,0,0,1,3.77-.44c1.75.36,3.65.27,5.23,1.43a1.78,1.78,0,0,0,.95.14l8,.19a1.7,1.7,0,0,1,.61,0,29.78,29.78,0,0,0,4,1.72,40.77,40.77,0,0,0,4.39.49,6.88,6.88,0,0,1,1.74.68c.37.17.71.55,1.08.58a44.76,44.76,0,0,0,5.44.23,6.38,6.38,0,0,0,2.63-.94,51.79,51.79,0,0,0,4.75-2.92,4.87,4.87,0,0,1,3.83-.91,6.25,6.25,0,0,0,5.09-.86c1.8-1.39,4-1.57,5.94-2.36,3.19-1.27,6.48-1.27,9.83-1.12,1.44.06,2.91-.67,4.36-.63,1.68,0,3.31-.28,5-.08,2.46.28,5.08.44,7.43-1.3a35.11,35.11,0,0,1,5.4-2.79,2.88,2.88,0,0,1,.7-.19c.64-.13,1.43,0,1.89-.42a8.33,8.33,0,0,1,4.57-1.86c1.13-.13,2.25-.34,3.37-.52s2.32-.38,3.48-.59c.32-.06.63-.23.95-.27l9.21-1.21a2.11,2.11,0,0,0,.37-.06c4.16-1.32,8.47-.75,12.7-.92,2.42-.09,5.1-.31,7.5,1a3.72,3.72,0,0,0,2.54.15,6,6,0,0,1,3.24.19c2.07.57,4.16,1,6.25,1.5a37.46,37.46,0,0,1,4.27,1,19.62,19.62,0,0,1,3,1.75,3.69,3.69,0,0,0,1.1.55,2.25,2.25,0,0,1,2.13,1.78c.19.67,1.3,1.06,2,1.56,1.32.92,2.63,1.87,4,2.74s2.74,1.62,4.1,2.47c.59.37,1.11.88,1.7,1.27a57.69,57.69,0,0,1,7.68,6.22c1,.95,2.47,1.33,3.36,2.34,2.28,2.59,4.36,5.37,6.51,8.09.5.64,1,1.3,1.44,2,.21.31.59.75.51,1-.48,1.5.63,2.24,1.26,3.19a3.73,3.73,0,0,1,.89,2.43,7.51,7.51,0,0,0,1,3.17,11.33,11.33,0,0,1,1.29,5.13c-.07,3,1.39,5.52,2.45,8.16.32.8.51,1.66.84,2.45.56,1.33,1.18,2.63,1.86,4.13l-1.73-1.41c.85,3,2.13,5.81,2.7,8.83l-.37.17-1.44-2.72-.47.23c.24.7.49,1.4.73,2.1.59,1.72,1.17,3.45,1.76,5.17.52,1.51,1.16,3,1.55,4.54a36.33,36.33,0,0,0,2.81,6.93,51.41,51.41,0,0,0,3.14,5.37c.85,1.32,1.87,2.53,2.81,3.8.05.07.13.16.12.22-.31,1.94,1.31,2.35,2.3,3.19a3.25,3.25,0,0,1,1.48,2.77,3.22,3.22,0,0,0,2.41,3.22,2.33,2.33,0,0,1,1,.83c.49.69.87,1.46,1.33,2.26l-.9.57c1.31,1.51,2.55,2.94,3.79,4.36.47.54.94,1,.25,1.78a1.06,1.06,0,0,0-.09.7c0,.46.13.92.2,1.38l-.36.22,1.71,1.19.45,2.58c-.12,0-.18.07-.2.06a6.53,6.53,0,0,0-4.77-2.12,7,7,0,0,0-1.16.13,8.64,8.64,0,0,0,.26,1.56c.08.23.5.29.69.51a1.68,1.68,0,0,1,.36.78c0,.11-.29.41-.38.38a1.6,1.6,0,0,1-.68-.46,6.27,6.27,0,0,0-4.1-2.06c-.14,0-.29.09-.83.26.59.27.88.38,1.13.54a2.54,2.54,0,0,1,.63.54c0,.06-.08.42-.15.43a1.48,1.48,0,0,1-.91-.06,12.93,12.93,0,0,1-1.18-1.15,2,2,0,0,0-2.12-.67c-.33.11-.93-.21-1.23-.53-2-2.21-4-4.46-6-6.7l-.43.37,1.34,2.58-.4.3a7.92,7.92,0,0,1-1.06-1.05c-.59-.86-1.11-1.77-1.68-2.65-.08-.13-.29-.31-.38-.28-1.52.58-1.74-.76-2.22-1.7-.15-.3-.29-.61-.35-.75l.79-1.4-.35-.25-.86.65a1.61,1.61,0,0,1-.23-.29c-.48-1-.94-2.06-1.42-3.09-.59-1.27-1.59-2.32-1.36-4,.08-.61-.7-1.36-1.09-2a5.56,5.56,0,0,1-.79-1.35c-.52-2.24-.89-4.52-1.49-6.73a1.73,1.73,0,0,0-1.55-.76,2.7,2.7,0,0,0-1.6,1.3,16.22,16.22,0,0,0-.91,3c-.22.82-.41,1.65-.63,2.46q-.91,3.31-1.85,6.61c-.43,1.53-.85,3.07-1.31,4.59a41.24,41.24,0,0,1-1.62,5.05,47.67,47.67,0,0,1-4.07,7.9,20.15,20.15,0,0,1-4.94,4.37,8,8,0,0,1-3.44,1.31c-2,.29-4.06.16-6.07.41s-3.84.78-5.77,1.12a3.68,3.68,0,0,1-1.78-.07,4,4,0,0,0-3.23.08,2.17,2.17,0,0,1-1.67-.2c-1.49-.76-1.49-1-1.38-2.66.19-2.6,1.84-4.06,3.57-5.41s3.85-2.72,5.75-4.13a4.37,4.37,0,0,0,2.07-4.16c-.17-1.78-.06-3.6-.17-5.39a10,10,0,0,0-.55-2,2.85,2.85,0,0,1-.22-1c.24-2.2-.39-3.83-2.47-4.62-.22-.08-.37-.34-.56-.5-.62-.55-1-.37-1.29.41-1.06,3.11-1.94,6.3-3.25,9.28a46.73,46.73,0,0,1-4,6.69c-.63,1-1.6,1.66-2.33,2.56a13.74,13.74,0,0,0-.94,1.76,31,31,0,0,1-2.71,4.44,19.16,19.16,0,0,1-3.57,2.87,7.79,7.79,0,0,1-1.83.92,8,8,0,0,1-2.43.72c-2.43.08-4.87,0-7.3,0-2,.05-4,.38-6,.36-2.31,0-4.61-.26-7.12-.42l.69-1a4.43,4.43,0,0,1-.49-1.37c0-1.87,1.31-3,2.49-3.91,1.59-1.24,3.56-1.91,5.17-3.12a18.22,18.22,0,0,0,4.31-4.24,18.76,18.76,0,0,0,2.51-6.69,49.42,49.42,0,0,0,.86-12,1.51,1.51,0,0,0-1.2-1.61c-4-1.58-8-.54-12.07-.74-.93,0-1.94.81-2.82.64-1.72-.33-3.37.1-5,.15-1.26,0-2.51.48-3.76.49a36.19,36.19,0,0,1-4-.44,8.32,8.32,0,0,0-1.22,0l-7.22.3a2.49,2.49,0,0,0-.84.1,14.1,14.1,0,0,1-6.86,1.08c-2.62-.24-4.5,1.35-5.83,3.55a11.27,11.27,0,0,0-2,5.54,7.74,7.74,0,0,1-.66,1.81c-.82,2.65-1.57,5.31-2.42,7.94a38.76,38.76,0,0,1-2.16,5.82,71.2,71.2,0,0,1-4.17,6.71,5.61,5.61,0,0,1-1.62,1.35c-2.17,1.46-4.21,3.14-6.65,4.1a2.72,2.72,0,0,1-.93.28c-2.76,0-5.51,0-8.27,0-2.16-.05-4,.91-6,1.58a8.13,8.13,0,0,1-1.72.21l-.08-.47,5.13-2.77-.19-.56a5.69,5.69,0,0,0-1.09.34c-1.2.65-2.21,1.87-3.83,1.11-.32-.15-.91.27-1.34.5a2.31,2.31,0,0,1-2.67.07l5.3-3.21-.22-.48-1.6.73c-1.67.76-3.33,1.54-5,2.25a2.08,2.08,0,0,1-1.32.17c-.38-.12-.66-.58-1-.89.39-.3.85-.93,1.15-.85,1.65.43,2.25-1.17,3.44-1.58l-.18-.49a13.25,13.25,0,0,1-1.57.63,9,9,0,0,1-1.6.21,33.65,33.65,0,0,0-3.37.26c-1.87.35-3.65.66-5.49-.38a3.62,3.62,0,0,0-2.48.12c-.81.24-1.52.86-2.32,1.18-.35.14-.81,0-1.22-.09a3.61,3.61,0,0,1,.29-1.23c.4-.58,1-1,1.41-1.57a2.21,2.21,0,0,0,.25-.7,2.36,2.36,0,0,0-.72.19c-1.22.79-2.42,1.61-3.63,2.42-.07,0-.14.12-.21.13a10.79,10.79,0,0,1-1.41.11c-.08,0-.25-.48-.21-.52.37-.31.78-.81,1.18-.82,1.61,0,2.16-1.47,3.24-2.2l-.27-.46-2.66,1.78-.25-.41a20.33,20.33,0,0,1,3-2.94,48,48,0,0,1,5.85-3c1.7-.78,3.49-1.35,5.22-2.08,2.53-1.07,3.67-3.46,4.92-5.8,1.88-3.53,1.76-7.25,1.48-11.14a18.73,18.73,0,0,0-1.43-6.08c-.69-1.66-1-3.47-1.61-5.19a3.16,3.16,0,0,0-.75-1,11,11,0,0,0-1.53-1.61,3.57,3.57,0,0,0-1.36-.35,21,21,0,0,1-3.11-1.28c-1.2-.73-2.26-1.72-3.42-2.53-1.64-1.14-3.36-2.16-5-3.36s-3-2.4-4.39-3.67c-.55-.49-.9-1.26-1.48-1.7a4.83,4.83,0,0,0-1.61-.47,1.82,1.82,0,0,1-.79-.29c-1.83-1.83-3.66-3.68-5.44-5.56a23.84,23.84,0,0,0-4.46-4.06,17.48,17.48,0,0,0-9.55-2.65,13.31,13.31,0,0,1-2.52-.52q-3.84-.78-7.68-1.54c-2.71-.53-5.34-1.55-8.18-1.06-2.21.38-4.53.29-6.66,1a16.43,16.43,0,0,1-6.33.63,12.11,12.11,0,0,1-4.11-1.15,13.26,13.26,0,0,1-5.89-5.4,27.46,27.46,0,0,1-2.08-5.62,1.89,1.89,0,0,1,.56-1.49,6.59,6.59,0,0,1,3.7-2.15c.69-.08,1.3-.82,2-1.12,1.2-.53,2.46-.94,3.67-1.44,2.55-1,4.17-3.07,5.55-5.53a22.5,22.5,0,0,1,3.5-4.5c1.92-2,4-3.82,6-5.7.5-.46,1.07-.82,1.6-1.24a74.12,74.12,0,0,1,6.86-5.3c1.46-.89,2.93-2,4.88-2,1.12,0,2.24-.85,3.35-1.32.91-.39,1.81-.84,2.74-1.18.24-.09.58.11.88.18a14,14,0,0,1-1.7,1.27c-1.7.92-3.45,1.76-5.17,2.65a18.67,18.67,0,0,0-2.49,1.38c-1.91,1.39-3.45,3.35-5.79,4.05-.26.08-.46.36-.69.54-1.35,1.08-2.68,2.17-4,3.22-2.12,1.64-4.36,3.11-6.35,4.91a12.4,12.4,0,0,0-3,4c-1,2.28-2.87,3.5-4.73,4.66a31.47,31.47,0,0,1-4.56,1.9,5.9,5.9,0,0,0-1,.72l.1.43h2.44l.12.29a1.74,1.74,0,0,0-.65,2.77,2.65,2.65,0,0,1,.1,2.93,13.2,13.2,0,0,0-.63,1.81,2.68,2.68,0,0,1,2,2.05c.1.46,1,.7,1.59,1l.21-.34-.75-.85a9.93,9.93,0,0,1,1.77.75c1,.33,1.92,1.85,3.19.72a1.86,1.86,0,0,1,2-.38c1,.33,2.12.51,3.13.75.13-.52.14-1.07.3-1.12a5,5,0,0,1,2.49-.59,5.08,5.08,0,0,0,2.89-.18c1.35-.44,2.77-.6,4.12-1,2.32-.74,4.6-1.53,7.08-1a.94.94,0,0,0,.82-.41c.5-1.06,1.23-.69,2-.57a5.53,5.53,0,0,0,1.81-.17c1.37-.26,2.61-1.54,4.14-.32.82.65,1-.08.84-.8,1.18.14,2.29.2,3.36.44a6.77,6.77,0,0,1,2.88.83c1.26.91,1.35.78,1.67-.87,0,0,.14-.07.24-.11.21.24.38.6.64.73,1.32.67,2.91.78,3.88,2.2.07.11.64,0,.88-.22a7.63,7.63,0,0,0,1-1.14l.22,2.49c.8-1.52,1.14-1.51,1.89-.25a8,8,0,0,0,.94,1.09l.28-.26-.86-1.68.33-.34c.4.23,1.11.41,1.15.7.22,1.43,1.14,1.67,2.22,1.76l0,0c1.08,2.17,3.49,1,5,2.25,1.59-1.09,2.69.19,3.9.92.44.26.89.51,1.34.77a10.56,10.56,0,0,0-.85-1.33,26,26,0,0,0-2.41-2.57c-.57-.5-.65-.39-.32-1.28,1.72,1.33,2.85,3.58,5.05,4.17l.33-.42-2.3-2.58.2-.63c1,2.34,2.39,1.08,3.62,1.27l.1-.33-1.16-1.16.19-.3,2,.9.13-.28-2.19-3.62,2.45,1.22.21-.3L189.5,187l.21-.31,1.69.66.29-.25c-.26-.47-.54-.93-.78-1.42a6.61,6.61,0,0,1-.44-1.22c-.1-.41,0-.95-.21-1.23a14,14,0,0,0-1.56-1.57l.19-.33,3.53,2,.28-.49c-1.17-1.51-3-2.08-4.31-3.62a1.66,1.66,0,0,1,1,.12c.83.45,1.48,1.47,2.62.73.13-.08.53.17.73.36.91.9,1.16.13,1.44-.25-.83-.24-1.53-.51-2.26-.66a7.89,7.89,0,0,1-4-2.38c-.77-.78-1.55-1.53-2.33-2.29-.3-.29-.88-.64-.84-.87.21-1.27-.69-1.26-1.38-1.52-.06,0-.09-.13-.13-.21l.62-.54-.06-.42c-.41.05-.82.09-1.22.16a4.39,4.39,0,0,1-1,.25,8.1,8.1,0,0,1-1.43-.37l0,0c-.54-2.06-3.62-3.18-5.77-2.32-1.15.46-2.64.93-3.66.52-1.49-.6-2.8.48-4.2-.13a16.17,16.17,0,0,0-3.14-.66c.93-1,.93-1.72-.07-2.11l.65-1.34h-1.79c.66-1.07-1.91-1.71.19-2.92l-.29-.21-1.56.26c.5-1.27,2.17-1.76,2-3.43,0-.07.46-.28.72-.32,1.14-.16,2.29-.28,3.52-.43a10.35,10.35,0,0,0,.62,1.24,14.55,14.55,0,0,0,1,1.27,3.82,3.82,0,0,0,1.32,3,.72.72,0,0,0,.57-.09c.77-.49,1.82-4.18,1.5-5.1a12.14,12.14,0,0,1-.95-3.07c-.1-1.58-.61-2-1.45-1.42-1.1-.57-1.91-1.34-2.7-1.33-1.59,0-2.53,2-4.3,1.91-.17,0-.35.46-.56.66-.57.55-1.09,1.35-1.76,1.53a1.16,1.16,0,0,0-1,1c-.22.74-.38,1.91-1.64,1.07-.14-.09-.56.12-.75.31-.79.79-1.54,1.62-2.48,2.62l-.53-.08c-.23.65-.33,1.48-.59,1.53-1.74.39-2.48,1.89-3.41,3.19-.47.66-.83,1.4-1.25,2.1l.47.34,1.2-2,.53.51a2.61,2.61,0,0,1-1.67,2.24c-1.58.48-1,1.16-.42,2-1.73-.25-2,0-1.58,1.33-.66,1-1.64,1.77-1.77,2.7-.31,2.39-1.74,3.26-3.6,3.9a11.51,11.51,0,0,0-2.22,1.2c-.71.44-1.36,1-2.07,1.43-1.13.72-2.27,1.4-3.42,2.08a2.72,2.72,0,0,1-.8.25c-.54.12-1.09.16-1.61.32a12,12,0,0,1-2.06.74,12.3,12.3,0,0,1-2.57-.29l1.22-1.24c-.08-.44-.37-1-.21-1.28a35.58,35.58,0,0,1,2-2.93c.74-1,1.47-2.06,2.24-3.05.54-.69,1.15-1.3,1.71-2a5,5,0,0,0,1-1.34,18,18,0,0,1,5.26-7.29c1.1-1,2.49-1.66,3.36-2.8,1.75-2.29,4.16-3.47,6.39-5,2-1.33,3.91-2.71,5.81-4.16.7-.54.42-1.22-.41-1.51A7.61,7.61,0,0,1,153.72,151.94Zm-14.65,24.95c-.83-.15-1.66-.3-2.49-.43a2.48,2.48,0,0,0-.65,0,6.47,6.47,0,0,0,0,2.3,1.54,1.54,0,0,0,2,1l-1.69-1.87c1.25-.26,2.59.77,2.78-1.08a3.55,3.55,0,0,0,.91-.63,1.58,1.58,0,0,0,.18-.93c0-.09-.4-.3-.48-.24a1.43,1.43,0,0,0-.6.69A4.11,4.11,0,0,0,139.07,176.89Zm38.44-10-.42-.53a6.9,6.9,0,0,1-.85.29c-1.53.31-2.87,1.77-4.63.81-.25-.13-.73.23-1.11.36.32.26.66.78,1,.75a41.57,41.57,0,0,0,4.66-.76A4.86,4.86,0,0,0,177.51,166.85Zm-41,6.77a6.23,6.23,0,0,0,.47,1.41,1.73,1.73,0,0,0,.93.68c.12,0,.44-.49.56-.81.34-.91.9-1,1.68-.68a7.88,7.88,0,0,0,1.11.3l.07-.41C140,172.46,138.29,173.51,136.47,173.61Zm49.2.19c1.24,1.11,2.47,2.23,3.72,3.33.07.06.29-.05.43-.08a2,2,0,0,0-.15-.66,13.62,13.62,0,0,0-1.07-1.37A2.86,2.86,0,0,0,185.67,173.81Zm34.6-2.41,3.61,1.19C222.38,170.8,221.65,170.59,220.27,171.4Zm-84.06,1.2c1.76-.61,1.76-.61,1.34-2Zm194.27-16.19-.31.44,2.23,2,.42-.58Zm9.35,14-.45.43,2.11,2.54.41-.39ZM183.68,196.9l.22-.37-2-1.55-.31.51Zm-20-34.49-1.08.95c.18.17.45.53.53.49a4.3,4.3,0,0,0,1-.77A6.5,6.5,0,0,0,163.72,162.41Zm22.94,7.32c-.65-.47-1.17-.84-1.7-1.19a2.24,2.24,0,0,0-.28.44,14.22,14.22,0,0,0,1.33,1.25S186.34,170,186.66,169.73Zm-6.08-.58.2.24a11.9,11.9,0,0,0,1.31-.81c.16-.13.19-.46.27-.7-.25,0-.59-.07-.74.07A11,11,0,0,0,180.57,169.14Zm10.76,8.56,0,.24a8.08,8.08,0,0,0,1.24.35,1.62,1.62,0,0,0,.76-.22.52.52,0,0,0,0-.35,2,2,0,0,0-.77-.2A8.8,8.8,0,0,0,191.33,177.7Zm31.26,1.68.35-.5-2.39-1.54-.22.34Zm147,60.76-.4.4,2,2.22.23-.22Z"/><path d="M223.75,404.17a347.18,347.18,0,0,0,3.15-49.22q0-4-.07-7.91-.59-32.23-2.64-44.53l-.44-2.49a47,47,0,0,0,17.94-6.23l.51-.29q-3.22,20.29-3.3,49.15a169.36,169.36,0,0,0,19.7,1.1h1.32q15.67,0,22.41-1.46-.59-27.54-2.56-39.77l-.44-2.49a47,47,0,0,0,17.94-6.23l.51-.29q-3.3,20.73-3.3,50.39v2.56q0,35.23,2.71,48.34l.59,2.64a42.75,42.75,0,0,0-18.46,6.74,358.69,358.69,0,0,0,3.15-50v-2.49a131.06,131.06,0,0,0-17.07-1q-2.71,0-5.2.07-17.65.51-21.24,1.17.29,31.42,2.64,42.85l.59,2.64a42.75,42.75,0,0,0-18.46,6.74Z"/></svg>